<?xml version="1.0" encoding="iso-8859-1"?>
<!-- Generator: Adobe Illustrator 19.0.0, SVG Export Plug-In . SVG Version: 6.00 Build 0)  -->
<svg version="1.1" id="Layer_1" xmlns="http://www.w3.org/2000/svg" xmlns:xlink="http://www.w3.org/1999/xlink" x="0px" y="0px"
	 viewBox="0 0 480 480" style="enable-background:new 0 0 480 480;" xml:space="preserve">
<path style="fill:#F8F8FA;" d="M456,472H184c-8.84,0-16-7.16-16-16V64c0-8.84,7.16-16,16-16h272c8.84,0,16,7.16,16,16v392
	C472,464.84,464.84,472,456,472z"/>
<path d="M456,480H184c-13.232,0-24-10.768-24-24V64c0-13.232,10.768-24,24-24h272c13.232,0,24,10.768,24,24v392
	C480,469.232,469.232,480,456,480z M184,56c-4.408,0-8,3.592-8,8v392c0,4.408,3.592,8,8,8h272c4.408,0,8-3.592,8-8V64
	c0-4.408-3.592-8-8-8H184z"/>
<path style="fill:#D84452;" d="M424,96H216V40c0-17.672,14.328-32,32-32h144c17.672,0,32,14.328,32,32V96z"/>
<path d="M424,104H216c-4.416,0-8-3.584-8-8V40c0-22.056,17.944-40,40-40h144c22.056,0,40,17.944,40,40v56
	C432,100.416,428.416,104,424,104z M224,88h192V40c0-13.232-10.768-24-24-24H248c-13.232,0-24,10.768-24,24V88z"/>
<path d="M361.424,384h-144c-4.416,0-8-3.584-8-8s3.584-8,8-8h144c4.416,0,8,3.584,8,8S365.84,384,361.424,384z"/>
<path d="M425.432,384h-24c-4.416,0-8-3.584-8-8s3.584-8,8-8h24c4.416,0,8,3.584,8,8S429.848,384,425.432,384z"/>
<path d="M257.432,440h-40c-4.416,0-8-3.584-8-8s3.584-8,8-8h40c4.416,0,8,3.584,8,8S261.848,440,257.432,440z"/>
<path d="M425.432,440h-128c-4.416,0-8-3.584-8-8s3.584-8,8-8h128c4.416,0,8,3.584,8,8S429.848,440,425.432,440z"/>
<path d="M361.424,272h-144c-4.416,0-8-3.584-8-8s3.584-8,8-8h144c4.416,0,8,3.584,8,8S365.84,272,361.424,272z"/>
<path d="M425.432,272h-24c-4.416,0-8-3.584-8-8s3.584-8,8-8h24c4.416,0,8,3.584,8,8S429.848,272,425.432,272z"/>
<path d="M257.432,328h-40c-4.416,0-8-3.584-8-8s3.584-8,8-8h40c4.416,0,8,3.584,8,8S261.848,328,257.432,328z"/>
<path d="M425.432,328h-128c-4.416,0-8-3.584-8-8s3.584-8,8-8h128c4.416,0,8,3.584,8,8S429.848,328,425.432,328z"/>
<path d="M361.424,168h-144c-4.416,0-8-3.584-8-8s3.584-8,8-8h144c4.416,0,8,3.584,8,8S365.84,168,361.424,168z"/>
<path d="M425.432,168h-24c-4.416,0-8-3.584-8-8s3.584-8,8-8h24c4.416,0,8,3.584,8,8S429.848,168,425.432,168z"/>
<path d="M257.432,224h-40c-4.416,0-8-3.584-8-8s3.584-8,8-8h40c4.416,0,8,3.584,8,8S261.848,224,257.432,224z"/>
<path d="M425.432,224h-128c-4.416,0-8-3.584-8-8s3.584-8,8-8h128c4.416,0,8,3.584,8,8S429.848,224,425.432,224z"/>
<path style="fill:#F5BA46;" d="M216,472H40c-17.672,0-32-14.328-32-32V216c0-17.672,14.328-32,32-32h176c17.672,0,32,14.328,32,32
	v224C248,457.672,233.672,472,216,472z"/>
<path style="fill:#F8F8FA;" d="M192,280H64c-8.84,0-16-7.16-16-16v-24c0-8.84,7.16-16,16-16h128c8.84,0,16,7.16,16,16v24
	C208,272.84,200.84,280,192,280z"/>
<path d="M216,176H40c-22.056,0-40,17.944-40,40v224c0,22.056,17.944,40,40,40h176c22.056,0,40-17.944,40-40V216
	C256,193.944,238.056,176,216,176z M240,440c0,13.232-10.768,24-24,24H40c-13.232,0-24-10.768-24-24V216c0-13.232,10.768-24,24-24
	h176c13.232,0,24,10.768,24,24V440z"/>
<path d="M64,288h128c13.232,0,24-10.768,24-24v-24c0-13.232-10.768-24-24-24H64c-13.232,0-24,10.768-24,24v24
	C40,277.232,50.768,288,64,288z M56,240c0-4.408,3.592-8,8-8h128c4.408,0,8,3.592,8,8v24c0,4.408-3.592,8-8,8H64
	c-4.408,0-8-3.592-8-8V240z"/>
<path d="M209.432,320h-16c-4.416,0-8,3.584-8,8s3.584,8,8,8h16c4.416,0,8-3.584,8-8S213.848,320,209.432,320z"/>
<path d="M209.432,368h-16c-4.416,0-8,3.584-8,8s3.584,8,8,8h16c4.416,0,8-3.584,8-8S213.848,368,209.432,368z"/>
<path d="M209.432,416h-16c-4.416,0-8,3.584-8,8s3.584,8,8,8h16c4.416,0,8-3.584,8-8S213.848,416,209.432,416z"/>
<path d="M161.432,320h-16c-4.416,0-8,3.584-8,8s3.584,8,8,8h16c4.416,0,8-3.584,8-8S165.848,320,161.432,320z"/>
<path d="M113.432,320h-16c-4.416,0-8,3.584-8,8s3.584,8,8,8h16c4.416,0,8-3.584,8-8S117.848,320,113.432,320z"/>
<path d="M65.432,320h-16c-4.416,0-8,3.584-8,8s3.584,8,8,8h16c4.416,0,8-3.584,8-8S69.848,320,65.432,320z"/>
<path d="M161.432,368h-16c-4.416,0-8,3.584-8,8s3.584,8,8,8h16c4.416,0,8-3.584,8-8S165.848,368,161.432,368z"/>
<path d="M113.432,368h-16c-4.416,0-8,3.584-8,8s3.584,8,8,8h16c4.416,0,8-3.584,8-8S117.848,368,113.432,368z"/>
<path d="M65.432,368h-16c-4.416,0-8,3.584-8,8s3.584,8,8,8h16c4.416,0,8-3.584,8-8S69.848,368,65.432,368z"/>
<path d="M161.432,416h-16c-4.416,0-8,3.584-8,8s3.584,8,8,8h16c4.416,0,8-3.584,8-8S165.848,416,161.432,416z"/>
<path d="M113.432,416h-16c-4.416,0-8,3.584-8,8s3.584,8,8,8h16c4.416,0,8-3.584,8-8S117.848,416,113.432,416z"/>
<path d="M65.432,416h-16c-4.416,0-8,3.584-8,8s3.584,8,8,8h16c4.416,0,8-3.584,8-8S69.848,416,65.432,416z"/>
<path d="M64,40H48V24c0-4.416-3.584-8-8-8s-8,3.584-8,8v16H16c-4.416,0-8,3.584-8,8s3.584,8,8,8h16v16c0,4.416,3.584,8,8,8
	s8-3.584,8-8V56h16c4.416,0,8-3.584,8-8S68.416,40,64,40z"/>
<path d="M115.312,120l10.344-10.344c3.128-3.128,3.128-8.184,0-11.312s-8.184-3.128-11.312,0L104,108.688L93.656,98.344
	c-3.128-3.128-8.184-3.128-11.312,0s-3.128,8.184,0,11.312L92.688,120l-10.344,10.344c-3.128,3.128-3.128,8.184,0,11.312
	C83.904,143.216,85.952,144,88,144s4.096-0.784,5.656-2.344L104,131.312l10.344,10.344c1.56,1.56,3.608,2.344,5.656,2.344
	s4.096-0.784,5.656-2.344c3.128-3.128,3.128-8.184,0-11.312L115.312,120z"/>
<g>
	<circle style="fill:#F8F8FA;" cx="324" cy="52" r="20"/>
	<circle style="fill:#F8F8FA;" cx="324" cy="52" r="20"/>
</g>
<path d="M324,80c-15.44,0-28-12.56-28-28s12.56-28,28-28s28,12.56,28,28S339.44,80,324,80z M324,40c-6.616,0-12,5.384-12,12
	s5.384,12,12,12s12-5.384,12-12S330.616,40,324,40z"/>
<g>
</g>
<g>
</g>
<g>
</g>
<g>
</g>
<g>
</g>
<g>
</g>
<g>
</g>
<g>
</g>
<g>
</g>
<g>
</g>
<g>
</g>
<g>
</g>
<g>
</g>
<g>
</g>
<g>
</g>
</svg>
