<?xml version="1.0" encoding="iso-8859-1"?>
<!-- Generator: Adobe Illustrator 19.0.0, SVG Export Plug-In . SVG Version: 6.00 Build 0)  -->
<svg version="1.1" id="Capa_1" xmlns="http://www.w3.org/2000/svg" xmlns:xlink="http://www.w3.org/1999/xlink" x="0px" y="0px"
	 viewBox="0 0 426.667 426.667" style="enable-background:new 0 0 426.667 426.667;" xml:space="preserve">
<g>
	<path style="fill:#CE412D;" d="M317.06,307.955h-29.068v-51.91h15.399v36.511h13.669c19.579,0,35.511-15.932,35.511-35.515v-60.613
		h15.398v60.613C367.97,285.116,345.135,307.955,317.06,307.955z"/>
	<path style="fill:#CE412D;" d="M337.61,126.86c0.409,0,0.818-0.026,1.236-0.085c4.773-0.682,8.088-5.097,7.415-9.869
		c-1.662-11.71-9.264-21.665-21.409-28.014c-11.199-5.864-25.168-7.977-39.247-5.974c-4.773,0.682-8.088,5.097-7.415,9.869
		c0.682,4.773,5.071,8.114,9.869,7.415c10.56-1.509,20.719-0.026,28.696,4.151c7.031,3.682,11.369,9.009,12.222,15.009
		C329.599,123.715,333.332,126.86,337.61,126.86z"/>
</g>
<path style="fill:#D5D6DB;" d="M323.59,150.392h59.182v50.719h-45.205L323.59,150.392z M374.045,159.119h-39l9.171,33.264h29.83
	V159.119z"/>
<path style="fill:#2F4859;" d="M344.479,102.354l-22.807,13.576l-2.172,36.383h62.991
	C390.092,109.957,344.479,102.354,344.479,102.354z"/>
<path style="fill:#D5D6DB;" d="M366.682,183.937c2.412,0,4.364-1.952,4.364-4.364c0-2.412-1.952-4.364-4.364-4.364
	c-3.989,0-8.455-7.696-8.455-18c0-2.412-1.952-4.364-4.364-4.364c-2.412,0-4.364,1.952-4.364,4.364
	C349.5,172.201,357.051,183.937,366.682,183.937z"/>
<path style="fill:#2F4859;" d="M298.003,0H63.209c-6.228,0-11.276,5.049-11.276,11.277V373.93c0,6.228,5.049,11.277,11.276,11.277
	h234.794c6.228,0,11.277-5.049,11.277-11.277V11.277C309.28,5.049,304.231,0,298.003,0z"/>
<rect x="66.513" y="54.682" style="fill:#FCD462;" width="229.184" height="115.243"/>
<rect x="77.867" y="68.736" style="fill:#31978C;" width="205.483" height="31.215"/>
<path style="fill:#27A2DB;" d="M309.505,385.206H53.363c-5.546,0-10.042,4.496-10.042,10.041v21.378
	c0,5.546,4.496,10.041,10.042,10.041h256.142c5.546,0,10.042-4.496,10.042-10.041v-21.378
	C319.547,389.702,315.051,385.206,309.505,385.206z"/>
<path style="fill:#FCD462;" d="M213.128,277.306c5.96,24.888-16.655,46.338-37.2,46.338s-43.16-21.45-37.201-46.338
	c4.782-19.968,37.201-73.221,37.201-73.221S208.346,257.338,213.128,277.306z"/>
<g>
</g>
<g>
</g>
<g>
</g>
<g>
</g>
<g>
</g>
<g>
</g>
<g>
</g>
<g>
</g>
<g>
</g>
<g>
</g>
<g>
</g>
<g>
</g>
<g>
</g>
<g>
</g>
<g>
</g>
</svg>
