<?xml version="1.0" encoding="iso-8859-1"?>
<!-- Generator: Adobe Illustrator 19.0.0, SVG Export Plug-In . SVG Version: 6.00 Build 0)  -->
<svg version="1.1" id="Layer_1" xmlns="http://www.w3.org/2000/svg" xmlns:xlink="http://www.w3.org/1999/xlink" x="0px" y="0px"
	 viewBox="0 0 511.999 511.999" style="enable-background:new 0 0 511.999 511.999;" xml:space="preserve">
<circle style="fill:#21D8DE;" cx="259.036" cy="256.436" r="252.086"/>
<path style="fill:#16C6CC;" d="M33.651,369.316c41.419,82.525,126.763,139.205,225.391,139.205s183.972-56.68,225.391-139.205
	H33.651z"/>
<path style="fill:#06B2B8;" d="M7.475,272.458v-15.5h27.024v27.021H8.458c0.038,0.347,0.079,0.694,0.119,1.04h25.922v26.898H13.094
	c0.078,0.347,0.148,0.699,0.227,1.047h21.177v27.021h-13.35c0.121,0.346,0.243,0.694,0.366,1.04h12.983v26.898h-1.595
	c0.172,0.348,0.345,0.696,0.518,1.044h1.076v2.165c0.339,0.662,0.695,1.315,1.04,1.975v-4.14h26.898v27.024H49.089
	c0.23,0.346,0.455,0.698,0.687,1.042h12.658v17.168c0.349,0.434,0.695,0.869,1.047,1.3v-18.468h27.021v26.898H70.666
	c0.308,0.346,0.613,0.695,0.922,1.04h18.916v18.916c0.345,0.309,0.694,0.614,1.04,0.922V424.97h26.899v27.021H99.975
	c0.431,0.352,0.866,0.698,1.3,1.047h17.168v12.658c0.345,0.232,0.696,0.456,1.042,0.686v-13.346h27.024v26.898h-4.139
	c0.66,0.345,1.312,0.701,1.975,1.04h2.165v1.076c0.347,0.174,0.695,0.346,1.042,0.518v-1.592h26.898v12.983
	c0.346,0.123,0.694,0.244,1.04,0.366v-13.349h27.021v21.177c0.347,0.079,0.699,0.15,1.047,0.227v-21.405h26.898v25.922
	c0.346,0.04,0.692,0.081,1.04,0.119v-26.041h27.024V508h-15.503c5.301,0.332,10.641,0.521,16.026,0.521
	c5.385,0,10.724-0.189,16.026-0.521h-15.5v-27.024h27.021v26.042c0.347-0.038,0.694-0.079,1.04-0.119v-25.923h26.898v21.405
	c0.348-0.078,0.699-0.148,1.047-0.227v-21.177h27.021v13.35c0.346-0.121,0.694-0.243,1.04-0.366v-12.984h26.898v1.595
	c0.348-0.172,0.696-0.345,1.042-0.518v-1.076h2.165c0.663-0.339,1.315-0.695,1.975-1.04h-4.139v-26.898H398.6v13.346
	c0.346-0.23,0.698-0.455,1.042-0.686V453.04h17.168c0.434-0.349,0.869-0.695,1.3-1.047h-18.468v-27.021h26.898v19.838
	c0.346-0.308,0.695-0.613,1.04-0.922v-18.916h18.916c0.309-0.345,0.614-0.694,0.922-1.04H427.58v-26.898H454.6v18.468
	c0.352-0.431,0.698-0.866,1.047-1.3v-17.168h12.658c0.232-0.345,0.456-0.696,0.686-1.042h-13.346v-27.024h26.898v4.139
	c0.345-0.66,0.701-1.312,1.04-1.975v-2.165h1.076c0.174-0.348,0.346-0.695,0.518-1.044h-1.595v-26.898h12.983
	c0.123-0.346,0.244-0.694,0.366-1.04h-13.35v-27.021h21.177c0.079-0.348,0.15-0.699,0.227-1.047h-21.405V285.02h25.922
	c0.04-0.346,0.081-0.692,0.119-1.04h-26.042v-27.022h27.021v15.557c0.335-5.32,0.525-10.678,0.525-16.082
	c0-5.404-0.191-10.762-0.525-16.082v15.559h-27.021v-27.024h26.042c-0.038-0.347-0.079-0.694-0.119-1.04h-25.923V200.95h21.405
	c-0.078-0.347-0.148-0.699-0.227-1.047h-21.177v-27.021h13.35c-0.121-0.346-0.243-0.694-0.366-1.04h-12.983v-26.898h1.595
	c-0.172-0.348-0.345-0.696-0.518-1.042h-1.076v-2.165c-0.339-0.662-0.695-1.315-1.04-1.975v4.139h-26.898v-27.024h13.346
	c-0.23-0.346-0.455-0.698-0.686-1.042h-12.658v-17.17c-0.349-0.434-0.695-0.869-1.047-1.3v18.468h-27.021V88.936h19.838
	c-0.308-0.346-0.613-0.695-0.922-1.04h-18.916V68.98c-0.345-0.309-0.694-0.614-1.04-0.922v19.838h-26.898V60.876h18.468
	c-0.431-0.352-0.866-0.698-1.3-1.047h-17.168V47.172c-0.345-0.232-0.696-0.456-1.042-0.687v13.346h-27.024V32.93h4.139
	c-0.66-0.345-1.312-0.701-1.975-1.04h-2.165v-1.076c-0.348-0.174-0.695-0.346-1.042-0.518v1.595h-26.898V18.906
	c-0.346-0.123-0.694-0.244-1.04-0.366v13.35h-27.021V10.714c-0.347-0.079-0.699-0.15-1.047-0.227v21.406h-26.898V5.969
	c-0.346-0.04-0.692-0.081-1.04-0.119v26.042h-27.021V4.867h15.501c-5.301-0.333-10.642-0.521-16.027-0.521
	c-5.385,0-10.726,0.189-16.027,0.521h15.506v27.024h-27.024V5.85c-0.347,0.038-0.694,0.079-1.04,0.119v25.923h-26.898V10.486
	c-0.348,0.078-0.699,0.148-1.047,0.227v21.177h-27.021v-13.35c-0.346,0.121-0.694,0.243-1.04,0.366v12.984h-26.898v-1.595
	c-0.347,0.172-0.696,0.345-1.042,0.518v1.076h-2.165c-0.663,0.339-1.315,0.695-1.975,1.04h4.139v26.898h-27.024V46.482
	c-0.346,0.23-0.698,0.455-1.042,0.687v12.658h-17.168c-0.434,0.349-0.869,0.695-1.3,1.047h18.468v27.021H91.544V68.058
	c-0.346,0.308-0.695,0.613-1.04,0.922v18.916H71.59c-0.309,0.345-0.614,0.694-0.922,1.04h19.838v26.898H63.485V97.367
	c-0.352,0.431-0.698,0.866-1.047,1.3v17.168H49.779c-0.232,0.345-0.456,0.696-0.687,1.042h13.346v27.024H35.539v-4.14
	c-0.345,0.66-0.701,1.312-1.04,1.975v2.165h-1.076c-0.174,0.347-0.346,0.695-0.518,1.042h1.595v26.898H21.516
	c-0.123,0.346-0.244,0.694-0.366,1.04H34.5v27.021H13.322c-0.079,0.347-0.15,0.699-0.227,1.047h21.405v26.898H8.577
	c-0.04,0.346-0.081,0.692-0.119,1.04H34.5v27.024H7.475v-15.504c-0.332,5.301-0.521,10.641-0.521,16.026
	S7.143,267.159,7.475,272.458z M35.539,256.958h26.898v27.021H35.539V256.958z M119.486,312.964h27.024v27.021h-27.024V312.964z
	 M118.443,339.985H91.544v-27.021h26.899V339.985z M258.52,285.019v26.898h-27.024v-26.898H258.52z M231.496,283.979v-27.021h27.024
	v27.021H231.496z M259.567,285.019h27.021v26.898h-27.021V285.019z M259.567,283.979v-27.021h27.021v27.021H259.567z
	 M287.627,256.958h26.898v27.021h-26.898V256.958z M287.627,255.912v-27.024h26.898v27.024H287.627z M286.588,255.912h-27.021
	v-27.024h27.021V255.912z M259.567,227.848V200.95h27.021v26.898H259.567z M258.52,227.848h-27.024V200.95h27.024V227.848z
	 M258.52,228.888v27.024h-27.024v-27.024H258.52z M230.457,255.912h-26.898v-27.024h26.898L230.457,255.912L230.457,255.912z
	 M230.457,256.958v27.021h-26.898v-27.021H230.457z M202.512,283.979h-27.021v-27.021h27.021V283.979z M202.512,285.019v26.898
	h-27.021v-26.898H202.512z M203.559,285.019h26.898v26.898h-26.898L203.559,285.019L203.559,285.019z M230.457,312.964v27.021
	h-26.898v-27.021H230.457z M231.496,312.964h27.024v27.021h-27.024V312.964z M258.52,341.024v26.898h-27.024v-26.898H258.52z
	 M259.567,341.024h27.021v26.898h-27.021V341.024z M259.567,339.985v-27.021h27.021v27.021H259.567z M287.627,312.964h26.898v27.021
	h-26.898V312.964z M287.627,311.917v-26.898h26.898v26.898H287.627L287.627,311.917z M315.572,285.019h27.021v26.898h-27.021
	V285.019z M315.572,283.979v-27.021h27.021v27.021H315.572z M343.633,256.958h26.898v27.021h-26.898L343.633,256.958
	L343.633,256.958z M343.633,255.912v-27.024h26.898v27.024H343.633z M342.593,255.912h-27.021v-27.024h27.021V255.912z
	 M315.572,227.848V200.95h27.021v26.898H315.572z M314.525,227.848h-26.898V200.95h26.898V227.848z M287.627,199.904v-27.021h26.898
	v27.021H287.627z M286.588,199.904h-27.021v-27.021h27.021V199.904z M259.567,171.843v-26.898h27.021v26.898H259.567z
	 M258.52,171.843h-27.024v-26.898h27.024V171.843z M258.52,172.883v27.021h-27.024v-27.021H258.52z M230.457,199.904h-26.898
	v-27.021h26.898L230.457,199.904L230.457,199.904z M230.457,200.95v26.898h-26.898V200.95H230.457z M202.512,227.848h-27.021V200.95
	h27.021V227.848z M202.512,228.888v27.024h-27.021v-27.024H202.512z M174.451,255.912h-26.898v-27.024h26.898V255.912z
	 M174.451,256.958v27.021h-26.898v-27.021H174.451z M174.451,285.019v26.898h-26.898v-26.898H174.451z M174.451,312.964v27.021
	h-26.898v-27.021H174.451z M175.491,312.964h27.021v27.021h-27.021V312.964L175.491,312.964z M202.512,341.024v26.898h-27.021
	v-26.898H202.512z M203.559,341.024h26.898v26.898h-26.898L203.559,341.024L203.559,341.024z M230.457,368.966v27.024h-26.898
	v-27.024H230.457z M231.496,368.966h27.024v27.024h-27.024V368.966z M259.567,368.966h27.021v27.024h-27.021V368.966z
	 M287.627,368.966h26.898v27.024h-26.898V368.966z M287.627,367.922v-26.898h26.898v26.898H287.627z M315.572,341.024h27.021v26.898
	h-27.021V341.024z M315.572,339.985v-27.021h27.021v27.021H315.572z M343.633,312.964h26.898v27.021h-26.898L343.633,312.964
	L343.633,312.964z M343.633,311.917v-26.898h26.898v26.898H343.633L343.633,311.917z M371.574,285.019h27.024v26.898h-27.024
	V285.019z M371.574,283.979v-27.021h27.024v27.021H371.574z M371.574,255.912v-27.024h27.024v27.024H371.574z M371.574,227.848
	V200.95h27.024v26.898H371.574z M370.531,227.848h-26.898V200.95h26.898V227.848z M343.633,199.904v-27.021h26.898v27.021H343.633z
	 M342.593,199.904h-27.021v-27.021h27.021V199.904z M315.572,171.843v-26.898h27.021v26.898H315.572z M314.525,171.843h-26.898
	v-26.898h26.898V171.843z M287.627,143.901v-27.024h26.898v27.024H287.627z M286.588,143.901h-27.021v-27.024h27.021V143.901z
	 M258.52,143.901h-27.024v-27.024h27.024V143.901z M230.457,143.901h-26.898v-27.024h26.898L230.457,143.901L230.457,143.901z
	 M230.457,144.945v26.898h-26.898v-26.898H230.457z M202.512,171.843h-27.021v-26.898h27.021V171.843z M202.512,172.883v27.021
	h-27.021v-27.021H202.512z M174.451,199.904h-26.898v-27.021h26.898V199.904z M174.451,200.95v26.898h-26.898V200.95H174.451z
	 M146.51,227.848h-27.024V200.95h27.024V227.848L146.51,227.848z M146.51,228.888v27.024h-27.024v-27.024H146.51z M146.51,256.958
	v27.021h-27.024v-27.021H146.51z M146.51,285.019v26.898h-27.024v-26.898H146.51z M146.51,341.024v26.898h-27.024v-26.898H146.51z
	 M147.553,341.024h26.898v26.898h-26.898V341.024z M174.451,368.966v27.024h-26.898v-27.024H174.451z M175.491,368.966h27.021
	v27.024h-27.021V368.966L175.491,368.966z M202.512,397.032v26.898h-27.021v-26.898H202.512z M203.559,397.032h26.898v26.898
	h-26.898L203.559,397.032L203.559,397.032z M231.496,397.032h27.024v26.898h-27.024V397.032z M259.567,397.032h27.021v26.898
	h-27.021V397.032z M287.627,397.032h26.898v26.898h-26.898V397.032z M315.572,397.032h27.021v26.898h-27.021V397.032z
	 M315.572,395.99v-27.024h27.021v27.024H315.572z M343.633,368.966h26.898v27.024h-26.898L343.633,368.966L343.633,368.966z
	 M343.633,367.922v-26.898h26.898v26.898H343.633z M371.574,341.024h27.024v26.898h-27.024V341.024z M371.574,339.985v-27.021
	h27.024v27.021H371.574z M399.641,312.964h26.898v27.021h-26.898V312.964z M399.641,311.917v-26.898h26.898v26.898H399.641
	L399.641,311.917z M399.641,283.979v-27.021h26.898v27.021H399.641z M399.641,255.912v-27.024h26.898v27.024H399.641z
	 M399.641,227.848V200.95h26.898v26.898H399.641z M399.641,199.904v-27.021h26.898v27.021H399.641z M398.598,199.904h-27.024
	v-27.021h27.024V199.904z M371.574,171.843v-26.898h27.024v26.898H371.574z M370.531,171.843h-26.898v-26.898h26.898V171.843z
	 M343.633,143.901v-27.024h26.898v27.024H343.633z M342.593,143.901h-27.021v-27.024h27.021V143.901z M315.572,115.835V88.936
	h27.021v26.898h-27.021V115.835z M314.525,115.835h-26.898V88.936h26.898V115.835z M286.588,115.835h-27.021V88.936h27.021V115.835z
	 M258.52,115.835h-27.024V88.936h27.024V115.835z M230.457,115.835h-26.898V88.936h26.898L230.457,115.835L230.457,115.835z
	 M202.512,115.835h-27.021V88.936h27.021V115.835z M202.512,116.877v27.024h-27.021v-27.024H202.512z M174.451,143.901h-26.898
	v-27.024h26.898V143.901z M174.451,144.945v26.898h-26.898v-26.898H174.451z M146.51,171.843h-27.024v-26.898h27.024V171.843
	L146.51,171.843z M146.51,172.883v27.021h-27.024v-27.021H146.51z M118.443,199.904H91.544v-27.021h26.899V199.904z M118.443,200.95
	v26.898H91.544V200.95H118.443z M118.443,228.888v27.024H91.544v-27.024H118.443z M118.443,256.958v27.021H91.544v-27.021H118.443z
	 M118.443,285.019v26.898H91.544v-26.898H118.443z M90.504,311.917H63.485v-26.898h27.021v26.898H90.504z M90.504,312.964v27.021
	H63.485v-27.021H90.504z M90.504,341.024v26.898H63.485v-26.898H90.504z M91.544,341.024h26.899v26.898H91.544V341.024z
	 M118.443,368.966v27.024H91.544v-27.024H118.443z M119.486,368.966h27.024v27.024h-27.024V368.966z M146.51,397.032v26.898h-27.024
	v-26.898H146.51z M147.553,397.032h26.898v26.898h-26.898V397.032z M174.451,424.971v27.021h-26.898v-27.021H174.451z
	 M175.491,424.971h27.021v27.021h-27.021V424.971L175.491,424.971z M203.559,424.971h26.898v27.021h-26.898L203.559,424.971
	L203.559,424.971z M231.496,424.971h27.024v27.021h-27.024V424.971z M259.567,424.971h27.021v27.021h-27.021V424.971z
	 M287.627,424.971h26.898v27.021h-26.898V424.971z M315.572,424.971h27.021v27.021h-27.021V424.971z M343.633,424.971h26.898v27.021
	h-26.898L343.633,424.971L343.633,424.971z M343.633,423.932v-26.898h26.898v26.898H343.633z M371.574,397.032h27.024v26.898
	h-27.024V397.032z M371.574,395.99v-27.024h27.024v27.024H371.574z M399.641,368.966h26.898v27.024h-26.898V368.966z
	 M399.641,367.922v-26.898h26.898v26.898H399.641z M427.58,341.024h27.021v26.898H427.58V341.024z M427.58,339.985v-27.021h27.021
	v27.021H427.58z M427.58,311.917v-26.898h27.021v26.898H427.58L427.58,311.917z M427.58,283.979v-27.021h27.021v27.021H427.58z
	 M427.58,255.912v-27.024h27.021v27.024H427.58z M427.58,227.848V200.95h27.021v26.898H427.58z M427.58,199.904v-27.021h27.021
	v27.021H427.58z M427.58,171.843v-26.898h27.021v26.898H427.58z M426.54,171.843h-26.898v-26.898h26.898V171.843z M399.641,143.901
	v-27.024h26.898v27.024H399.641z M398.598,143.901h-27.024v-27.024h27.024V143.901z M371.574,115.835V88.936h27.024v26.898h-27.024
	V115.835z M370.531,115.835h-26.898V88.936h26.898V115.835z M343.633,87.896V60.876h26.898v27.021h-26.898V87.896z M342.593,87.896
	h-27.021V60.876h27.021V87.896z M314.525,87.896h-26.898V60.876h26.898V87.896z M286.588,87.896h-27.021V60.876h27.021V87.896z
	 M258.52,87.896h-27.024V60.876h27.024V87.896z M230.457,87.896h-26.898V60.876h26.898L230.457,87.896L230.457,87.896z
	 M202.512,87.896h-27.021V60.876h27.021V87.896z M174.451,87.896h-26.898V60.876h26.898V87.896z M174.451,88.936v26.898h-26.898
	V88.936H174.451z M146.51,115.835h-27.024V88.936h27.024V115.835L146.51,115.835z M146.51,116.877v27.024h-27.024v-27.024H146.51z
	 M118.443,143.901H91.544v-27.024h26.899V143.901z M118.443,144.945v26.898H91.544v-26.898H118.443z M90.504,171.843H63.485v-26.898
	h27.021v26.898H90.504z M90.504,172.883v27.021H63.485v-27.021H90.504z M90.504,200.95v26.898H63.485V200.95H90.504z
	 M90.504,228.888v27.024H63.485v-27.024H90.504z M90.504,256.958v27.021H63.485v-27.021H90.504z M35.539,285.019h26.898v26.898
	H35.539V285.019z M35.539,312.964h26.898v27.021H35.539V312.964z M35.539,367.922v-26.898h26.898v26.898H35.539z M63.485,395.99
	v-27.024h27.021v27.024H63.485z M91.544,423.932v-26.898h26.899v26.898H91.544z M119.486,451.991V424.97h27.024v27.021H119.486z
	 M147.553,479.937v-26.898h26.898v26.898H147.553z M175.491,479.937v-26.898h27.021v26.898H175.491z M203.559,479.937v-26.898
	h26.898v26.898H203.559z M231.496,479.937v-26.898h27.024v26.898H231.496z M259.567,479.937v-26.898h27.021v26.898H259.567z
	 M287.627,479.937v-26.898h26.898v26.898H287.627z M315.572,479.937v-26.898h27.021v26.898H315.572z M370.531,479.937h-26.898
	v-26.898h26.898V479.937z M398.598,451.991h-27.024V424.97h27.024V451.991z M426.54,423.932h-26.898v-26.898h26.898V423.932z
	 M454.599,395.99h-27.021v-27.024h27.021V395.99z M482.545,367.922h-26.898v-26.898h26.898V367.922z M482.545,339.985h-26.898
	v-27.021h26.898V339.985z M482.545,311.917h-26.898v-26.898h26.898V311.917z M482.545,283.979h-26.898v-27.021h26.898V283.979z
	 M482.545,255.912h-26.898v-27.024h26.898V255.912z M482.545,227.848h-26.898V200.95h26.898V227.848z M482.545,199.904h-26.898
	v-27.021h26.898V199.904z M482.545,144.945v26.898h-26.898v-26.898H482.545z M454.599,116.877v27.024h-27.021v-27.024H454.599z
	 M426.54,88.936v26.898h-26.898V88.936H426.54z M398.598,60.876v27.021h-27.024V60.876H398.598z M370.531,32.93v26.898h-26.898
	V32.93H370.531z M342.593,32.93v26.898h-27.021V32.93H342.593z M314.525,32.93v26.898h-26.898V32.93H314.525z M286.588,32.93v26.898
	h-27.021V32.93H286.588z M258.52,32.93v26.898h-27.024V32.93H258.52z M230.457,32.93v26.898h-26.898V32.93H230.457z M202.512,32.93
	v26.898h-27.021V32.93H202.512z M147.553,32.93h26.898v26.898h-26.898V32.93z M119.486,60.876h27.024v27.021h-27.024V60.876z
	 M91.544,88.936h26.899v26.898H91.544V88.936z M63.485,116.877h27.021v27.024H63.485V116.877z M35.539,144.945h26.898v26.898H35.539
	V144.945z M35.539,172.883h26.898v27.021H35.539V172.883z M35.539,200.95h26.898v26.898H35.539V200.95z M35.539,228.888h26.898
	v27.024H35.539V228.888z"/>
<path style="fill:#242D3C;" d="M482.917,117.813l-26.26,32.079l-26.262,8.919l-26.2,41.234l-26.248,3.647l-26.265,27.295
	l-26.182-15.473l-30.554-31.753l-21.968,38.714l-26.262,13.686l-26.252-16.906l-26.196,14.719l-26.26,6.662l-26.255,40.508
	l-26.2,18.459l-26.255-25.834l-26.252-8.817l-26.265,37.417l-26.262-8.101l-0.662,0.538c1.004,6.577,2.273,13.068,3.774,19.468
	l23.149,5.269l26.265-27.695l26.252,6.554l26.255,19.118l26.2-13.682l26.255-29.976l26.26-4.948l26.196-10.925l26.252,12.628
	l26.262-10.135l21.968-28.686l30.554,23.526l26.182,11.398l26.265-20.16l26.248-2.771l26.2-30.456l26.262-6.638l26.26-23.755
	l28.213-11.332V102.57L482.917,117.813z"/>
<path style="fill:#F2F2F2;" d="M456.659,206.694l-26.262,6.638l-26.2,30.456l-26.248,2.771l-26.265,20.16l-26.182-11.398
	l-30.554-23.526l-21.968,28.686l-26.262,10.135l-26.252-12.628l-26.196,10.925l-26.26,4.948l-26.255,29.976l-26.2,13.682
	l-26.255-19.118l-26.252-6.554L36.78,319.542l-23.149-5.269c2.756,11.74,6.328,23.166,10.663,34.211l12.486,1.117l26.265-10.696
	l26.252,2.517l26.255,7.43l26.2-5.327l26.255-11.51l26.26-1.927l26.196-4.225l26.252,4.854l26.262-3.887l21.968-11.091l30.554,9.071
	l26.182,4.454l26.265-7.858l26.248-1.042l26.2-11.777l26.262-2.493l26.26-9.242l28.213-4.375V171.603l-28.213,11.332
	L456.659,206.694z"/>
<path style="fill:#FF6D3B;" d="M456.659,306.097l-26.262,2.493l-26.2,11.777l-26.248,1.042l-26.265,7.858l-26.182-4.454
	l-30.554-9.071l-21.968,11.091l-26.262,3.887l-26.252-4.854l-26.196,4.225l-26.26,1.927l-26.255,11.51l-26.2,5.327l-26.255-7.43
	l-26.252-2.517L36.78,349.604l-12.486-1.117c2.666,6.793,5.63,13.436,8.854,19.927l477.981,0.078v-76.009l-28.213,4.375
	L456.659,306.097z"/>
<g>
	<rect x="482.192" y="368.452" style="fill:#242D3C;" width="1.739" height="6.996"/>
	<rect x="510.26" y="367.576" style="fill:#242D3C;" width="1.739" height="7.865"/>
	<rect x="454.252" y="368.452" style="fill:#242D3C;" width="1.739" height="6.996"/>
	<rect x="426.184" y="368.452" style="fill:#242D3C;" width="1.739" height="6.996"/>
	<rect x="398.244" y="368.452" style="fill:#242D3C;" width="1.739" height="6.996"/>
	<rect x="370.19" y="368.452" style="fill:#242D3C;" width="1.739" height="6.996"/>
	<rect x="342.25" y="368.452" style="fill:#242D3C;" width="1.739" height="6.996"/>
	<rect x="314.182" y="368.452" style="fill:#242D3C;" width="1.739" height="6.996"/>
	<rect x="286.242" y="368.452" style="fill:#242D3C;" width="1.739" height="6.996"/>
	<rect x="258.174" y="368.452" style="fill:#242D3C;" width="1.739" height="6.996"/>
	<rect x="230.106" y="368.452" style="fill:#242D3C;" width="1.739" height="6.996"/>
	<rect x="202.166" y="368.452" style="fill:#242D3C;" width="1.739" height="6.996"/>
	<rect x="174.098" y="368.452" style="fill:#242D3C;" width="1.739" height="6.996"/>
	<rect x="146.158" y="368.452" style="fill:#242D3C;" width="1.739" height="6.996"/>
	<rect x="118.104" y="368.452" style="fill:#242D3C;" width="1.739" height="6.996"/>
	<rect x="90.157" y="368.452" style="fill:#242D3C;" width="1.739" height="6.996"/>
	<rect x="62.091" y="368.452" style="fill:#242D3C;" width="1.739" height="6.996"/>
	<rect x="34.156" y="368.452" style="fill:#242D3C;" width="1.739" height="6.996"/>
	<rect x="6.954" y="367.576" style="fill:#242D3C;" width="504.172" height="1.739"/>
	<rect y="3.477" style="fill:#242D3C;" width="6.954" height="1.739"/>
	<rect y="339.636" style="fill:#242D3C;" width="6.954" height="1.739"/>
	<rect y="311.568" style="fill:#242D3C;" width="6.954" height="1.739"/>
	<rect y="283.628" style="fill:#242D3C;" width="6.954" height="1.739"/>
	<rect y="255.56" style="fill:#242D3C;" width="6.954" height="1.739"/>
	<rect y="227.507" style="fill:#242D3C;" width="6.954" height="1.739"/>
	<rect y="199.566" style="fill:#242D3C;" width="6.954" height="1.739"/>
	<rect y="171.498" style="fill:#242D3C;" width="6.954" height="1.739"/>
	<rect y="143.544" style="fill:#242D3C;" width="6.954" height="1.739"/>
	<rect y="115.49" style="fill:#242D3C;" width="6.954" height="1.739"/>
	<rect y="87.548" style="fill:#242D3C;" width="6.954" height="1.739"/>
	<rect y="59.482" style="fill:#242D3C;" width="6.954" height="1.739"/>
	<rect y="31.54" style="fill:#242D3C;" width="6.954" height="1.739"/>
	<rect x="6.085" y="3.477" style="fill:#242D3C;" width="1.739" height="365.839"/>
</g>
<g>
</g>
<g>
</g>
<g>
</g>
<g>
</g>
<g>
</g>
<g>
</g>
<g>
</g>
<g>
</g>
<g>
</g>
<g>
</g>
<g>
</g>
<g>
</g>
<g>
</g>
<g>
</g>
<g>
</g>
</svg>
