<?xml version="1.0" encoding="iso-8859-1"?>
<!-- Generator: Adobe Illustrator 19.0.0, SVG Export Plug-In . SVG Version: 6.00 Build 0)  -->
<svg version="1.1" id="Layer_1" xmlns="http://www.w3.org/2000/svg" xmlns:xlink="http://www.w3.org/1999/xlink" x="0px" y="0px"
	 viewBox="0 0 512 512" style="enable-background:new 0 0 512 512;" xml:space="preserve">
<path style="fill:#E8E6D9;" d="M443.733,512H68.267c-14.139,0-25.6-11.461-25.6-25.6V25.6c0-14.139,11.461-25.6,25.6-25.6h375.467
	c14.139,0,25.6,11.461,25.6,25.6v460.8C469.333,500.539,457.872,512,443.733,512z"/>
<path style="fill:#DDDAC5;" d="M460.8,494.933h-384c-9.425,0-17.067-7.642-17.067-17.067V8.533c0-2.586,0.387-5.081,1.1-7.434
	C50.321,4.286,42.667,14.047,42.667,25.6v460.8c0,14.139,11.461,25.6,25.6,25.6h375.467c11.553,0,21.314-7.654,24.5-18.166
	C465.881,494.546,463.386,494.933,460.8,494.933z"/>
<path style="fill:#58AB23;" d="M281.6,392.533h59.733c4.713,0,8.533-3.821,8.533-8.533V128c0-4.713-3.821-8.533-8.533-8.533H281.6
	V392.533z"/>
<g>
	<path style="fill:#66BF00;" d="M170.667,119.467c-4.713,0-8.533,3.821-8.533,8.533v110.933l-25.6,93.867V384
		c0,4.713,3.821,8.533,8.533,8.533H281.6V332.8l25.6-93.867V119.467H170.667z"/>
	<path style="fill:#66BF00;" d="M307.2,238.933H162.133V128c0-4.713,3.821-8.533,8.533-8.533H307.2V238.933z"/>
</g>
<polygon style="fill:#B6E462;" points="281.6,332.8 136.533,332.8 162.133,238.933 307.2,238.933 "/>
<polygon style="fill:#94D24C;" points="162.133,332.8 136.533,332.8 162.133,238.933 187.733,238.933 "/>
<path style="fill:#66BF00;" d="M281.6,392.533H145.067c-4.713,0-8.533-3.821-8.533-8.533v-51.2H281.6V392.533z"/>
<g>
	<path style="fill:#58AB23;" d="M170.667,119.467c-4.713,0-8.533,3.821-8.533,8.533v110.933h25.6V119.467H170.667z"/>
	<path style="fill:#58AB23;" d="M136.533,332.8V384c0,4.713,3.821,8.533,8.533,8.533h17.067V332.8H136.533z"/>
</g>
<circle style="fill:#D1CDB2;" cx="110.933" cy="76.8" r="34.133"/>
<path style="fill:#AFA879;" d="M128.267,47.398L81.532,94.133c2.938,4.972,7.098,9.132,12.068,12.068l46.735-46.735
	C137.398,54.495,133.238,50.335,128.267,47.398z"/>
<circle style="fill:#D1CDB2;" cx="401.067" cy="76.8" r="34.133"/>
<path style="fill:#AFA879;" d="M418.4,47.398l-46.735,46.735c2.938,4.972,7.098,9.132,12.068,12.068l46.735-46.735
	C427.532,54.495,423.372,50.335,418.4,47.398z"/>
<circle style="fill:#D1CDB2;" cx="110.933" cy="443.733" r="34.133"/>
<path style="fill:#AFA879;" d="M128.267,414.332l-46.735,46.735c2.938,4.972,7.098,9.132,12.068,12.068l46.735-46.735
	C137.398,421.428,133.238,417.268,128.267,414.332z"/>
<circle style="fill:#D1CDB2;" cx="401.067" cy="443.733" r="34.133"/>
<path style="fill:#AFA879;" d="M418.4,414.332l-46.735,46.735c2.938,4.972,7.098,9.132,12.068,12.068l46.735-46.735
	C427.532,421.428,423.372,417.268,418.4,414.332z"/>
<g>
	<path style="fill:#DB883D;" d="M238.933,110.933H204.8c-4.713,0-8.533-3.821-8.533-8.533V51.2c0-4.713,3.821-8.533,8.533-8.533
		h34.133c4.713,0,8.533,3.821,8.533,8.533v51.2C247.467,107.113,243.646,110.933,238.933,110.933z M213.333,93.867H230.4V59.733
		h-17.067V93.867z"/>
	<path style="fill:#DB883D;" d="M307.202,110.933c-2.485,0-4.905-1.087-6.557-3.071L273.067,74.77v27.63
		c0,4.713-3.821,8.533-8.533,8.533c-4.713,0-8.533-3.821-8.533-8.533V51.2c0-3.593,2.25-6.801,5.628-8.023
		c3.383-1.222,7.163-0.198,9.46,2.561l27.579,33.092V51.2c0-4.713,3.821-8.533,8.533-8.533s8.533,3.821,8.533,8.533v51.2
		C315.733,107.046,311.855,110.933,307.202,110.933z"/>
	<path style="fill:#DB883D;" d="M213.333,477.867H179.2c-4.713,0-8.533-3.821-8.533-8.533v-51.2c0-4.713,3.821-8.533,8.533-8.533
		h34.133c4.713,0,8.533,3.821,8.533,8.533v51.2C221.867,474.046,218.046,477.867,213.333,477.867z M187.733,460.8H204.8v-34.133
		h-17.067V460.8z"/>
	<path style="fill:#DB883D;" d="M273.067,409.6h-34.133c-4.713,0-8.533,3.821-8.533,8.533v51.2c0,4.713,3.821,8.533,8.533,8.533
		c4.713,0,8.533-3.821,8.533-8.533v-17.067h17.067c4.713,0,8.533-3.821,8.533-8.533c0-4.713-3.821-8.533-8.533-8.533h-17.067v-8.533
		h25.6c4.713,0,8.533-3.821,8.533-8.533S277.779,409.6,273.067,409.6z"/>
	<path style="fill:#DB883D;" d="M332.8,409.6h-34.133c-4.713,0-8.533,3.821-8.533,8.533v51.2c0,4.713,3.821,8.533,8.533,8.533
		s8.533-3.821,8.533-8.533v-17.067h17.067c4.713,0,8.533-3.821,8.533-8.533c0-4.713-3.821-8.533-8.533-8.533H307.2v-8.533h25.6
		c4.713,0,8.533-3.821,8.533-8.533S337.513,409.6,332.8,409.6z"/>
</g>
<g>
</g>
<g>
</g>
<g>
</g>
<g>
</g>
<g>
</g>
<g>
</g>
<g>
</g>
<g>
</g>
<g>
</g>
<g>
</g>
<g>
</g>
<g>
</g>
<g>
</g>
<g>
</g>
<g>
</g>
</svg>
