<?xml version="1.0" encoding="iso-8859-1"?>
<!-- Generator: Adobe Illustrator 18.1.1, SVG Export Plug-In . SVG Version: 6.00 Build 0)  -->
<svg version="1.1" id="Capa_1" xmlns="http://www.w3.org/2000/svg" xmlns:xlink="http://www.w3.org/1999/xlink" x="0px" y="0px"
	 viewBox="0 0 18.501 18.501" style="enable-background:new 0 0 18.501 18.501;" xml:space="preserve">
<g>
	<path style="fill:#010002;" d="M13.762,10.862c-1.014,0-1.836,0.82-1.836,1.836c0,1.013,0.822,1.837,1.836,1.837
		c1.017,0,1.839-0.824,1.839-1.837C15.599,11.684,14.778,10.862,13.762,10.862z M13.762,13.866c-0.646,0-1.168-0.522-1.168-1.168
		s0.521-1.17,1.168-1.17c0.646,0,1.171,0.521,1.171,1.17C14.93,13.344,14.407,13.866,13.762,13.866z M5.04,10.862
		c-1.016,0-1.838,0.82-1.838,1.836c0,1.013,0.822,1.837,1.838,1.837c1.014,0,1.836-0.824,1.836-1.837
		C6.876,11.684,6.051,10.862,5.04,10.862z M5.04,13.866c-0.646,0-1.169-0.522-1.169-1.168s0.521-1.17,1.169-1.17
		c0.646,0,1.169,0.521,1.169,1.17C6.208,13.344,5.685,13.866,5.04,13.866z M18.251,10.803v-2.59l-0.006-0.006
		c-0.047-1.875-0.496-2.892-0.496-2.892c0-0.746-0.604-1.349-1.352-1.349H2.428c-0.745,0-1.35,0.603-1.35,1.349
		c0,0-0.452,1.016-0.497,2.892L0.576,8.212V8.6L0.203,8.878V8.91c-0.003,0-0.005-0.002-0.007-0.002C0.088,8.908,0,9.174,0,9.499
		s0.088,0.591,0.196,0.591c0.002,0,0.004-0.002,0.007-0.002v0.047l0.372,0.305v0.967c0,0.074,0.008,0.145,0.02,0.217
		c-0.186,0.01-0.333,0.182-0.333,0.393v0.479c0,0.221,0.16,0.396,0.356,0.396h1.78c0.105,0,0.201-0.055,0.267-0.137h0.278
		c0-1.166,0.941-2.111,2.105-2.119c1.165,0.008,2.107,0.953,2.107,2.119h4.514c0-1.166,0.939-2.111,2.105-2.119
		c1.164,0.008,2.105,0.953,2.105,2.119h1.018c0.314,0,0.605-0.107,0.836-0.291h0.42c0.189,0,0.348-0.154,0.348-0.347v-0.979
		C18.503,10.977,18.394,10.844,18.251,10.803z M4.971,7.853H1.107c0.094-1.615,0.479-2.484,0.479-2.484
		c0-0.088,0.009-0.176,0.024-0.258h3.358c0.133,0,0.237,0.111,0.237,0.249v2.242h0.001C5.21,7.738,5.103,7.853,4.971,7.853z
		 M10.137,7.653c0,0.138-0.106,0.251-0.235,0.251H6.025c-0.132,0-0.236-0.113-0.236-0.251v-2.24c0-0.138,0.105-0.251,0.236-0.251
		H9.9c0.131,0,0.235,0.113,0.235,0.251L10.137,7.653L10.137,7.653z M14.982,7.653c0,0.138-0.104,0.251-0.238,0.251h-3.875
		c-0.131,0-0.235-0.113-0.235-0.251v-2.24c0-0.138,0.104-0.251,0.235-0.251h3.875c0.134,0,0.238,0.113,0.238,0.251V7.653z
		 M15.01,10.075c0.007-0.067,0.058-0.12,0.119-0.12h2.138c0.062,0,0.112,0.053,0.118,0.12H15.01z M15.01,9.838
		c0.007-0.066,0.058-0.123,0.119-0.123h2.138c0.062,0,0.112,0.056,0.118,0.123H15.01z M15.01,9.602
		c0.007-0.068,0.058-0.122,0.119-0.122h2.138c0.062,0,0.112,0.054,0.118,0.122H15.01z M15.01,9.364
		c0.007-0.068,0.058-0.122,0.119-0.122h2.138c0.062,0,0.112,0.054,0.118,0.122H15.01z"/>
</g>
<g>
</g>
<g>
</g>
<g>
</g>
<g>
</g>
<g>
</g>
<g>
</g>
<g>
</g>
<g>
</g>
<g>
</g>
<g>
</g>
<g>
</g>
<g>
</g>
<g>
</g>
<g>
</g>
<g>
</g>
</svg>
