<?xml version="1.0" encoding="UTF-8"?>
<svg xmlns="http://www.w3.org/2000/svg" xmlns:xlink="http://www.w3.org/1999/xlink" width="16pt" height="16pt" viewBox="0 0 16 16" version="1.1">
<g id="surface1">
<path style=" stroke:none;fill-rule:nonzero;fill:rgb(100%,77.254902%,18.431373%);fill-opacity:1;" d="M 10.382812 4.070312 L 10.8125 4.765625 L 15.566406 12.40625 C 16.273438 13.542969 15.757812 14.464844 14.40625 14.464844 L 1.59375 14.464844 C 0.253906 14.464844 -0.273438 13.53125 0.433594 12.394531 L 6.699219 2.28125 C 7.40625 1.144531 8.554688 1.144531 9.261719 2.28125 Z M 10.382812 4.070312 "/>
<path style=" stroke:none;fill-rule:nonzero;fill:rgb(95.686275%,93.72549%,93.72549%);fill-opacity:1;" d="M 8 10.832031 C 7.660156 10.832031 7.371094 10.554688 7.371094 10.199219 L 7.371094 5.6875 C 7.371094 5.34375 7.660156 5.054688 8 5.054688 C 8.339844 5.054688 8.628906 5.332031 8.628906 5.6875 L 8.628906 10.199219 C 8.628906 10.542969 8.339844 10.832031 8 10.832031 Z M 8 10.832031 "/>
<path style=" stroke:none;fill-rule:nonzero;fill:rgb(95.686275%,93.72549%,93.72549%);fill-opacity:1;" d="M 7.988281 12.835938 C 7.824219 12.835938 7.660156 12.773438 7.546875 12.648438 C 7.433594 12.535156 7.355469 12.371094 7.355469 12.207031 C 7.355469 12.042969 7.417969 11.878906 7.546875 11.765625 C 7.660156 11.652344 7.824219 11.574219 7.988281 11.574219 C 8.152344 11.574219 8.316406 11.640625 8.429688 11.765625 C 8.542969 11.878906 8.617188 12.042969 8.617188 12.207031 C 8.617188 12.371094 8.554688 12.535156 8.429688 12.648438 C 8.316406 12.761719 8.152344 12.835938 7.988281 12.835938 Z M 7.988281 12.835938 "/>
<path style=" stroke:none;fill-rule:nonzero;fill:rgb(0%,0%,0%);fill-opacity:1;" d="M 14.40625 14.679688 L 1.59375 14.679688 C 0.898438 14.679688 0.382812 14.4375 0.140625 13.996094 C -0.0976562 13.554688 -0.0351562 12.964844 0.332031 12.382812 L 6.601562 2.242188 C 6.964844 1.648438 7.457031 1.320312 8 1.320312 C 8.53125 1.320312 9.023438 1.636719 9.375 2.21875 L 10.484375 3.996094 L 10.914062 4.6875 L 15.667969 12.371094 C 16.035156 12.949219 16.097656 13.542969 15.859375 13.984375 C 15.617188 14.4375 15.101562 14.679688 14.40625 14.679688 Z M 7.988281 1.574219 C 7.546875 1.574219 7.128906 1.851562 6.800781 2.367188 L 0.535156 12.507812 C 0.21875 13.011719 0.15625 13.503906 0.355469 13.871094 C 0.558594 14.238281 1 14.425781 1.59375 14.425781 L 14.40625 14.425781 C 15 14.425781 15.441406 14.222656 15.644531 13.871094 C 15.84375 13.519531 15.78125 13.011719 15.464844 12.507812 L 10.710938 4.828125 L 10.28125 4.132812 L 9.171875 2.355469 C 8.84375 1.851562 8.429688 1.574219 7.988281 1.574219 Z M 7.988281 1.574219 "/>
<path style=" stroke:none;fill-rule:nonzero;fill:rgb(0%,0%,0%);fill-opacity:1;" d="M 7.875 10.957031 C 7.457031 10.957031 7.117188 10.617188 7.117188 10.199219 L 7.117188 5.6875 C 7.117188 5.269531 7.457031 4.929688 7.875 4.929688 C 8.289062 4.929688 8.628906 5.269531 8.628906 5.6875 L 8.628906 10.199219 C 8.628906 10.617188 8.289062 10.957031 7.875 10.957031 Z M 7.875 5.179688 C 7.597656 5.179688 7.371094 5.40625 7.371094 5.6875 L 7.371094 10.199219 C 7.371094 10.476562 7.597656 10.707031 7.875 10.707031 C 8.152344 10.707031 8.378906 10.476562 8.378906 10.199219 L 8.378906 5.6875 C 8.378906 5.40625 8.152344 5.179688 7.875 5.179688 Z M 7.875 5.179688 "/>
<path style=" stroke:none;fill-rule:nonzero;fill:rgb(0%,0%,0%);fill-opacity:1;" d="M 7.875 12.964844 C 7.671875 12.964844 7.484375 12.886719 7.34375 12.75 C 7.207031 12.609375 7.128906 12.40625 7.128906 12.21875 C 7.128906 12.015625 7.207031 11.828125 7.34375 11.6875 C 7.484375 11.550781 7.683594 11.460938 7.875 11.460938 C 8.074219 11.460938 8.265625 11.539062 8.402344 11.6875 C 8.542969 11.828125 8.628906 12.015625 8.628906 12.21875 C 8.628906 12.421875 8.554688 12.609375 8.402344 12.75 C 8.265625 12.875 8.074219 12.964844 7.875 12.964844 Z M 7.875 11.703125 C 7.746094 11.703125 7.609375 11.753906 7.519531 11.851562 C 7.433594 11.941406 7.371094 12.082031 7.371094 12.207031 C 7.371094 12.34375 7.417969 12.472656 7.519531 12.558594 C 7.609375 12.648438 7.746094 12.710938 7.875 12.710938 C 8 12.710938 8.140625 12.660156 8.226562 12.558594 C 8.316406 12.472656 8.378906 12.332031 8.378906 12.207031 C 8.378906 12.082031 8.328125 11.941406 8.226562 11.851562 C 8.140625 11.753906 8 11.703125 7.875 11.703125 Z M 7.875 11.703125 "/>
</g>
</svg>
