<svg xmlns="http://www.w3.org/2000/svg" viewBox="0 0 198.53 155.71"><defs><style>.cls-1{isolation:isolate;}.cls-2{mix-blend-mode:multiply;}.cls-3{fill:#e6e7e8;}.cls-4{fill:#dddedf;}.cls-5{fill:#d4d5d6;}.cls-6{fill:#cbccce;}.cls-7{fill:#c3c4c5;}.cls-8{fill:#babbbc;}.cls-9{fill:#b1b2b3;}.cls-10{fill:#a8a9aa;}.cls-11{fill:#9fa0a2;}.cls-12{fill:#969799;}.cls-13{fill:#8d8e90;}.cls-14{fill:#848587;}.cls-15{fill:#7b7c7e;}.cls-16{fill:#737475;}.cls-17{fill:#6a6b6d;}.cls-18{fill:#616264;}.cls-19{fill:#58595b;}.cls-20{fill:#3cc676;}.cls-21{fill:#24966a;}.cls-22{fill:#929497;}.cls-23{fill:#343f57;}.cls-24{fill:#fff;}.cls-25{fill:none;stroke:#343f57;stroke-linecap:round;stroke-linejoin:round;stroke-width:2.86px;}.cls-26{fill:#404041;}</style></defs><g class="cls-1"><g id="Layer_1" data-name="Layer 1"><g class="cls-2"><path class="cls-3" d="M194.32,57.45H186.5V45.79a2.31,2.31,0,0,0-2.3-2.31h-5.13a2.32,2.32,0,0,0-2.31,2.31V57.45H166.51V45.79a2.31,2.31,0,0,0-2.31-2.31h-5.12a2.31,2.31,0,0,0-2.31,2.31V57.45H146.52V45.79a2.31,2.31,0,0,0-2.31-2.31h-5.12a2.31,2.31,0,0,0-2.31,2.31V57.45H126.53V45.79a2.32,2.32,0,0,0-2.31-2.31h-5.13a2.31,2.31,0,0,0-2.3,2.31V57.45H106.54V45.79a2.32,2.32,0,0,0-2.31-2.31H99.1a2.31,2.31,0,0,0-2.3,2.31V57.45H86.54V45.79a2.31,2.31,0,0,0-2.3-2.31H79.11a2.32,2.32,0,0,0-2.31,2.31V57.45H66.55V45.79a2.31,2.31,0,0,0-2.3-2.31H59.12a2.32,2.32,0,0,0-2.31,2.31V57.45h-5a4.68,4.68,0,0,0-4.68,4.68v32.3a43.52,43.52,0,1,0,38.26,76.16H194.32a4.67,4.67,0,0,0,4.68-4.68V62.13A4.68,4.68,0,0,0,194.32,57.45Z" transform="translate(-0.47 -24.29)"/><path class="cls-4" d="M193.42,56.27H185.6V44.61a2.3,2.3,0,0,0-2.3-2.31h-5.13a2.31,2.31,0,0,0-2.31,2.31V56.27H165.61V44.61a2.3,2.3,0,0,0-2.3-2.31h-5.13a2.31,2.31,0,0,0-2.31,2.31V56.27H145.62V44.61a2.3,2.3,0,0,0-2.31-2.31h-5.12a2.3,2.3,0,0,0-2.31,2.31V56.27H125.63V44.61a2.3,2.3,0,0,0-2.31-2.31H118.2a2.3,2.3,0,0,0-2.31,2.31V56.27H105.64V44.61a2.31,2.31,0,0,0-2.31-2.31H98.2a2.3,2.3,0,0,0-2.3,2.31V56.27H85.65V44.61a2.31,2.31,0,0,0-2.31-2.31H78.21a2.3,2.3,0,0,0-2.3,2.31V56.27H65.65V44.61a2.3,2.3,0,0,0-2.3-2.31H58.22a2.31,2.31,0,0,0-2.31,2.31V56.27H51A4.68,4.68,0,0,0,46.28,61V93.24a43.52,43.52,0,1,0,38.26,76.17H193.42a4.68,4.68,0,0,0,4.68-4.68V61A4.67,4.67,0,0,0,193.42,56.27Z" transform="translate(-0.47 -24.29)"/><path class="cls-5" d="M192.53,55.08h-7.82V43.42a2.32,2.32,0,0,0-2.31-2.31h-5.13a2.31,2.31,0,0,0-2.3,2.31V55.08H164.71V43.42a2.31,2.31,0,0,0-2.3-2.31h-5.13A2.32,2.32,0,0,0,155,43.42V55.08H144.72V43.42a2.31,2.31,0,0,0-2.3-2.31h-5.13A2.32,2.32,0,0,0,135,43.42V55.08H124.73V43.42a2.31,2.31,0,0,0-2.31-2.31H117.3A2.31,2.31,0,0,0,115,43.42V55.08H104.74V43.42a2.31,2.31,0,0,0-2.31-2.31H97.31A2.31,2.31,0,0,0,95,43.42V55.08H84.75V43.42a2.32,2.32,0,0,0-2.31-2.31H77.31A2.31,2.31,0,0,0,75,43.42V55.08H64.75V43.42a2.31,2.31,0,0,0-2.3-2.31H57.32A2.31,2.31,0,0,0,55,43.42V55.08h-5a4.69,4.69,0,0,0-4.68,4.68v32.3a43.52,43.52,0,1,0,38.26,76.16H192.53a4.67,4.67,0,0,0,4.67-4.68V59.76A4.68,4.68,0,0,0,192.53,55.08Z" transform="translate(-0.47 -24.29)"/><path class="cls-6" d="M191.63,53.9h-7.82V42.24a2.3,2.3,0,0,0-2.31-2.31h-5.12a2.3,2.3,0,0,0-2.31,2.31V53.9H163.82V42.24a2.31,2.31,0,0,0-2.31-2.31h-5.13a2.3,2.3,0,0,0-2.3,2.31V53.9H143.83V42.24a2.31,2.31,0,0,0-2.31-2.31h-5.13a2.31,2.31,0,0,0-2.31,2.31V53.9H123.83V42.24a2.3,2.3,0,0,0-2.3-2.31H116.4a2.31,2.31,0,0,0-2.31,2.31V53.9H103.84V42.24a2.3,2.3,0,0,0-2.31-2.31H96.41a2.3,2.3,0,0,0-2.31,2.31V53.9H83.85V42.24a2.3,2.3,0,0,0-2.31-2.31H76.42a2.3,2.3,0,0,0-2.31,2.31V53.9H63.86V42.24a2.3,2.3,0,0,0-2.31-2.31H56.42a2.3,2.3,0,0,0-2.3,2.31V53.9h-5a4.68,4.68,0,0,0-4.68,4.68V90.87A43.53,43.53,0,1,0,82.75,167H191.63a4.69,4.69,0,0,0,4.68-4.68V58.58A4.68,4.68,0,0,0,191.63,53.9Z" transform="translate(-0.47 -24.29)"/><path class="cls-7" d="M190.73,52.71h-7.82V41.05a2.31,2.31,0,0,0-2.31-2.31h-5.12a2.31,2.31,0,0,0-2.31,2.31V52.71H162.92V41.05a2.31,2.31,0,0,0-2.31-2.31h-5.12a2.31,2.31,0,0,0-2.31,2.31V52.71H142.93V41.05a2.32,2.32,0,0,0-2.31-2.31h-5.13a2.31,2.31,0,0,0-2.3,2.31V52.71H122.94V41.05a2.32,2.32,0,0,0-2.31-2.31H115.5a2.31,2.31,0,0,0-2.3,2.31V52.71H102.94V41.05a2.31,2.31,0,0,0-2.3-2.31H95.51a2.32,2.32,0,0,0-2.31,2.31V52.71H83V41.05a2.31,2.31,0,0,0-2.3-2.31H75.52a2.31,2.31,0,0,0-2.31,2.31V52.71H63V41.05a2.31,2.31,0,0,0-2.31-2.31H55.53a2.31,2.31,0,0,0-2.31,2.31V52.71h-5a4.68,4.68,0,0,0-4.67,4.68V89.68a43.53,43.53,0,1,0,38.26,76.17H190.73a4.68,4.68,0,0,0,4.68-4.68V57.39A4.69,4.69,0,0,0,190.73,52.71Z" transform="translate(-0.47 -24.29)"/><path class="cls-8" d="M189.83,51.53H182V39.87a2.3,2.3,0,0,0-2.3-2.31h-5.13a2.31,2.31,0,0,0-2.31,2.31V51.53H162V39.87a2.3,2.3,0,0,0-2.31-2.31h-5.12a2.3,2.3,0,0,0-2.31,2.31V51.53H142V39.87a2.3,2.3,0,0,0-2.31-2.31H134.6a2.3,2.3,0,0,0-2.31,2.31V51.53H122V39.87a2.31,2.31,0,0,0-2.31-2.31H114.6a2.3,2.3,0,0,0-2.3,2.31V51.53H102.05V39.87a2.31,2.31,0,0,0-2.31-2.31H94.61a2.3,2.3,0,0,0-2.3,2.31V51.53H82.05V39.87a2.3,2.3,0,0,0-2.3-2.31H74.62a2.31,2.31,0,0,0-2.31,2.31V51.53H62.06V39.87a2.3,2.3,0,0,0-2.3-2.31H54.63a2.31,2.31,0,0,0-2.31,2.31V51.53h-5a4.67,4.67,0,0,0-4.68,4.68V88.5A43.52,43.52,0,1,0,81,164.67H189.83a4.68,4.68,0,0,0,4.68-4.68V56.21A4.67,4.67,0,0,0,189.83,51.53Z" transform="translate(-0.47 -24.29)"/><path class="cls-9" d="M188.93,50.34h-7.82V38.68a2.31,2.31,0,0,0-2.3-2.31h-5.13a2.32,2.32,0,0,0-2.31,2.31V50.34H161.12V38.68a2.31,2.31,0,0,0-2.3-2.31h-5.13a2.32,2.32,0,0,0-2.31,2.31V50.34H141.13V38.68a2.31,2.31,0,0,0-2.31-2.31H133.7a2.31,2.31,0,0,0-2.31,2.31V50.34H121.14V38.68a2.31,2.31,0,0,0-2.31-2.31h-5.12a2.31,2.31,0,0,0-2.31,2.31V50.34H101.15V38.68a2.32,2.32,0,0,0-2.31-2.31H93.71a2.31,2.31,0,0,0-2.3,2.31V50.34H81.16V38.68a2.32,2.32,0,0,0-2.31-2.31H73.72a2.31,2.31,0,0,0-2.3,2.31V50.34H61.16V38.68a2.31,2.31,0,0,0-2.3-2.31H53.73a2.32,2.32,0,0,0-2.31,2.31V50.34h-5A4.69,4.69,0,0,0,41.79,55V87.31a43.53,43.53,0,1,0,38.26,76.17H188.93a4.67,4.67,0,0,0,4.68-4.68V55A4.68,4.68,0,0,0,188.93,50.34Z" transform="translate(-0.47 -24.29)"/><path class="cls-10" d="M188,49.16h-7.82V37.5a2.31,2.31,0,0,0-2.31-2.31h-5.13a2.3,2.3,0,0,0-2.3,2.31V49.16H160.22V37.5a2.3,2.3,0,0,0-2.3-2.31h-5.13a2.31,2.31,0,0,0-2.31,2.31V49.16H140.23V37.5a2.3,2.3,0,0,0-2.3-2.31H132.8a2.31,2.31,0,0,0-2.31,2.31V49.16H120.24V37.5a2.3,2.3,0,0,0-2.31-2.31h-5.12a2.3,2.3,0,0,0-2.31,2.31V49.16H100.25V37.5a2.3,2.3,0,0,0-2.31-2.31H92.82a2.3,2.3,0,0,0-2.31,2.31V49.16H80.26V37.5A2.31,2.31,0,0,0,78,35.19H72.82a2.3,2.3,0,0,0-2.3,2.31V49.16H60.26V37.5A2.3,2.3,0,0,0,58,35.19H52.83a2.3,2.3,0,0,0-2.3,2.31V49.16h-5a4.68,4.68,0,0,0-4.68,4.67v32.3A43.52,43.52,0,1,0,79.15,162.3H188a4.68,4.68,0,0,0,4.67-4.68V53.83A4.67,4.67,0,0,0,188,49.16Z" transform="translate(-0.47 -24.29)"/><path class="cls-11" d="M187.14,48h-7.82V36.31A2.3,2.3,0,0,0,177,34h-5.12a2.3,2.3,0,0,0-2.31,2.31V48H159.33V36.31A2.31,2.31,0,0,0,157,34h-5.13a2.3,2.3,0,0,0-2.3,2.31V48H139.34V36.31A2.31,2.31,0,0,0,137,34H131.9a2.31,2.31,0,0,0-2.31,2.31V48H119.34V36.31A2.3,2.3,0,0,0,117,34h-5.13a2.31,2.31,0,0,0-2.31,2.31V48H99.35V36.31A2.3,2.3,0,0,0,97,34H91.92a2.3,2.3,0,0,0-2.31,2.31V48H79.36V36.31A2.3,2.3,0,0,0,77.05,34H71.93a2.3,2.3,0,0,0-2.31,2.31V48H59.37V36.31A2.3,2.3,0,0,0,57.06,34H51.93a2.3,2.3,0,0,0-2.3,2.31V48h-5A4.69,4.69,0,0,0,40,52.65V84.94a43.53,43.53,0,1,0,38.27,76.17H187.14a4.68,4.68,0,0,0,4.68-4.68V52.65A4.69,4.69,0,0,0,187.14,48Z" transform="translate(-0.47 -24.29)"/><path class="cls-12" d="M186.24,46.78h-7.82V35.12a2.3,2.3,0,0,0-2.31-2.3H171a2.3,2.3,0,0,0-2.31,2.3V46.78H158.43V35.12a2.3,2.3,0,0,0-2.31-2.3H151a2.3,2.3,0,0,0-2.31,2.3V46.78H138.44V35.12a2.31,2.31,0,0,0-2.31-2.3H131a2.3,2.3,0,0,0-2.3,2.3V46.78H118.45V35.12a2.31,2.31,0,0,0-2.31-2.3H111a2.3,2.3,0,0,0-2.3,2.3V46.78H98.45V35.12a2.3,2.3,0,0,0-2.3-2.3H91a2.31,2.31,0,0,0-2.31,2.3V46.78H78.46V35.12a2.3,2.3,0,0,0-2.31-2.3H71a2.3,2.3,0,0,0-2.31,2.3V46.78H58.47V35.12a2.3,2.3,0,0,0-2.31-2.3H51a2.3,2.3,0,0,0-2.31,2.3V46.78h-5a4.68,4.68,0,0,0-4.67,4.68v32.3a43.52,43.52,0,1,0,38.26,76.17H186.24a4.69,4.69,0,0,0,4.68-4.68V51.46A4.69,4.69,0,0,0,186.24,46.78Z" transform="translate(-0.47 -24.29)"/><path class="cls-13" d="M185.34,45.6h-7.82V33.94a2.3,2.3,0,0,0-2.3-2.31h-5.13a2.31,2.31,0,0,0-2.31,2.31V45.6H157.53V33.94a2.3,2.3,0,0,0-2.31-2.31H150.1a2.3,2.3,0,0,0-2.31,2.31V45.6H137.54V33.94a2.3,2.3,0,0,0-2.31-2.31h-5.12a2.3,2.3,0,0,0-2.31,2.31V45.6H117.55V33.94a2.31,2.31,0,0,0-2.31-2.31h-5.13a2.3,2.3,0,0,0-2.3,2.31V45.6H97.56V33.94a2.31,2.31,0,0,0-2.31-2.31H90.12a2.3,2.3,0,0,0-2.3,2.31V45.6H77.56V33.94a2.3,2.3,0,0,0-2.3-2.31H70.13a2.31,2.31,0,0,0-2.31,2.31V45.6H57.57V33.94a2.3,2.3,0,0,0-2.3-2.31H50.14a2.31,2.31,0,0,0-2.31,2.31V45.6H42.88a4.68,4.68,0,0,0-4.68,4.68V82.57a43.53,43.53,0,1,0,38.26,76.17H185.34a4.67,4.67,0,0,0,4.68-4.68V50.28A4.68,4.68,0,0,0,185.34,45.6Z" transform="translate(-0.47 -24.29)"/><path class="cls-14" d="M184.44,44.41h-7.82V32.75a2.3,2.3,0,0,0-2.3-2.3h-5.13a2.31,2.31,0,0,0-2.31,2.3V44.41H156.63V32.75a2.3,2.3,0,0,0-2.3-2.3H149.2a2.31,2.31,0,0,0-2.31,2.3V44.41H136.64V32.75a2.3,2.3,0,0,0-2.31-2.3h-5.12a2.3,2.3,0,0,0-2.31,2.3V44.41H116.65V32.75a2.3,2.3,0,0,0-2.31-2.3h-5.12a2.3,2.3,0,0,0-2.31,2.3V44.41H96.66V32.75a2.31,2.31,0,0,0-2.31-2.3H89.22a2.3,2.3,0,0,0-2.3,2.3V44.41H76.67V32.75a2.31,2.31,0,0,0-2.31-2.3H69.23a2.3,2.3,0,0,0-2.3,2.3V44.41H56.67V32.75a2.3,2.3,0,0,0-2.3-2.3H49.24a2.31,2.31,0,0,0-2.31,2.3V44.41H42a4.69,4.69,0,0,0-4.68,4.68v32.3a43.52,43.52,0,1,0,38.26,76.17H184.44a4.68,4.68,0,0,0,4.68-4.68V49.09A4.68,4.68,0,0,0,184.44,44.41Z" transform="translate(-0.47 -24.29)"/><path class="cls-15" d="M183.55,43.23h-7.82V31.57a2.31,2.31,0,0,0-2.31-2.31h-5.13a2.3,2.3,0,0,0-2.3,2.31V43.23H155.73V31.57a2.3,2.3,0,0,0-2.3-2.31H148.3A2.31,2.31,0,0,0,146,31.57V43.23H135.74V31.57a2.3,2.3,0,0,0-2.3-2.31h-5.13A2.31,2.31,0,0,0,126,31.57V43.23H115.75V31.57a2.3,2.3,0,0,0-2.31-2.31h-5.12A2.3,2.3,0,0,0,106,31.57V43.23H95.76V31.57a2.3,2.3,0,0,0-2.31-2.31H88.33A2.3,2.3,0,0,0,86,31.57V43.23H75.77V31.57a2.31,2.31,0,0,0-2.31-2.31H68.33A2.3,2.3,0,0,0,66,31.57V43.23H55.77V31.57a2.3,2.3,0,0,0-2.3-2.31H48.34A2.3,2.3,0,0,0,46,31.57V43.23h-5a4.68,4.68,0,0,0-4.68,4.68V80.2a43.53,43.53,0,1,0,38.26,76.17H183.55a4.68,4.68,0,0,0,4.67-4.68V47.91A4.67,4.67,0,0,0,183.55,43.23Z" transform="translate(-0.47 -24.29)"/><path class="cls-16" d="M182.65,42h-7.82V30.38a2.3,2.3,0,0,0-2.31-2.3H167.4a2.3,2.3,0,0,0-2.31,2.3V42H154.84V30.38a2.31,2.31,0,0,0-2.31-2.3H147.4a2.3,2.3,0,0,0-2.3,2.3V42H134.85V30.38a2.31,2.31,0,0,0-2.31-2.3h-5.13a2.31,2.31,0,0,0-2.31,2.3V42H114.85V30.38a2.3,2.3,0,0,0-2.31-2.3h-5.12a2.31,2.31,0,0,0-2.31,2.3V42H94.86V30.38a2.3,2.3,0,0,0-2.31-2.3H87.43a2.3,2.3,0,0,0-2.31,2.3V42H74.87V30.38a2.3,2.3,0,0,0-2.31-2.3H67.44a2.3,2.3,0,0,0-2.31,2.3V42H54.88V30.38a2.3,2.3,0,0,0-2.31-2.3H47.44a2.3,2.3,0,0,0-2.3,2.3V42h-5a4.69,4.69,0,0,0-4.68,4.68V79a43.53,43.53,0,1,0,38.27,76.17H182.65a4.69,4.69,0,0,0,4.68-4.68V46.72A4.69,4.69,0,0,0,182.65,42Z" transform="translate(-0.47 -24.29)"/><path class="cls-17" d="M181.75,40.86h-7.82V29.2a2.3,2.3,0,0,0-2.31-2.31H166.5a2.3,2.3,0,0,0-2.31,2.31V40.86H153.94V29.2a2.3,2.3,0,0,0-2.31-2.31h-5.12a2.3,2.3,0,0,0-2.31,2.31V40.86H134V29.2a2.31,2.31,0,0,0-2.31-2.31h-5.13a2.3,2.3,0,0,0-2.3,2.31V40.86H114V29.2a2.31,2.31,0,0,0-2.31-2.31h-5.13a2.3,2.3,0,0,0-2.3,2.31V40.86H94V29.2a2.3,2.3,0,0,0-2.3-2.31H86.53a2.31,2.31,0,0,0-2.31,2.31V40.86H74V29.2a2.3,2.3,0,0,0-2.31-2.31H66.54a2.3,2.3,0,0,0-2.31,2.31V40.86H54V29.2a2.3,2.3,0,0,0-2.31-2.31H46.55a2.3,2.3,0,0,0-2.31,2.31V40.86h-5a4.67,4.67,0,0,0-4.67,4.68V77.83A43.53,43.53,0,1,0,72.87,154H181.75a4.69,4.69,0,0,0,4.68-4.68V45.54A4.68,4.68,0,0,0,181.75,40.86Z" transform="translate(-0.47 -24.29)"/><path class="cls-18" d="M180.85,39.67H173V28a2.3,2.3,0,0,0-2.3-2.3H165.6a2.31,2.31,0,0,0-2.31,2.3V39.67H153V28a2.3,2.3,0,0,0-2.31-2.3h-5.12A2.3,2.3,0,0,0,143.3,28V39.67H133.05V28a2.3,2.3,0,0,0-2.31-2.3h-5.12a2.3,2.3,0,0,0-2.31,2.3V39.67H113.06V28a2.31,2.31,0,0,0-2.31-2.3h-5.13a2.3,2.3,0,0,0-2.3,2.3V39.67H93.07V28a2.31,2.31,0,0,0-2.31-2.3H85.63a2.3,2.3,0,0,0-2.3,2.3V39.67H73.07V28a2.3,2.3,0,0,0-2.3-2.3H65.64A2.31,2.31,0,0,0,63.33,28V39.67H53.08V28a2.3,2.3,0,0,0-2.31-2.3H45.65A2.31,2.31,0,0,0,43.34,28V39.67h-5a4.68,4.68,0,0,0-4.68,4.68v32.3A43.52,43.52,0,1,0,72,152.81H180.85a4.67,4.67,0,0,0,4.68-4.68V44.35A4.68,4.68,0,0,0,180.85,39.67Z" transform="translate(-0.47 -24.29)"/><path class="cls-19" d="M180,38.49h-7.82V26.83a2.3,2.3,0,0,0-2.3-2.31H164.7a2.31,2.31,0,0,0-2.31,2.31V38.49H152.14V26.83a2.3,2.3,0,0,0-2.3-2.31h-5.13a2.31,2.31,0,0,0-2.31,2.31V38.49H132.15V26.83a2.3,2.3,0,0,0-2.31-2.31h-5.12a2.3,2.3,0,0,0-2.31,2.31V38.49H112.16V26.83a2.3,2.3,0,0,0-2.31-2.31h-5.12a2.3,2.3,0,0,0-2.31,2.31V38.49H92.17V26.83a2.31,2.31,0,0,0-2.31-2.31H84.73a2.3,2.3,0,0,0-2.3,2.31V38.49H72.18V26.83a2.31,2.31,0,0,0-2.31-2.31H64.74a2.3,2.3,0,0,0-2.3,2.31V38.49H52.18V26.83a2.3,2.3,0,0,0-2.3-2.31H44.75a2.31,2.31,0,0,0-2.31,2.31V38.49H37.49a4.68,4.68,0,0,0-4.68,4.68V75.46a43.53,43.53,0,1,0,38.26,76.17H180a4.68,4.68,0,0,0,4.68-4.68V43.17A4.67,4.67,0,0,0,180,38.49Z" transform="translate(-0.47 -24.29)"/></g><rect class="cls-20" x="34.85" y="29.93" width="21.02" height="9.74" rx="2.31" transform="translate(9.99 55.8) rotate(-89.88)"/><rect class="cls-20" x="54.84" y="29.97" width="21.02" height="9.74" rx="2.31" transform="translate(29.9 75.84) rotate(-89.88)"/><rect class="cls-20" x="74.84" y="30.02" width="21.02" height="9.74" rx="2.31" transform="translate(49.81 95.87) rotate(-89.88)"/><rect class="cls-20" x="94.83" y="30.06" width="21.02" height="9.74" rx="2.31" transform="translate(69.72 115.9) rotate(-89.88)"/><rect class="cls-20" x="114.82" y="30.1" width="21.02" height="9.74" rx="2.31" transform="translate(89.63 135.93) rotate(-89.88)"/><rect class="cls-20" x="134.81" y="30.14" width="21.02" height="9.74" rx="2.31" transform="translate(109.54 155.97) rotate(-89.88)"/><rect class="cls-20" x="154.8" y="30.18" width="21.02" height="9.74" rx="2.31" transform="translate(129.45 176) rotate(-89.88)"/><rect class="cls-3" x="50.08" y="19.05" width="113.14" height="151.82" rx="4.68" transform="translate(10.99 177.12) rotate(-89.88)"/><path class="cls-21" d="M182.61,68.62l0-25.4A4.68,4.68,0,0,0,178,38.53L35.53,38.24a4.69,4.69,0,0,0-4.69,4.67L30.79,68.3Z" transform="translate(-0.47 -24.29)"/><rect class="cls-22" x="48.4" y="75.88" width="12.69" height="18.45" rx="2.31" transform="translate(-30.96 115.39) rotate(-89.88)"/><rect class="cls-22" x="73.77" y="75.94" width="12.69" height="18.45" rx="2.31" transform="translate(-5.69 140.81) rotate(-89.88)"/><rect class="cls-22" x="99.15" y="75.99" width="12.69" height="18.45" rx="2.31" transform="translate(19.58 166.24) rotate(-89.88)"/><rect class="cls-22" x="124.52" y="76.04" width="12.69" height="18.45" rx="2.31" transform="translate(44.85 191.66) rotate(-89.88)"/><rect class="cls-22" x="149.89" y="76.09" width="12.69" height="18.45" rx="2.31" transform="translate(70.12 217.09) rotate(-89.88)"/><rect class="cls-22" x="48.35" y="97.84" width="12.69" height="18.45" rx="2.31" transform="translate(-52.96 137.26) rotate(-89.88)"/><rect class="cls-22" x="73.73" y="97.9" width="12.69" height="18.45" rx="2.31" transform="translate(-27.69 162.68) rotate(-89.88)"/><rect class="cls-22" x="99.1" y="97.95" width="12.69" height="18.45" rx="2.31" transform="translate(-2.42 188.11) rotate(-89.88)"/><rect class="cls-22" x="124.47" y="98" width="12.69" height="18.45" rx="2.31" transform="translate(22.85 213.53) rotate(-89.88)"/><rect class="cls-22" x="149.85" y="98.05" width="12.69" height="18.45" rx="2.31" transform="translate(48.12 238.96) rotate(-89.88)"/><rect class="cls-22" x="48.31" y="119.8" width="12.69" height="18.45" rx="2.31" transform="translate(-74.96 159.12) rotate(-89.88)"/><rect class="cls-22" x="73.68" y="119.85" width="12.69" height="18.45" rx="2.31" transform="translate(-49.69 184.55) rotate(-89.88)"/><rect class="cls-22" x="99.05" y="119.9" width="12.69" height="18.45" rx="2.31" transform="translate(-24.42 209.97) rotate(-89.88)"/><rect class="cls-22" x="124.43" y="119.96" width="12.69" height="18.45" rx="2.31" transform="translate(0.85 235.4) rotate(-89.88)"/><rect class="cls-22" x="149.8" y="120.01" width="12.69" height="18.45" rx="2.31" transform="translate(26.12 260.83) rotate(-89.88)"/><path class="cls-23" d="M87.53,117.64a43.53,43.53,0,1,1-43.3-43.76A43.53,43.53,0,0,1,87.53,117.64Z" transform="translate(-0.47 -24.29)"/><path class="cls-24" d="M79.65,117.6A35.65,35.65,0,1,1,44.19,81.75,35.64,35.64,0,0,1,79.65,117.6Z" transform="translate(-0.47 -24.29)"/><line class="cls-25" x1="43.33" y1="60.44" x2="43.29" y2="66.98"/><line class="cls-25" x1="43.01" y1="119.91" x2="42.97" y2="126.45"/><line class="cls-25" x1="10.14" y1="93.27" x2="16.68" y2="93.3"/><line class="cls-25" x1="69.61" y1="93.59" x2="76.16" y2="93.62"/><line class="cls-25" x1="19.87" y1="70.05" x2="24.48" y2="74.68"/><line class="cls-25" x1="61.82" y1="112.21" x2="66.43" y2="116.85"/><line class="cls-25" x1="20.4" y1="117.36" x2="24.91" y2="112.62"/><line class="cls-25" x1="61.39" y1="74.27" x2="65.9" y2="69.53"/><polygon class="cls-26" points="44.7 92.6 43.72 76.94 42.69 92.59 44.7 92.6"/><polygon class="cls-26" points="43.69 92.09 18.83 93.01 43.68 94.1 43.69 92.09"/><rect class="cls-23" x="38.51" y="92.83" width="0.47" height="30.93" transform="translate(-49.39 9.54) rotate(-29.97)"/><path class="cls-26" d="M46.25,117.39a2.09,2.09,0,1,1-2.08-2.1A2.08,2.08,0,0,1,46.25,117.39Z" transform="translate(-0.47 -24.29)"/></g></g></svg>