<svg id="Layer_1" data-name="Layer 1" xmlns="http://www.w3.org/2000/svg" viewBox="0 0 167.4 192.18"><defs><style>.cls-1{fill:#b0b8ce;}.cls-2{fill:#798ab2;}.cls-3{fill:#fff5f0;}.cls-4{fill:#2a3a4d;}.cls-5{fill:#24323f;}.cls-6{fill:#415366;}.cls-7{fill:#fff;}.cls-8{fill:#208fce;}.cls-9{fill:#1b7ec1;}.cls-10{fill:#246fa0;}.cls-11{fill:#f9eee5;}.cls-12{fill:#cac4bf;opacity:0.21;}.cls-13{fill:#f05b63;}.cls-14{fill:#ed3435;}</style></defs><polygon class="cls-1" points="73.31 26.36 79.16 22.35 94.41 22.51 98.79 26.89 73.31 26.36"/><polygon class="cls-2" points="79.16 22.35 77.3 3.4 97.4 3.95 94.41 22.51 79.16 22.35"/><polygon class="cls-3" points="83.95 5.71 82.71 20.41 80.57 20.41 79.03 5.39 83.95 5.71"/><polygon class="cls-1" points="76.04 3.77 99.21 4.19 99.73 0.42 75.09 0 76.04 3.77"/><path class="cls-4" d="M185.63,115a83.7,83.7,0,1,1-83.7-83.71A83.25,83.25,0,0,1,185.63,115Z" transform="translate(-18.23 -6.47)"/><path class="cls-5" d="M185.63,115a83.7,83.7,0,1,1-167.4,0c0-1.77.06-3.54.16-5.28a83.71,83.71,0,0,0,153.89,40.12,83.16,83.16,0,0,0,13.19-40.12C185.57,111.41,185.63,113.18,185.63,115Z" transform="translate(-18.23 -6.47)"/><path class="cls-6" d="M172.72,111.49a71.81,71.81,0,0,1-.7,10,70.85,70.85,0,1,1,.7-10Z" transform="translate(-18.23 -6.47)"/><path class="cls-7" d="M169.26,115a67.33,67.33,0,1,1-67.33-67.34A67.7,67.7,0,0,1,169.26,115Z" transform="translate(-18.23 -6.47)"/><path class="cls-6" d="M172.28,160.31a83.71,83.71,0,0,1-140.7,0,93,93,0,0,0,140.7,0Z" transform="translate(-18.23 -6.47)"/><path class="cls-8" d="M166.42,115a64.49,64.49,0,1,1-64.49-64.49A64.69,64.69,0,0,1,166.42,115Z" transform="translate(-18.23 -6.47)"/><path class="cls-9" d="M164.2,131.81a64.52,64.52,0,0,1-122.67,5.81,121.06,121.06,0,0,1,122.67-5.81Z" transform="translate(-18.23 -6.47)"/><path class="cls-2" d="M40.07,64.85S67.72,38.2,103,38.2c37.27,0,55.6,26,55.6,26s-18.75-30.87-55.39-30C60.06,35.29,40.07,64.85,40.07,64.85Z" transform="translate(-18.23 -6.47)"/><polygon class="cls-4" points="81.25 60.7 83.76 60.37 82.99 54.26 86.92 60.26 89.65 60.59 90.19 49.46 86.38 50 87.47 56.88 82.12 49.35 80.38 50.11 81.25 60.7"/><path class="cls-4" d="M107.78,162.49,106.65,166s-4.55-2.4-4.8-.38,5.86,2.5,5.8,6.81c-.05,3.85-3.61,5.25-8.16,4,.12-1.14.52-3.26.52-3.26s3.47,2.17,4.1-.61-6.55-3.65-5.79-7.31S104.12,160.85,107.78,162.49Z" transform="translate(-18.23 -6.47)"/><polygon class="cls-4" points="20.9 104.85 24.2 116.65 28.45 116.38 29.55 110.34 31.61 115.42 35.72 115.42 36.95 103.76 33.25 104.03 32.98 111.58 29.96 105.68 26.8 106.78 26.39 111.99 24.47 103.07 20.9 104.85"/><polygon class="cls-4" points="140.49 101.67 140.49 104.85 134.01 104.48 134.13 107.9 140.12 107.78 139.88 110.72 134.5 110.23 134.13 114.14 139.63 113.65 139.39 117.44 131.2 116.46 131.44 102.16 140.49 101.67"/><polygon class="cls-10" points="85.07 65.08 102.02 109.89 85.07 151.76 85.07 65.08"/><polygon class="cls-11" points="95.29 108.42 89.14 134.48 85.07 151.76 81.02 134.56 74.86 108.42 85.07 65.08 93.69 101.67 95.29 108.42"/><polygon class="cls-12" points="95.29 108.42 89.14 134.48 85.07 151.76 85.3 130.5 85.58 103.57 93.69 101.67 95.29 108.42"/><polygon class="cls-13" points="95.29 108.42 85.58 103.57 85.32 83.78 85.07 65.08 88.69 80.42 95.29 108.42"/><polygon class="cls-14" points="85.58 103.57 74.86 108.42 81.27 81.21 85.07 65.08 85.32 83.78 85.32 84.07 85.32 84.07 85.58 103.57"/></svg>