<?xml version="1.0" encoding="UTF-8"?>
<svg xmlns="http://www.w3.org/2000/svg" xmlns:xlink="http://www.w3.org/1999/xlink" width="16pt" height="16pt" viewBox="0 0 16 16" version="1.1">
<defs>
<filter id="alpha" filterUnits="objectBoundingBox" x="0%" y="0%" width="100%" height="100%">
  <feColorMatrix type="matrix" in="SourceGraphic" values="0 0 0 0 1 0 0 0 0 1 0 0 0 0 1 0 0 0 1 0"/>
</filter>
<mask id="mask0">
  <g filter="url(#alpha)">
<rect x="0" y="0" width="16" height="16" style="fill:rgb(0%,0%,0%);fill-opacity:0.2;stroke:none;"/>
  </g>
</mask>
<clipPath id="clip1">
  <rect width="16" height="16"/>
</clipPath>
<g id="surface6" clip-path="url(#clip1)">
<path style=" stroke:none;fill-rule:nonzero;fill:rgb(100%,100%,100%);fill-opacity:1;" d="M 8.050781 11.003906 C 5.851562 12.753906 3.402344 13.652344 1.105469 13.703125 C -0.59375 10.804688 -0.246094 3.757812 1.753906 1.710938 C 3.554688 -0.136719 9.199219 -0.488281 12.445312 0.660156 C 13.246094 3.957031 11.597656 8.15625 8.050781 11.003906 Z M 8.050781 11.003906 "/>
</g>
</defs>
<g id="surface1">
<path style=" stroke:none;fill-rule:nonzero;fill:rgb(55.294118%,77.647059%,25.098039%);fill-opacity:1;" d="M 14.246094 14.5 C 11.796875 16.5 4.152344 16.5 1.753906 14.5 C -0.695312 12.503906 -0.445312 3.957031 1.753906 1.710938 C 3.953125 -0.539062 12.046875 -0.539062 14.246094 1.710938 C 16.445312 3.957031 16.695312 12.503906 14.246094 14.5 Z M 14.246094 14.5 "/>
<use xlink:href="#surface6" mask="url(#mask0)"/>
<path style=" stroke:none;fill-rule:nonzero;fill:rgb(100%,100%,100%);fill-opacity:1;" d="M 12.746094 8.003906 C 12.746094 8.503906 12.347656 8.90625 11.847656 8.90625 L 8.847656 8.90625 L 8.847656 11.902344 C 8.847656 12.402344 8.449219 12.800781 7.949219 12.800781 C 7.449219 12.800781 7.050781 12.402344 7.050781 11.902344 L 7.050781 8.90625 L 4.054688 8.90625 C 3.554688 8.90625 3.152344 8.503906 3.152344 8.003906 C 3.152344 7.507812 3.554688 7.105469 4.054688 7.105469 L 7.050781 7.105469 L 7.050781 4.109375 C 7.050781 3.609375 7.449219 3.210938 7.949219 3.210938 C 8.449219 3.210938 8.847656 3.609375 8.847656 4.109375 L 8.847656 7.105469 L 11.847656 7.105469 C 12.347656 7.105469 12.746094 7.507812 12.746094 8.003906 Z M 12.746094 8.003906 "/>
</g>
</svg>
