<?xml version="1.0" encoding="UTF-8"?>
<svg xmlns="http://www.w3.org/2000/svg" xmlns:xlink="http://www.w3.org/1999/xlink" width="16pt" height="16pt" viewBox="0 0 16 16" version="1.1">
<g id="surface1">
<path style=" stroke:none;fill-rule:nonzero;fill:rgb(88.627451%,10.588235%,10.588235%);fill-opacity:1;" d="M 16 8 C 16 12.417969 12.417969 16 8 16 C 3.582031 16 0 12.417969 0 8 C 0 3.582031 3.582031 0 8 0 C 12.417969 0 16 3.582031 16 8 Z M 16 8 "/>
<path style=" stroke:none;fill-rule:nonzero;fill:rgb(76.862745%,2.352941%,2.352941%);fill-opacity:1;" d="M 15.945312 8.914062 L 11.496094 4.464844 L 4.695312 11.519531 L 9.097656 15.921875 C 12.699219 15.429688 15.53125 12.539062 15.945312 8.914062 Z M 15.945312 8.914062 "/>
<path style=" stroke:none;fill-rule:nonzero;fill:rgb(100%,100%,100%);fill-opacity:1;" d="M 11.074219 11.609375 C 10.914062 11.609375 10.753906 11.550781 10.632812 11.425781 L 4.574219 5.371094 C 4.332031 5.125 4.332031 4.730469 4.574219 4.488281 C 4.820312 4.242188 5.214844 4.242188 5.460938 4.488281 L 11.515625 10.542969 C 11.761719 10.789062 11.761719 11.183594 11.515625 11.425781 C 11.394531 11.550781 11.234375 11.609375 11.074219 11.609375 Z M 11.074219 11.609375 "/>
<path style=" stroke:none;fill-rule:nonzero;fill:rgb(100%,100%,100%);fill-opacity:1;" d="M 5.015625 11.609375 C 4.855469 11.609375 4.695312 11.550781 4.574219 11.425781 C 4.332031 11.183594 4.332031 10.789062 4.574219 10.542969 L 10.632812 4.488281 C 10.875 4.242188 11.273438 4.242188 11.515625 4.488281 C 11.761719 4.730469 11.761719 5.125 11.515625 5.371094 L 5.460938 11.425781 C 5.335938 11.550781 5.175781 11.609375 5.015625 11.609375 Z M 5.015625 11.609375 "/>
</g>
</svg>
