<?xml version="1.0" encoding="UTF-8"?>
<svg xmlns="http://www.w3.org/2000/svg" xmlns:xlink="http://www.w3.org/1999/xlink" width="16pt" height="16pt" viewBox="0 0 16 16" version="1.1">
<defs>
<linearGradient id="linear0" gradientUnits="userSpaceOnUse" x1="127.7207" y1="296.4046" x2="709.5007" y2="-285.3754" gradientTransform="matrix(0.0313719,0,0,-0.0313719,0.006,16.142441)">
<stop offset="0" style="stop-color:rgb(100%,72.54902%,17.647059%);stop-opacity:1;"/>
<stop offset="1" style="stop-color:rgb(96.078431%,58.431373%,0%);stop-opacity:1;"/>
</linearGradient>
<linearGradient id="linear1" gradientUnits="userSpaceOnUse" x1="204.9519" y1="219.1757" x2="380.3219" y2="43.8157" gradientTransform="matrix(0.0313719,0,0,-0.0313719,0.006,16.142441)">
<stop offset="0" style="stop-color:rgb(100%,72.54902%,17.647059%);stop-opacity:1;"/>
<stop offset="1" style="stop-color:rgb(96.078431%,58.431373%,0%);stop-opacity:1;"/>
</linearGradient>
<linearGradient id="linear2" gradientUnits="userSpaceOnUse" x1="19.8552" y1="259.5409" x2="489.7619" y2="259.5409" gradientTransform="matrix(0.0313719,0,0,-0.0313719,0.006,16.142441)">
<stop offset="0" style="stop-color:rgb(100%,95.686275%,39.607843%);stop-opacity:1;"/>
<stop offset="1" style="stop-color:rgb(100%,90.196078%,0%);stop-opacity:1;"/>
</linearGradient>
<linearGradient id="linear3" gradientUnits="userSpaceOnUse" x1="421.3265" y1="104.4504" x2="137.2365" y2="388.5403" gradientTransform="matrix(0.0313719,0,0,-0.0313719,0.006,16.142441)">
<stop offset="0" style="stop-color:rgb(74.509804%,24.705882%,27.058824%);stop-opacity:0;"/>
<stop offset="1" style="stop-color:rgb(74.509804%,24.705882%,27.058824%);stop-opacity:1;"/>
</linearGradient>
<linearGradient id="linear4" gradientUnits="userSpaceOnUse" x1="329.3392" y1="33.2931" x2="236.6692" y2="125.9731" gradientTransform="matrix(0.0313719,0,0,-0.0313719,0.006,16.142441)">
<stop offset="0" style="stop-color:rgb(74.509804%,24.705882%,27.058824%);stop-opacity:0;"/>
<stop offset="1" style="stop-color:rgb(74.509804%,24.705882%,27.058824%);stop-opacity:1;"/>
</linearGradient>
</defs>
<g id="surface1">
<path style=" stroke:none;fill-rule:nonzero;fill:url(#linear0);" d="M 13.664062 15.996094 L 2.335938 15.996094 C 0.601562 15.996094 -0.527344 14.171875 0.25 12.621094 L 5.914062 1.292969 C 6.773438 -0.425781 9.226562 -0.425781 10.085938 1.292969 L 15.75 12.621094 C 16.527344 14.171875 15.398438 15.996094 13.664062 15.996094 Z M 13.664062 15.996094 "/>
<path style=" stroke:none;fill-rule:nonzero;fill:url(#linear1);" d="M 13.664062 15.996094 L 2.335938 15.996094 C 0.601562 15.996094 -0.527344 14.171875 0.25 12.621094 L 5.914062 1.292969 C 6.773438 -0.425781 9.226562 -0.425781 10.085938 1.292969 L 15.75 12.621094 C 16.527344 14.171875 15.398438 15.996094 13.664062 15.996094 Z M 13.664062 15.996094 "/>
<path style=" stroke:none;fill-rule:nonzero;fill:url(#linear2);" d="M 15.191406 12.902344 L 9.523438 1.574219 C 9.230469 0.984375 8.660156 0.628906 8 0.628906 C 7.339844 0.628906 6.769531 0.984375 6.476562 1.574219 L 0.808594 12.902344 C 0.542969 13.433594 0.570312 14.054688 0.886719 14.5625 C 1.199219 15.066406 1.738281 15.371094 2.335938 15.371094 L 13.664062 15.371094 C 14.261719 15.371094 14.800781 15.066406 15.113281 14.5625 C 15.425781 14.054688 15.457031 13.433594 15.191406 12.902344 Z M 14.582031 14.230469 C 14.382812 14.550781 14.042969 14.742188 13.664062 14.742188 L 2.335938 14.742188 C 1.957031 14.742188 1.617188 14.550781 1.417969 14.230469 C 1.222656 13.910156 1.203125 13.519531 1.371094 13.183594 L 7.035156 1.851562 C 7.226562 1.476562 7.578125 1.257812 8 1.257812 C 8.421875 1.257812 8.773438 1.476562 8.964844 1.851562 L 14.628906 13.183594 C 14.796875 13.519531 14.777344 13.910156 14.582031 14.230469 Z M 14.582031 14.230469 "/>
<path style=" stroke:none;fill-rule:nonzero;fill:url(#linear3);" d="M 13.664062 15.996094 L 12.773438 15.996094 L 7.617188 10.839844 C 7.464844 10.765625 7.386719 10.636719 7.386719 10.453125 C 7.386719 9.757812 7.359375 9.257812 7.300781 7.683594 C 7.242188 6.109375 7.214844 5.785156 7.214844 5.089844 C 7.214844 4.867188 7.289062 4.699219 7.441406 4.578125 C 7.59375 4.457031 7.789062 4.394531 8.027344 4.394531 C 8.269531 4.394531 8.445312 4.457031 8.558594 4.582031 C 8.578125 4.609375 13.28125 9.308594 14.90625 10.929688 L 15.75 12.621094 C 16.527344 14.171875 15.398438 15.996094 13.664062 15.996094 Z M 13.664062 15.996094 "/>
<path style=" stroke:none;fill-rule:nonzero;fill:url(#linear4);" d="M 12.40625 15.996094 L 10.070312 15.996094 L 7.398438 13.320312 C 7.21875 13.164062 7.128906 12.980469 7.128906 12.773438 C 7.128906 12.554688 7.21875 12.371094 7.398438 12.214844 C 7.574219 12.0625 7.789062 11.988281 8.042969 11.988281 C 8.269531 11.988281 8.460938 12.0625 8.625 12.214844 Z M 12.40625 15.996094 "/>
<path style=" stroke:none;fill-rule:nonzero;fill:rgb(100%,100%,100%);fill-opacity:1;" d="M 7.128906 12.773438 C 7.128906 12.554688 7.21875 12.371094 7.398438 12.21875 C 7.574219 12.0625 7.789062 11.988281 8.042969 11.988281 C 8.269531 11.988281 8.460938 12.0625 8.625 12.21875 C 8.789062 12.371094 8.871094 12.554688 8.871094 12.773438 C 8.871094 12.980469 8.789062 13.164062 8.625 13.320312 C 8.460938 13.480469 8.269531 13.558594 8.042969 13.558594 C 7.789062 13.558594 7.574219 13.480469 7.398438 13.320312 C 7.21875 13.164062 7.128906 12.980469 7.128906 12.773438 Z M 7.214844 5.089844 C 7.214844 4.867188 7.289062 4.699219 7.441406 4.578125 C 7.59375 4.457031 7.789062 4.394531 8.027344 4.394531 C 8.269531 4.394531 8.445312 4.457031 8.558594 4.582031 C 8.671875 4.710938 8.726562 4.878906 8.726562 5.089844 C 8.726562 5.785156 8.714844 6.109375 8.691406 7.683594 C 8.667969 9.261719 8.65625 9.757812 8.65625 10.453125 C 8.65625 10.597656 8.589844 10.710938 8.453125 10.792969 C 8.316406 10.875 8.175781 10.914062 8.027344 10.914062 C 7.601562 10.914062 7.386719 10.761719 7.386719 10.453125 C 7.386719 9.757812 7.359375 9.261719 7.300781 7.683594 C 7.242188 6.109375 7.214844 5.785156 7.214844 5.089844 Z M 7.214844 5.089844 "/>
</g>
</svg>
