<?xml version="1.0" encoding="UTF-8"?>
<svg xmlns="http://www.w3.org/2000/svg" xmlns:xlink="http://www.w3.org/1999/xlink" width="16pt" height="16pt" viewBox="0 0 16 16" version="1.1">
<g id="surface1">
<path style=" stroke:none;fill-rule:nonzero;fill:rgb(88.235294%,90.196078%,91.372549%);fill-opacity:1;" d="M 4.414062 14.605469 L 4.285156 14.730469 C 4.222656 14.796875 4.15625 14.839844 4.074219 14.859375 L 1.542969 15.625 L 0.351562 15.984375 C 0.140625 16.050781 -0.0507812 15.859375 0.0117188 15.644531 L 0.375 14.457031 L 1.117188 11.925781 C 1.140625 11.839844 1.179688 11.757812 1.246094 11.714844 L 1.371094 11.585938 Z M 4.414062 14.605469 "/>
<path style=" stroke:none;fill-rule:nonzero;fill:rgb(98.823529%,83.137255%,38.431373%);fill-opacity:1;" d="M 13.53125 5.484375 L 4.242188 14.773438 C 4.03125 14.988281 3.691406 14.988281 3.476562 14.773438 C 3.265625 14.5625 3.265625 14.222656 3.476562 14.03125 C 3.265625 14.242188 2.925781 14.242188 2.734375 14.03125 C 2.542969 13.816406 2.519531 13.476562 2.734375 13.265625 C 2.519531 13.476562 2.179688 13.476562 1.988281 13.265625 C 1.777344 13.054688 1.777344 12.710938 1.988281 12.519531 C 1.777344 12.734375 1.4375 12.734375 1.222656 12.519531 C 1.011719 12.308594 1.011719 11.96875 1.222656 11.757812 L 10.511719 2.46875 Z M 13.53125 5.484375 "/>
<path style=" stroke:none;fill-rule:nonzero;fill:rgb(10.980392%,45.882353%,63.137255%);fill-opacity:1;" d="M 1.542969 15.625 L 0.351562 15.984375 C 0.140625 16.050781 -0.0507812 15.859375 0.0117188 15.644531 L 0.375 14.457031 C 0.628906 14.5625 0.863281 14.710938 1.074219 14.921875 C 1.289062 15.136719 1.4375 15.371094 1.542969 15.625 Z M 1.542969 15.625 "/>
<path style=" stroke:none;fill-rule:nonzero;fill:rgb(15.294118%,63.529412%,85.882353%);fill-opacity:1;" d="M 15.871094 3.148438 L 14.085938 4.933594 L 11.066406 1.914062 L 12.851562 0.128906 C 13.019531 -0.0429688 13.277344 -0.0429688 13.445312 0.128906 L 13.53125 0.191406 L 15.804688 2.46875 L 15.890625 2.550781 C 16.039062 2.722656 16.039062 2.976562 15.871094 3.148438 Z M 15.871094 3.148438 "/>
<path style=" stroke:none;fill-rule:nonzero;fill:rgb(88.235294%,90.196078%,91.372549%);fill-opacity:1;" d="M 14.289062 4.714844 L 13.355469 5.648438 L 10.335938 2.625 L 11.265625 1.695312 Z M 14.289062 4.714844 "/>
<path style=" stroke:none;fill-rule:nonzero;fill:rgb(96.470588%,76.470588%,34.509804%);fill-opacity:1;" d="M 11.109375 3.382812 L 1.96875 12.519531 C 1.753906 12.734375 1.753906 13.074219 1.96875 13.285156 C 2.179688 13.5 2.519531 13.5 2.734375 13.285156 L 11.851562 4.167969 Z M 11.109375 3.382812 "/>
<path style=" stroke:none;fill-rule:nonzero;fill:rgb(96.470588%,76.470588%,34.509804%);fill-opacity:1;" d="M 12.617188 4.890625 L 3.476562 14.03125 C 3.265625 14.242188 3.265625 14.582031 3.476562 14.796875 C 3.691406 15.007812 4.03125 15.007812 4.242188 14.796875 L 13.363281 5.65625 Z M 12.617188 4.890625 "/>
</g>
</svg>
