<svg id="Layer_1" data-name="Layer 1" xmlns="http://www.w3.org/2000/svg" viewBox="0 0 148.3 198.68"><defs><style>.cls-1{fill:#ed1c24;}.cls-2{fill:#ff525f;}.cls-3{fill:#fff;}</style></defs><path class="cls-1" d="M165.71,122.11a75.45,75.45,0,0,0,16-46,74.15,74.15,0,0,0-148.3,0,75.39,75.39,0,0,0,16,46c14.85,19.41,58.16,78.57,58.16,78.57S150.85,141.52,165.71,122.11Z" transform="translate(-33.39 -2)"/><path class="cls-2" d="M165.71,122.11a75.45,75.45,0,0,0,16-46A74.15,74.15,0,0,0,107.54,2V200.68S150.85,141.52,165.71,122.11Z" transform="translate(-33.39 -2)"/><circle class="cls-2" cx="107.54" cy="76.15" r="54.94" transform="translate(-33.82 -1.39) rotate(-0.32)"/><path class="cls-1" d="M162.49,76.15A55,55,0,0,0,107.54,21.2V131.09A55,55,0,0,0,162.49,76.15Z" transform="translate(-33.39 -2)"/><circle class="cls-3" cx="107.54" cy="76.15" r="48.54" transform="translate(-33.74 -1.5) rotate(-0.27)"/><path class="cls-1" d="M135.48,97.67h-7.93q-3.09-5.26-6.17-10.55l-1.2-2.05a25.26,25.26,0,0,0,2-1.52l1,.11,2.3-2.3-.12-1.07a23.71,23.71,0,0,0,5.17-12.39l.79-.63V64l-.79-.64A23.63,23.63,0,0,0,125.45,51l.11-1-2.3-2.29-1,.11a22.49,22.49,0,0,0-12.45-5.18l-.62-.77h-3.25l-.65.8A23.59,23.59,0,0,0,92.8,47.73l-1-.1-2.3,2.29.11,1A23.33,23.33,0,0,0,84.5,63.36l-.81.66v3.25l.8.65a22.91,22.91,0,0,0,3.22,9.78,22.45,22.45,0,0,0,1.92,2.68l-.11,1,2.3,2.3,1-.11a21.9,21.9,0,0,0,2.07,1.51l-5.39,9.22-2,3.39H79.61l-3,4.25h61.89ZM109.6,87.22l-.43-.54h-1.29V79.14a13.66,13.66,0,0,0,4-.7l2.8,7.7A21.6,21.6,0,0,1,109.6,87.22Zm-9.14-1.12,2.78-7.66a13.66,13.66,0,0,0,4,.7v7.54h-1.29l-.42.52A22.24,22.24,0,0,1,100.46,86.1Zm-6.73-4.52-2.21-2.21-.71.08a21.1,21.1,0,0,1-1.88-2.67l7.1-4.1a13.63,13.63,0,0,0,2.58,3.08Zm3.07-9.35,7-4a4.75,4.75,0,0,0,.57.69l0,.06-5.14,6.13A12.79,12.79,0,0,1,96.8,72.23ZM86,63.6c0-.46.1-.93.17-1.39l8,1.42a13.61,13.61,0,0,0,0,4l-8,1.41c-.07-.46-.13-.92-.17-1.39l.51-.41V64Zm43.13,4.1c0,.46-.1.92-.18,1.37l-8-1.41a13.61,13.61,0,0,0,0-4l8-1.42c.07.46.14.92.18,1.38l-.53.43v3.25Zm-5.54,11.67-2.21,2.21-4.89-5.82a13.67,13.67,0,0,0,2.59-3.08l7,4.07a21.94,21.94,0,0,1-1.88,2.69ZM99.19,56.22l5.19,6.18a4.24,4.24,0,0,0-.58.69l-7-4A12.79,12.79,0,0,1,99.19,56.22Zm19.09,2.84-7,4a4.3,4.3,0,0,0-.59-.69l5.19-6.18A12.52,12.52,0,0,1,118.28,59.06Zm1.86,6.58A12.73,12.73,0,0,1,120,67.5l-8-1.4a3.46,3.46,0,0,0,0-.46,3.39,3.39,0,0,0,0-.45l8-1.4A12.49,12.49,0,0,1,120.14,65.64Zm-8.21,1.12,8,1.4a12.67,12.67,0,0,1-1.27,3.49l-7-4A4.78,4.78,0,0,0,111.93,66.76Zm0-2.23a4.78,4.78,0,0,0-.31-.85l7-4a12.72,12.72,0,0,1,1.27,3.48Zm-4.72-3.4a4.45,4.45,0,0,0-.9.15l-2.76-7.59a12.6,12.6,0,0,1,3.66-.64Zm-1.53.38a4.32,4.32,0,0,0-.78.46l-5.19-6.19a13,13,0,0,1,3.21-1.86Zm-2.22,2.17a4.78,4.78,0,0,0-.31.85l-8-1.41a12.63,12.63,0,0,1,1.28-3.48ZM106.31,70a4.46,4.46,0,0,0,.9.16v8.08a12.61,12.61,0,0,1-3.66-.65Zm-3.39,7.36c-.31-.12-.61-.25-.91-.4l2.79-4.77Zm5-7.2a4.37,4.37,0,0,0,.89-.16l2.76,7.59a12.6,12.6,0,0,1-3.65.65Zm2.4,2L113.07,77c-.29.15-.6.28-.9.4Zm2.49.21,2.61,3.1c-.18.15-.37.28-.55.42Zm-2-3.46,0-.06a4.24,4.24,0,0,0,.58-.69l7,4a12.52,12.52,0,0,1-2.39,2.84Zm8.65,3.16a14,14,0,0,0,1.38-3.78l8,1.42a22.48,22.48,0,0,1-2.36,6.43ZM120.78,63a14,14,0,0,0-1.38-3.78l7-4.06a21.83,21.83,0,0,1,2.37,6.42Zm-1.72-4.36a13.46,13.46,0,0,0-2.59-3.08l4.89-5.83,2.21,2.22.62-.07a21.77,21.77,0,0,1,1.9,2.69ZM116,55.1a13.26,13.26,0,0,0-3.48-2l2.8-7.7a21.44,21.44,0,0,1,5.93,3.47Zm-.57.68L110.19,62a4.79,4.79,0,0,0-.79-.46l2.77-7.59A13.32,13.32,0,0,1,115.38,55.78Zm-6.61,5.5a4.36,4.36,0,0,0-.89-.15V53.05a12.59,12.59,0,0,1,3.65.64ZM105.92,44.6h1.29v7.55a13.66,13.66,0,0,0-4,.7l-2.79-7.67a22.06,22.06,0,0,1,5-1.11Zm-3.31,8.48a13.58,13.58,0,0,0-3.48,2l-5.25-6.27a22.1,22.1,0,0,1,5.94-3.41ZM91.52,51.92l2.21-2.22,4.88,5.83A13.42,13.42,0,0,0,96,58.61l-7.1-4.1a20.36,20.36,0,0,1,1.89-2.67Zm4.17,7.27A13.26,13.26,0,0,0,94.31,63l-8-1.42a21.5,21.5,0,0,1,2.33-6.46Zm-.75,6.45a12.49,12.49,0,0,1,.14-1.85l8,1.4c0,.15,0,.3,0,.45s0,.31,0,.46l-8,1.4A12.73,12.73,0,0,1,94.94,65.64Zm8.21,1.12a4.78,4.78,0,0,0,.31.85l-7,4a12.69,12.69,0,0,1-1.28-3.49Zm-.83,5.64-2.06,3.52c-.19-.14-.37-.27-.55-.42Zm.29,5.81-2.79,7.66a24.23,24.23,0,0,1-2.39-1.07l4.13-7.06C101.9,77.91,102.25,78.07,102.61,78.21Zm12.67,7.7-2.81-7.7c.36-.14.71-.3,1.06-.47l4.14,7.09A19.82,19.82,0,0,1,115.28,85.91Zm0-9.21c.23-.17.46-.33.67-.51l5.27,6.28a21.16,21.16,0,0,1-1.79,1.32C118.05,81.43,116.67,79.06,115.28,76.7Zm-.64-31.55-2.8,7.7a13.66,13.66,0,0,0-4-.7V44.6h1.29l.44-.55a20.43,20.43,0,0,1,2.31.34A22.29,22.29,0,0,1,114.64,45.15ZM86.27,69.74l8-1.42a13.37,13.37,0,0,0,1.38,3.78l-7.1,4.09A22.06,22.06,0,0,1,86.27,69.74Zm7.6,12.72,5.26-6.27c.22.18.44.34.67.51l-4.13,7.06A20.51,20.51,0,0,1,93.87,82.46ZM95.54,88c.38-.65.76-1.29,1.13-1.94a23.54,23.54,0,0,0,8.6,2.61l.65.8h3.25l.62-.77c.71-.07,1.42-.16,2.12-.3a22.2,22.2,0,0,0,6.52-2.31l5.3,9.07,1.45,2.48H89.9Z" transform="translate(-33.39 -2)"/><path class="cls-2" d="M135.48,97.67h-7.93q-3.09-5.26-6.17-10.55l-1.2-2.05a25.26,25.26,0,0,0,2-1.52l1,.11,2.3-2.3-.12-1.07a23.71,23.71,0,0,0,5.17-12.39l.79-.63V64l-.79-.64A23.63,23.63,0,0,0,125.45,51l.11-1-2.3-2.29-1,.11a22.49,22.49,0,0,0-12.45-5.18l-.62-.77h-1.63V89.5h1.63l.62-.77c.71-.07,1.42-.16,2.12-.3a22.2,22.2,0,0,0,6.52-2.31l5.3,9.07,1.45,2.48H107.54v4.25h31ZM124.23,79.44l-.66-.07-2.21,2.21-4.89-5.82a13.67,13.67,0,0,0,2.59-3.08l7,4.07A21.94,21.94,0,0,1,124.23,79.44ZM112.05,66.1a3.46,3.46,0,0,0,0-.46,3.39,3.39,0,0,0,0-.45l8-1.4a12.49,12.49,0,0,1,.13,1.85A12.73,12.73,0,0,1,120,67.5Zm7.84,2.06a12.67,12.67,0,0,1-1.27,3.49l-7-4a4.78,4.78,0,0,0,.31-.85Zm-8-3.63a4.78,4.78,0,0,0-.31-.85l7-4a12.61,12.61,0,0,1,1.27,3.48Zm-.64-1.44a4.3,4.3,0,0,0-.59-.69l5.19-6.18a12.52,12.52,0,0,1,2.39,2.84ZM110.19,62a4.79,4.79,0,0,0-.79-.46l2.77-7.59a13.32,13.32,0,0,1,3.21,1.86Zm2.88,15c-.29.15-.6.28-.9.4l-1.89-5.17Zm-.3-4.56,2.61,3.1c-.18.15-.37.28-.55.42Zm-2-3.46,0-.06a4.24,4.24,0,0,0,.58-.69l7,4a12.52,12.52,0,0,1-2.39,2.84Zm15.7,7.23-7-4.07a14,14,0,0,0,1.38-3.78l8,1.42A22.48,22.48,0,0,1,126.45,76.17Zm2.66-12.58-.53.43v3.25l.53.43c0,.46-.1.92-.18,1.37l-8-1.41a13.61,13.61,0,0,0,0-4l8-1.42C129,62.67,129.07,63.13,129.11,63.59Zm-.31-2-8,1.42a14,14,0,0,0-1.38-3.78l7-4.06A21.83,21.83,0,0,1,128.8,61.55Zm-5.23-9.63.62-.07a21.77,21.77,0,0,1,1.9,2.69l-7,4.07a13.46,13.46,0,0,0-2.59-3.08l4.89-5.83Zm-2.37-3.07L116,55.1a13.26,13.26,0,0,0-3.48-2l2.8-7.7A21.44,21.44,0,0,1,121.2,48.85ZM107.88,44.6h1.29l.44-.55a20.43,20.43,0,0,1,2.31.34,22.29,22.29,0,0,1,2.72.76l-2.8,7.7a13.66,13.66,0,0,0-4-.7Zm0,8.45a12.59,12.59,0,0,1,3.65.64l-2.76,7.59a4.36,4.36,0,0,0-.89-.15Zm0,17.11a4.37,4.37,0,0,0,.89-.16l2.76,7.59a12.6,12.6,0,0,1-3.65.65Zm1.72,17.06-.43-.54h-1.29V79.14a13.66,13.66,0,0,0,4-.7l2.8,7.7A21.6,21.6,0,0,1,109.6,87.22Zm5.68-1.31-2.81-7.7c.36-.14.71-.3,1.06-.47l4.14,7.09A19.82,19.82,0,0,1,115.28,85.91Zm0-9.21c.23-.17.46-.33.67-.51l5.27,6.28a21.16,21.16,0,0,1-1.79,1.32C118.05,81.43,116.67,79.06,115.28,76.7Z" transform="translate(-33.39 -2)"/></svg>