<svg xmlns="http://www.w3.org/2000/svg" viewBox="0 0 74.72 74.32"><defs><style>.cls-1{isolation:isolate;}.cls-2{fill:#a0a0a0;}.cls-3{opacity:0.2;}.cls-3,.cls-6{mix-blend-mode:screen;}.cls-4{fill:#24966a;}.cls-5{fill:#8c8c8c;}.cls-6{opacity:0.15;}.cls-7{fill:#dcdcdc;}</style></defs><g class="cls-1"><g id="Layer_1" data-name="Layer 1"><path class="cls-2" d="M27.64,11.26A16.11,16.11,0,1,0,43.75,27.37,16.12,16.12,0,0,0,27.64,11.26Zm0,26.77A10.67,10.67,0,1,1,38.3,27.37,10.67,10.67,0,0,1,27.64,38Z" transform="translate(-2.38 -2.11)"/><path class="cls-2" d="M50.4,27.37c0-.57,0-1.12-.08-1.67a17.49,17.49,0,0,0,1.59-1.35l.69-.67a21.84,21.84,0,0,0-.63-3,16.2,16.2,0,0,0-.66-2L51,17.7l-2.3,1c-.22-.52-.46-1-.71-1.51a16.57,16.57,0,0,0,.95-1.87l.38-.87a21.85,21.85,0,0,0-1.75-2.56,15.52,15.52,0,0,0-1.39-1.63l-.65-.71-1.76,1.76c-.4-.39-.82-.75-1.24-1.12a19.48,19.48,0,0,0,.17-2.08c0-.57,0-1,0-1l-.77-.58c-.48-.33-1.16-.72-1.82-1.12a20.29,20.29,0,0,0-1.9-1c-.52-.26-.88-.41-.88-.41l-1,2.31c-.51-.21-1-.4-1.56-.57-.2-.75-.45-1.44-.65-2l-.35-.9-.94-.24c-.57-.11-1.35-.21-2.11-.33a20.06,20.06,0,0,0-2.13-.16l-1-.05v2.5c-.56,0-1.11,0-1.67.08a17.51,17.51,0,0,0-1.35-1.6L24,2.41a21.54,21.54,0,0,0-3,.63,16.2,16.2,0,0,0-2,.66L18,4l.95,2.31c-.51.22-1,.46-1.51.71a15.7,15.7,0,0,0-1.86-1l-.88-.38a21.85,21.85,0,0,0-2.56,1.75A17.9,17.9,0,0,0,10.5,8.85l-.71.66,1.76,1.76c-.39.4-.76.81-1.12,1.24a19.68,19.68,0,0,0-2.08-.17l-1,0s-.23.32-.58.78-.72,1.16-1.13,1.82a20,20,0,0,0-1,1.9c-.26.52-.41.88-.41.88l2.31,1c-.21.51-.4,1-.58,1.56a20.06,20.06,0,0,0-2,.65l-.89.35s-.1.38-.24.94-.22,1.35-.34,2.11-.11,1.55-.16,2.13,0,1,0,1H4.88c0,.56,0,1.11.09,1.66a19.57,19.57,0,0,0-1.6,1.35l-.69.67a22.42,22.42,0,0,0,.64,3,16.2,16.2,0,0,0,.66,2l.33.91,2.31-1c.21.52.46,1,.71,1.52a17.62,17.62,0,0,0-1,1.86L6,40.33a24.35,24.35,0,0,0,1.76,2.56,17.9,17.9,0,0,0,1.38,1.62c.39.43.66.71.66.71l1.76-1.76c.39.39.81.76,1.24,1.12a17.33,17.33,0,0,0-.17,2.08l0,1,.78.58c.48.33,1.16.72,1.81,1.13a21.32,21.32,0,0,0,1.91,1c.52.26.88.41.88.41l.95-2.31c.52.21,1,.4,1.57.58a17.73,17.73,0,0,0,.65,2l.35.89.94.24c.57.11,1.34.21,2.11.34s1.55.11,2.13.16l1,0v-2.5c.57,0,1.12,0,1.67-.08a17.75,17.75,0,0,0,1.35,1.6l.67.69a22.75,22.75,0,0,0,3-.64,16.2,16.2,0,0,0,2-.66l.91-.33-1-2.31c.52-.21,1-.46,1.51-.71a19.81,19.81,0,0,0,1.86,1l.88.38a24.35,24.35,0,0,0,2.56-1.76,19.68,19.68,0,0,0,1.63-1.38l.71-.66-1.76-1.76c.39-.39.75-.81,1.12-1.24a19.48,19.48,0,0,0,2.08.17l1,0,.58-.78c.33-.48.72-1.16,1.12-1.81s.7-1.39,1-1.91S51,37,51,37l-2.3-1q.31-.76.57-1.56a19.22,19.22,0,0,0,2-.65l.9-.35s.09-.38.24-.94.21-1.34.33-2.11a20.06,20.06,0,0,0,.16-2.13l0-1ZM27.64,45.7A18.34,18.34,0,1,1,46,27.37,18.35,18.35,0,0,1,27.64,45.7Z" transform="translate(-2.38 -2.11)"/><path class="cls-2" d="M27.64,11.26a16.11,16.11,0,1,0,16.1,16.11A16.12,16.12,0,0,0,27.64,11.26Zm0,26.77A10.67,10.67,0,1,1,38.3,27.37,10.66,10.66,0,0,1,27.64,38Z" transform="translate(-2.38 -2.11)"/><path class="cls-2" d="M50.4,27.37c0-.57,0-1.12-.08-1.67.6-.46,1.19-1,1.6-1.35l.69-.67a22.44,22.44,0,0,0-.64-3,16.77,16.77,0,0,0-.66-2c-.2-.56-.34-.92-.34-.92l-2.3,1c-.21-.52-.47-1-.71-1.51.38-.66.73-1.35,1-1.87s.38-.88.38-.88a23.41,23.41,0,0,0-1.75-2.56,19.32,19.32,0,0,0-1.4-1.62c-.39-.42-.64-.71-.64-.71l-1.78,1.76a16.21,16.21,0,0,0-1.23-1.11,19.85,19.85,0,0,0,.17-2.09c0-.58,0-1,0-1l-.78-.58c-.47-.33-1.14-.71-1.8-1.12s-1.4-.71-1.91-1S37.31,4,37.31,4l-1,2.31c-.51-.21-1-.4-1.57-.58a17.63,17.63,0,0,0-.64-2c-.22-.53-.35-.9-.35-.9l-.95-.24c-.57-.11-1.34-.21-2.11-.33a20,20,0,0,0-2.11-.17l-1,0V4.6c-.56,0-1.11.05-1.67.09a17.51,17.51,0,0,0-1.35-1.6L24,2.41a21.85,21.85,0,0,0-3,.63,16.2,16.2,0,0,0-2,.66L18,4l1,2.31c-.53.22-1,.46-1.52.72a15.94,15.94,0,0,0-1.86-1c-.52-.24-.88-.38-.88-.38a21.28,21.28,0,0,0-2.55,1.75A18.4,18.4,0,0,0,10.5,8.85l-.71.66,1.76,1.76c-.39.39-.76.81-1.12,1.24a17.33,17.33,0,0,0-2.08-.17l-1,0s-.24.31-.58.78-.72,1.16-1.13,1.82-.7,1.38-1,1.9-.4.88-.4.88l2.31,1c-.21.5-.4,1-.58,1.56a19,19,0,0,0-2,.65l-.9.36s-.1.37-.24.93-.21,1.34-.33,2.11a17.72,17.72,0,0,0-.16,2.13c0,.58-.06,1-.06,1h2.5c0,.56,0,1.11.09,1.66-.61.47-1.19,1-1.6,1.35l-.69.67a20.77,20.77,0,0,0,.64,3,15.67,15.67,0,0,0,.66,2l.33.91,2.31-1c.21.51.46,1,.71,1.5a19.81,19.81,0,0,0-1,1.86L6,40.32a26,26,0,0,0,1.75,2.57A19.33,19.33,0,0,0,9.13,44.5c.39.44.66.72.66.72l1.76-1.76c.4.39.81.76,1.23,1.12a19.22,19.22,0,0,0-.16,2.08c0,.58,0,1,0,1s.31.22.77.58,1.16.71,1.81,1.11,1.4.7,1.91,1,.88.4.88.4l1-2.29c.5.21,1,.39,1.56.56a20.32,20.32,0,0,0,.65,2l.35.89.94.24c.57.11,1.35.22,2.11.34s1.55.1,2.13.16l1,0v-2.5c.56,0,1.12,0,1.67-.07a18.92,18.92,0,0,0,1.36,1.59l.65.68a22.67,22.67,0,0,0,3-.62,20.32,20.32,0,0,0,2-.66l.91-.35-1-2.29c.52-.23,1-.47,1.51-.72.67.38,1.35.74,1.86,1l.88.38a24.35,24.35,0,0,0,2.56-1.76,17.9,17.9,0,0,0,1.62-1.38l.73-.66-1.78-1.76c.4-.39.76-.82,1.13-1.24.77.11,1.5.15,2.07.18h1s.24-.31.58-.78.72-1.16,1.13-1.82.69-1.38,1-1.89S51,37,51,37l-2.3-1c.21-.52.4-1,.57-1.58a16.58,16.58,0,0,0,2-.64l.9-.35s.1-.38.24-.95.21-1.33.34-2.1a19.63,19.63,0,0,0,.15-2.13l0-1ZM27.64,45.7A18.34,18.34,0,1,1,46,27.37,18.35,18.35,0,0,1,27.64,45.7Z" transform="translate(-2.38 -2.11)"/><g class="cls-3"><path class="cls-2" d="M27.64,43.47V38a10.67,10.67,0,0,0,0-21.33V11.26a16.11,16.11,0,0,1,0,32.21Z" transform="translate(-2.38 -2.11)"/><path class="cls-2" d="M52.9,27.37l0,1a19.63,19.63,0,0,1-.15,2.13c-.13.77-.24,1.54-.34,2.1s-.24.95-.24.95l-.9.35a16.58,16.58,0,0,1-2,.64c-.17.54-.36,1.06-.57,1.58L51,37s-.15.36-.4.89-.55,1.23-1,1.89-.81,1.34-1.13,1.82-.58.78-.58.78h-1c-.57,0-1.3-.07-2.07-.18-.37.42-.73.85-1.13,1.24l1.78,1.76-.73.66a17.9,17.9,0,0,1-1.62,1.38A24.35,24.35,0,0,1,40.6,49l-.88-.38c-.51-.22-1.19-.58-1.86-1-.49.25-1,.49-1.51.72l1,2.29L36.4,51a20.32,20.32,0,0,1-2,.66,22.67,22.67,0,0,1-3,.62l-.65-.68a18.92,18.92,0,0,1-1.36-1.59c-.55,0-1.11.07-1.67.07V45.7A18.34,18.34,0,0,0,27.64,9V2.11l1,0a20,20,0,0,1,2.11.17c.77.12,1.54.22,2.11.33l.95.24s.13.37.35.9a17.63,17.63,0,0,1,.64,2c.53.18,1.06.37,1.57.58l1-2.31s.36.15.88.41,1.25.56,1.91,1,1.33.79,1.8,1.12l.78.58s0,.38,0,1a19.85,19.85,0,0,1-.17,2.09,16.21,16.21,0,0,1,1.23,1.11l1.78-1.76s.25.29.64.71a19.32,19.32,0,0,1,1.4,1.62A23.41,23.41,0,0,1,49.3,14.4s-.16.36-.38.88-.58,1.21-1,1.87c.24.5.5,1,.71,1.51l2.3-1s.14.36.34.92a16.77,16.77,0,0,1,.66,2,22.44,22.44,0,0,1,.64,3l-.69.67c-.41.39-1,.89-1.6,1.35,0,.55.08,1.1.08,1.67Z" transform="translate(-2.38 -2.11)"/></g><path class="cls-4" d="M74.8,44a6.59,6.59,0,0,1-2.6.54l-.21,0a16.15,16.15,0,0,0,.2-2.43c0-.23,0-.45,0-.67a5.86,5.86,0,0,0,1.94-1.55,7,7,0,0,0,.58-7.57,5.82,5.82,0,0,1-3.19,4.44,1.63,1.63,0,0,1-.19.09A15.75,15.75,0,0,0,70,34a5.93,5.93,0,0,0,1-2.28,7,7,0,0,0-3-7,5.85,5.85,0,0,1-.76,5.41l-.13.17a16.87,16.87,0,0,0-2.46-1.91A5.82,5.82,0,0,0,64.47,26a7,7,0,0,0-5.9-4.78,5.87,5.87,0,0,1,1.85,5.15c0,.07,0,.13,0,.2A17.18,17.18,0,0,0,57.32,26,6.14,6.14,0,0,0,56,23.88a6.67,6.67,0,0,0-3.3-1.78A6.42,6.42,0,0,0,50.65,22a6.52,6.52,0,0,0-2.08.45A6,6,0,0,1,50,23a5.8,5.8,0,0,1,1.15.9,6.34,6.34,0,0,1,1.41,2.21,1.17,1.17,0,0,1,.06.2,15.8,15.8,0,0,0-3,.94A5.67,5.67,0,0,0,47.55,26a6.54,6.54,0,0,0-3.75,0,6.46,6.46,0,0,0-1.89.82,6.64,6.64,0,0,0-1.63,1.37A6.28,6.28,0,0,1,41.85,28a6.38,6.38,0,0,1,1.42.26,6.47,6.47,0,0,1,2.28,1.3c.05.05.09.1.15.15a16.41,16.41,0,0,0-2.19,2.22A5.67,5.67,0,0,0,41,31.77a6.9,6.9,0,0,0-4.64,3.31,6.82,6.82,0,0,0-.81,2,6,6,0,0,1,1.31-.87,5.45,5.45,0,0,1,1.39-.44,6.55,6.55,0,0,1,2.62.09l.2.07a15,15,0,0,0-.91,3A5.81,5.81,0,0,0,38,39.92a5.71,5.71,0,0,0-1.26,1.33,6.78,6.78,0,0,0-.53.82,8.23,8.23,0,0,0-.37.91,6.21,6.21,0,0,0-.41,2,6.62,6.62,0,0,0,.2,2.12,5.52,5.52,0,0,1,1.79-2.41,6.13,6.13,0,0,1,2.36-1.13l.21,0a15.61,15.61,0,0,0,.58,3.06,4.6,4.6,0,0,0-.56.52A6.28,6.28,0,0,0,39,48.56a5.46,5.46,0,0,0-.51,1.77,6.14,6.14,0,0,0,0,2,7.17,7.17,0,0,0,1.75,3.76,5.57,5.57,0,0,1,.45-3A6.3,6.3,0,0,1,42.3,51l.17-.13a16.22,16.22,0,0,0,1.93,2.43,6.84,6.84,0,0,0-.25.72A6.45,6.45,0,0,0,44,55.72a5.6,5.6,0,0,0,.36,1.8,6.27,6.27,0,0,0,.92,1.73,7.09,7.09,0,0,0,3.3,2.52,5.52,5.52,0,0,1-1-2.83,6.27,6.27,0,0,1,.42-2.6c0-.06.06-.12.09-.19a15.63,15.63,0,0,0,2.83,1.26,5.37,5.37,0,0,0,.78,2.35,5.48,5.48,0,0,0,1.16,1.43,6.34,6.34,0,0,0,1.62,1.1,7.31,7.31,0,0,0,4.08.7,5.83,5.83,0,0,1-3-4.56c0-.07,0-.14,0-.21.17,0,.33,0,.5,0a16,16,0,0,0,2.6-.23,5.49,5.49,0,0,0,1.77,1.72,6.6,6.6,0,0,0,3.65,1,8.56,8.56,0,0,0,2-.35A8.47,8.47,0,0,0,68,59.42a5.84,5.84,0,0,1-2.88-.81,6.47,6.47,0,0,1-1.92-1.83,1,1,0,0,1-.1-.17A16.58,16.58,0,0,0,65.74,55a5.58,5.58,0,0,0,2.38.7,6.58,6.58,0,0,0,3.67-.83,8.38,8.38,0,0,0,1.64-1.25,8.61,8.61,0,0,0,1.25-1.72,5.83,5.83,0,0,1-5.47-.11L69,51.66A15.6,15.6,0,0,0,70.63,49a5.44,5.44,0,0,0,2.43-.48,6.67,6.67,0,0,0,2.86-2.45,10,10,0,0,0,.87-1.87,10.43,10.43,0,0,0,.31-2.1A6,6,0,0,1,74.8,44Zm-18.56,5a6.94,6.94,0,1,1,6.94-6.94A6.94,6.94,0,0,1,56.24,49.05Z" transform="translate(-2.38 -2.11)"/><path class="cls-5" d="M39.85,58.93l-10.1-3.27-7.88,7.12,2.22,10.38,10.1,3.27,7.89-7.12ZM30.3,71.2a5.42,5.42,0,1,1,6.83-3.49A5.42,5.42,0,0,1,30.3,71.2Z" transform="translate(-2.38 -2.11)"/><g class="cls-6"><path class="cls-7" d="M58.57,63a5.65,5.65,0,0,1-2.33-2.35v2.24A7.57,7.57,0,0,0,58.57,63Z" transform="translate(-2.38 -2.11)"/><path class="cls-7" d="M74.8,44a6.59,6.59,0,0,1-2.6.54l-.21,0a16.15,16.15,0,0,0,.2-2.43c0-.23,0-.45,0-.67a5.86,5.86,0,0,0,1.94-1.55,7,7,0,0,0,.58-7.57,5.82,5.82,0,0,1-3.19,4.44,1.63,1.63,0,0,1-.19.09A15.75,15.75,0,0,0,70,34a5.93,5.93,0,0,0,1-2.28,7,7,0,0,0-3-7,5.85,5.85,0,0,1-.76,5.41l-.13.17a16.87,16.87,0,0,0-2.46-1.91A5.82,5.82,0,0,0,64.47,26a7,7,0,0,0-5.9-4.78,5.87,5.87,0,0,1,1.85,5.15c0,.07,0,.13,0,.2A17.18,17.18,0,0,0,57.32,26a6.13,6.13,0,0,0-1.08-1.83v11a6.94,6.94,0,0,1,0,13.88v9.19a18.77,18.77,0,0,0,2.4-.22,5.49,5.49,0,0,0,1.77,1.72,6.6,6.6,0,0,0,3.65,1,8.56,8.56,0,0,0,2-.35A8.47,8.47,0,0,0,68,59.42a5.84,5.84,0,0,1-2.88-.81,6.47,6.47,0,0,1-1.92-1.83,1,1,0,0,1-.1-.17A16.58,16.58,0,0,0,65.74,55a5.58,5.58,0,0,0,2.38.7,6.58,6.58,0,0,0,3.67-.83,8.38,8.38,0,0,0,1.64-1.25,8.61,8.61,0,0,0,1.25-1.72,5.83,5.83,0,0,1-5.47-.11L69,51.66A15.6,15.6,0,0,0,70.63,49a5.44,5.44,0,0,0,2.43-.48,6.67,6.67,0,0,0,2.86-2.45,10,10,0,0,0,.87-1.87,10.43,10.43,0,0,0,.31-2.1A6,6,0,0,1,74.8,44Z" transform="translate(-2.38 -2.11)"/></g></g></g></svg>