<svg xmlns="http://www.w3.org/2000/svg" viewBox="0 0 78.73 69.25"><defs><style>.cls-1{isolation:isolate;}.cls-2{fill:#faf8d7;}.cls-10,.cls-12,.cls-3{fill:#dacbae;}.cls-4,.cls-7,.cls-8,.cls-9{fill:none;}.cls-10,.cls-12,.cls-4,.cls-8,.cls-9{stroke:#c6b9a0;}.cls-10,.cls-11,.cls-12,.cls-4,.cls-5,.cls-7,.cls-8,.cls-9{stroke-miterlimit:10;}.cls-4{stroke-width:1.1px;}.cls-5,.cls-6{fill:#89bb6e;}.cls-5,.cls-7{stroke:#83ac61;}.cls-8{stroke-width:1.33px;}.cls-9{stroke-width:0.95px;}.cls-10{stroke-width:1.05px;}.cls-11{fill:#51c5d9;stroke:#4db8be;}.cls-12{stroke-width:0.53px;}.cls-13{fill:#dbdabe;}.cls-14{fill:#ed332a;}.cls-15{fill:#c61450;}.cls-16{fill:#da1760;}.cls-17{fill:#fff;}.cls-18{fill:#ceecfb;}.cls-19{fill:#aa7a91;}.cls-19,.cls-20,.cls-22,.cls-25,.cls-30,.cls-37{mix-blend-mode:multiply;}.cls-20{fill:#a4a7a9;}.cls-21{fill:#bbbdbf;}.cls-22,.cls-23{fill:#e6e7e8;}.cls-24,.cls-25{fill:#b72c2a;}.cls-26{fill:#d73633;}.cls-27{fill:#ef5150;}.cls-28{fill:#a43534;}.cls-29{fill:#771f1d;}.cls-30{fill:#c1c2c2;}.cls-31{fill:#24966a;}.cls-32{fill:#3cc676;}.cls-33{fill:#1f96c3;}.cls-34{fill:#60abcc;}.cls-35{fill:#197da1;}.cls-36{fill:#c8cacb;}.cls-37{fill:#af728f;}.cls-38{fill:#2d2932;}.cls-39{fill:#a6a8ab;}.cls-40{fill:#8e9093;}.cls-41{fill:#d3d4d6;}.cls-42{fill:#808184;}.cls-43{fill:#f16522;}.cls-44{fill:#9a9c9f;}.cls-45{fill:#f5871f;}.cls-46{fill:#f37b20;}.cls-47{fill:#fdbd10;}</style></defs><g class="cls-1"><g id="Layer_1" data-name="Layer 1"><polygon class="cls-2" points="11.81 23.63 64.67 23 78.73 56.79 0 56.79 11.81 23.63"/><path class="cls-3" d="M74.4,53.28a9.63,9.63,0,0,0-2.76-.15c-1.26.22-1.42,1-1.71,1.68a3,3,0,0,1-2.24,1.8,12.68,12.68,0,0,1-3.37.29l.52,1.82H76.68L74.53,53.3Z" transform="translate(-0.27 -3)"/><path class="cls-4" d="M74.4,53.28a9.63,9.63,0,0,0-2.76-.15c-1.26.22-1.42,1-1.71,1.68a3,3,0,0,1-2.24,1.8,12.68,12.68,0,0,1-3.37.29l.52,1.82H76.68L74.53,53.3Z" transform="translate(-0.27 -3)"/><path class="cls-3" d="M67.47,55.4c.75-.54.79-1.31,1.21-2a3.32,3.32,0,0,1,2.86-1.34,15.13,15.13,0,0,1,2.59.19l-.36-.89-11,0,1.27,4.51A6.17,6.17,0,0,0,67.47,55.4Z" transform="translate(-0.27 -3)"/><path class="cls-4" d="M67.47,55.4c.75-.54.79-1.31,1.21-2a3.32,3.32,0,0,1,2.86-1.34,15.13,15.13,0,0,1,2.59.19l-.36-.89-11,0,1.27,4.51A6.17,6.17,0,0,0,67.47,55.4Z" transform="translate(-0.27 -3)"/><polygon class="cls-3" points="60.24 40.38 70.3 40.34 73.21 47.66 62.3 47.68 60.24 40.38"/><polygon class="cls-4" points="60.24 40.38 70.3 40.34 73.21 47.66 62.3 47.68 60.24 40.38"/><polygon class="cls-3" points="59.58 38.04 60.02 39.58 69.98 39.53 69.36 37.99 59.58 38.04"/><polygon class="cls-4" points="59.58 38.04 60.02 39.58 69.98 39.53 69.36 37.99 59.58 38.04"/><polygon class="cls-5" points="58.81 35.3 59.26 36.9 68.91 36.85 68.27 35.24 58.81 35.3"/><polygon class="cls-3" points="67.81 34.09 67.06 32.21 57.96 32.28 58.48 34.16 67.81 34.09"/><polygon class="cls-4" points="67.81 34.09 67.06 32.21 57.96 32.28 58.48 34.16 67.81 34.09"/><path class="cls-6" d="M65.12,32.61a1.23,1.23,0,0,0-.9,1.82l2.79,0-.75-1.88A3.81,3.81,0,0,0,65.12,32.61Z" transform="translate(-0.27 -3)"/><path class="cls-7" d="M65.12,32.61a1.23,1.23,0,0,0-.9,1.82l2.79,0-.75-1.88A3.81,3.81,0,0,0,65.12,32.61Z" transform="translate(-0.27 -3)"/><path class="cls-6" d="M58.47,32.16a4,4,0,0,0-1.33-.7l.86,3h1.77A3.75,3.75,0,0,0,58.47,32.16Z" transform="translate(-0.27 -3)"/><path class="cls-7" d="M58.47,32.16a4,4,0,0,0-1.33-.7l.86,3h1.77A3.75,3.75,0,0,0,58.47,32.16Z" transform="translate(-0.27 -3)"/><path class="cls-3" d="M56.63,29.66l.22.74a5.91,5.91,0,0,1,2.71,1.33,5.43,5.43,0,0,1,1.59,2.72h1.71a1.86,1.86,0,0,1,.79-2.5,4.18,4.18,0,0,1,2.23-.36l-.79-2Z" transform="translate(-0.27 -3)"/><path class="cls-4" d="M56.63,29.66l.22.74a5.91,5.91,0,0,1,2.71,1.33,5.43,5.43,0,0,1,1.59,2.72h1.71a1.86,1.86,0,0,1,.79-2.5,4.18,4.18,0,0,1,2.23-.36l-.79-2Z" transform="translate(-0.27 -3)"/><polygon class="cls-3" points="64.48 25.72 63.83 24.09 55.67 24.18 56.13 25.8 64.48 25.72"/><polygon class="cls-4" points="64.48 25.72 63.83 24.09 55.67 24.18 56.13 25.8 64.48 25.72"/><polygon class="cls-3" points="45.12 52.46 45.43 55.72 58.41 55.72 57.69 52.44 45.12 52.46"/><polygon class="cls-8" points="45.12 52.46 45.43 55.72 58.41 55.72 57.69 52.44 45.12 52.46"/><path class="cls-6" d="M50.54,56.85a9.56,9.56,0,0,0-5.14-1.22l.29,3.09h6.64A4.06,4.06,0,0,0,50.54,56.85Z" transform="translate(-0.27 -3)"/><path class="cls-7" d="M50.54,56.85a9.56,9.56,0,0,0-5.14-1.22l.29,3.09h6.64A4.06,4.06,0,0,0,50.54,56.85Z" transform="translate(-0.27 -3)"/><polygon class="cls-5" points="57.32 51.44 56.65 48.43 44.74 48.46 45.03 51.46 57.32 51.44"/><polygon class="cls-3" points="58.81 51.44 61.63 51.44 60.83 48.42 58.1 48.43 58.81 51.44"/><polygon class="cls-8" points="58.81 51.44 61.63 51.44 60.83 48.42 58.1 48.43 58.81 51.44"/><polygon class="cls-3" points="58.87 52.44 59.63 55.72 62.76 55.72 61.89 52.44 58.87 52.44"/><polygon class="cls-8" points="58.87 52.44 59.63 55.72 62.76 55.72 61.89 52.44 58.87 52.44"/><polygon class="cls-3" points="51.71 30.37 51.95 31.53 56.35 31.49 56.05 30.34 51.71 30.37"/><polygon class="cls-8" points="51.71 30.37 51.95 31.53 56.35 31.49 56.05 30.34 51.71 30.37"/><polygon class="cls-3" points="51.32 28.47 51.53 29.47 55.81 29.43 55.54 28.43 51.32 28.47"/><polygon class="cls-8" points="51.32 28.47 51.53 29.47 55.81 29.43 55.54 28.43 51.32 28.47"/><polygon class="cls-3" points="50.93 26.61 51.11 27.46 55.28 27.43 55.05 26.57 50.93 26.61"/><polygon class="cls-8" points="50.93 26.61 51.11 27.46 55.28 27.43 55.05 26.57 50.93 26.61"/><polygon class="cls-3" points="54.83 25.72 54.42 24.2 50.44 24.24 50.76 25.76 54.83 25.72"/><polygon class="cls-8" points="54.83 25.72 54.42 24.2 50.44 24.24 50.76 25.76 54.83 25.72"/><polygon class="cls-5" points="50.7 31.54 49.3 24.25 42.48 24.33 43.16 31.59 50.7 31.54"/><polygon class="cls-3" points="38.4 51.45 38.32 48.47 35.08 48.48 35.05 51.45 38.4 51.45"/><polygon class="cls-9" points="38.4 51.45 38.32 48.47 35.08 48.48 35.05 51.45 38.4 51.45"/><polygon class="cls-3" points="40.24 51.45 43.64 51.44 43.4 48.46 40.11 48.47 40.24 51.45"/><polygon class="cls-9" points="40.24 51.45 43.64 51.44 43.4 48.46 40.11 48.47 40.24 51.45"/><polygon class="cls-3" points="35.04 52.45 35.01 55.73 43.98 55.72 43.72 52.44 35.04 52.45"/><polygon class="cls-9" points="35.04 52.45 35.01 55.73 43.98 55.72 43.72 52.44 35.04 52.45"/><polygon class="cls-3" points="40.4 30.47 40.47 31.62 42.06 31.6 41.97 30.45 40.4 30.47"/><polygon class="cls-9" points="40.4 30.47 40.47 31.62 42.06 31.6 41.97 30.45 40.4 30.47"/><path class="cls-3" d="M41.55,31l-1,.14.1,1.59,1.55,0L42,31Z" transform="translate(-0.27 -3)"/><path class="cls-9" d="M41.55,31l-1,.14.1,1.59,1.55,0L42,31Z" transform="translate(-0.27 -3)"/><path class="cls-3" d="M42,30l-.21-2.65-1.44,0,.16,2.8A11.15,11.15,0,0,1,42,30Z" transform="translate(-0.27 -3)"/><path class="cls-9" d="M42,30l-.21-2.65-1.44,0,.16,2.8A11.15,11.15,0,0,1,42,30Z" transform="translate(-0.27 -3)"/><polygon class="cls-3" points="37.8 30.49 37.83 31.64 39.56 31.62 39.51 30.48 37.8 30.49"/><polygon class="cls-9" points="37.8 30.49 37.83 31.64 39.56 31.62 39.51 30.48 37.8 30.49"/><path class="cls-3" d="M38,31.26l0,1.53h1.69l-.07-1.5A7.68,7.68,0,0,1,38,31.26Z" transform="translate(-0.27 -3)"/><path class="cls-9" d="M38,31.26l0,1.53h1.69l-.07-1.5A7.68,7.68,0,0,1,38,31.26Z" transform="translate(-0.27 -3)"/><path class="cls-3" d="M38.73,30.34a7.18,7.18,0,0,0,.9-.05l-.14-2.92H37.91L38,30.26A5.94,5.94,0,0,0,38.73,30.34Z" transform="translate(-0.27 -3)"/><path class="cls-9" d="M38.73,30.34a7.18,7.18,0,0,0,.9-.05l-.14-2.92H37.91L38,30.26A5.94,5.94,0,0,0,38.73,30.34Z" transform="translate(-0.27 -3)"/><polygon class="cls-3" points="35.24 30.51 35.23 31.66 36.92 31.64 36.91 30.5 35.24 30.51"/><polygon class="cls-9" points="35.24 30.51 35.23 31.66 36.92 31.64 36.91 30.5 35.24 30.51"/><path class="cls-3" d="M37.07,31.08a5.92,5.92,0,0,1-1.53-.64l0,2.37h1.64l0-1.7Z" transform="translate(-0.27 -3)"/><path class="cls-9" d="M37.07,31.08a5.92,5.92,0,0,1-1.53-.64l0,2.37h1.64l0-1.7Z" transform="translate(-0.27 -3)"/><path class="cls-3" d="M37.13,30l0-2.65-1.52,0,0,1.54A3.35,3.35,0,0,0,37.13,30Z" transform="translate(-0.27 -3)"/><path class="cls-9" d="M37.13,30l0-2.65-1.52,0,0,1.54A3.35,3.35,0,0,0,37.13,30Z" transform="translate(-0.27 -3)"/><path class="cls-3" d="M30.05,56.08a3.12,3.12,0,0,0-2.26,2.65h5.85l.08-3.21A8.46,8.46,0,0,0,30.05,56.08Z" transform="translate(-0.27 -3)"/><path class="cls-4" d="M30.05,56.08a3.12,3.12,0,0,0-2.26,2.65h5.85l.08-3.21A8.46,8.46,0,0,0,30.05,56.08Z" transform="translate(-0.27 -3)"/><path class="cls-3" d="M22.12,56.46l-.32,2.27H26a4.12,4.12,0,0,1,1.15-2.27Z" transform="translate(-0.27 -3)"/><path class="cls-4" d="M22.12,56.46l-.32,2.27H26a4.12,4.12,0,0,1,1.15-2.27Z" transform="translate(-0.27 -3)"/><path class="cls-3" d="M26.76,55.36H28.9c.21-.09.44-.18.69-.26a12,12,0,0,1,4.16-.57l0-1.07H26.94Z" transform="translate(-0.27 -3)"/><path class="cls-4" d="M26.76,55.36H28.9c.21-.09.44-.18.69-.26a12,12,0,0,1,4.16-.57l0-1.07H26.94Z" transform="translate(-0.27 -3)"/><polygon class="cls-3" points="24.72 52.36 24.94 50.47 22.28 50.48 22.01 52.37 24.72 52.36"/><polygon class="cls-4" points="24.72 52.36 24.94 50.47 22.28 50.48 22.01 52.37 24.72 52.36"/><polygon class="cls-3" points="33.53 49.56 33.56 48.48 22.57 48.51 22.41 49.58 33.53 49.56"/><polygon class="cls-4" points="33.53 49.56 33.56 48.48 22.57 48.51 22.41 49.58 33.53 49.56"/><polygon class="cls-3" points="54.61 47.7 57.31 47.7 55.64 40.41 53.15 40.42 54.61 47.7"/><polygon class="cls-8" points="54.61 47.7 57.31 47.7 55.64 40.41 53.15 40.42 54.61 47.7"/><path class="cls-5" d="M47.51,49.33a5.38,5.38,0,0,0-2-.64l-.8-.08.2,2.12h3.28A1.73,1.73,0,0,0,47.51,49.33Z" transform="translate(-0.27 -3)"/><path class="cls-3" d="M46.06,47.77a6.41,6.41,0,0,1,2.76,1,3.21,3.21,0,0,1,1,1.91H53l-1.31-7.28H48.41c0,1.45-1.62,2.63-3.89,2.83l.13,1.34A12.66,12.66,0,0,1,46.06,47.77Z" transform="translate(-0.27 -3)"/><path class="cls-8" d="M46.06,47.77a6.41,6.41,0,0,1,2.76,1,3.21,3.21,0,0,1,1,1.91H53l-1.31-7.28H48.41c0,1.45-1.62,2.63-3.89,2.83l.13,1.34A12.66,12.66,0,0,1,46.06,47.77Z" transform="translate(-0.27 -3)"/><path class="cls-5" d="M52.05,45.61l-.39-2.18H48.41a2.55,2.55,0,0,1-1.58,2.19Z" transform="translate(-0.27 -3)"/><polygon class="cls-3" points="58.77 47.69 60.63 47.69 58.71 40.39 56.98 40.4 58.77 47.69"/><polygon class="cls-8" points="58.77 47.69 60.63 47.69 58.71 40.39 56.98 40.4 58.77 47.69"/><path class="cls-3" d="M38.15,49.13a3.92,3.92,0,0,0-2.78-.06l0,1.68h3.49C38.82,50.2,38.94,49.49,38.15,49.13Z" transform="translate(-0.27 -3)"/><path class="cls-9" d="M38.15,49.13a3.92,3.92,0,0,0-2.78-.06l0,1.68h3.49C38.82,50.2,38.94,49.49,38.15,49.13Z" transform="translate(-0.27 -3)"/><path class="cls-3" d="M38.42,45.41c.89.41,1.18,1.1,2,1.55a6.39,6.39,0,0,0,3,.59l-.1-1.26C40.9,46.13,39,45,38.76,43.48l-3.34,0,0,1.55A5.79,5.79,0,0,1,38.42,45.41Z" transform="translate(-0.27 -3)"/><path class="cls-9" d="M38.42,45.41c.89.41,1.18,1.1,2,1.55a6.39,6.39,0,0,0,3,.59l-.1-1.26C40.9,46.13,39,45,38.76,43.48l-3.34,0,0,1.55A5.79,5.79,0,0,1,38.42,45.41Z" transform="translate(-0.27 -3)"/><path class="cls-3" d="M38.59,47.12A2.73,2.73,0,0,0,36.71,46a7.31,7.31,0,0,0-1.31.06l0,1.93a6.34,6.34,0,0,1,3.75.37,2.27,2.27,0,0,1,1.36,2.38h3.12l-.17-2.19A7.39,7.39,0,0,1,38.59,47.12Z" transform="translate(-0.27 -3)"/><path class="cls-9" d="M38.59,47.12A2.73,2.73,0,0,0,36.71,46a7.31,7.31,0,0,0-1.31.06l0,1.93a6.34,6.34,0,0,1,3.75.37,2.27,2.27,0,0,1,1.36,2.38h3.12l-.17-2.19A7.39,7.39,0,0,1,38.59,47.12Z" transform="translate(-0.27 -3)"/><path class="cls-3" d="M54.91,40.85a4.47,4.47,0,0,1-2.55-1.79,8.74,8.74,0,0,1-1.25-3.72l-4.36,0c.21,1.05.13,2.48,1.35,3.27s2.88.76,4,1.67a3.42,3.42,0,0,1,1.35,2.3l5.32,0-.4-1.53A12.5,12.5,0,0,1,54.91,40.85Z" transform="translate(-0.27 -3)"/><path class="cls-8" d="M54.91,40.85a4.47,4.47,0,0,1-2.55-1.79,8.74,8.74,0,0,1-1.25-3.72l-4.36,0c.21,1.05.13,2.48,1.35,3.27s2.88.76,4,1.67a3.42,3.42,0,0,1,1.35,2.3l5.32,0-.4-1.53A12.5,12.5,0,0,1,54.91,40.85Z" transform="translate(-0.27 -3)"/><path class="cls-6" d="M47.39,35.37a2.51,2.51,0,0,0,1.19,2.22c.83.47,1.85.19,2.79.26l.37,0a11.82,11.82,0,0,1-.63-2.56Z" transform="translate(-0.27 -3)"/><path class="cls-7" d="M47.39,35.37a2.51,2.51,0,0,0,1.19,2.22c.83.47,1.85.19,2.79.26l.37,0a11.82,11.82,0,0,1-.63-2.56Z" transform="translate(-0.27 -3)"/><path class="cls-6" d="M53.07,39.86a.65.65,0,0,1-.36-.29c-.55-1-2-.66-3.16-.72a4.26,4.26,0,0,1-1.87-.55,2.4,2.4,0,0,0,.42.34c1.19.77,2.88.76,4,1.67a3.42,3.42,0,0,1,1.35,2.3l5.32,0-.4-1.53a12.5,12.5,0,0,1-3.45-.21A4.44,4.44,0,0,1,53.07,39.86Z" transform="translate(-0.27 -3)"/><path class="cls-7" d="M53.07,39.86a.65.65,0,0,1-.36-.29c-.55-1-2-.66-3.16-.72a4.26,4.26,0,0,1-1.87-.55,2.4,2.4,0,0,0,.42.34c1.19.77,2.88.76,4,1.67a3.42,3.42,0,0,1,1.35,2.3l5.32,0-.4-1.53a12.5,12.5,0,0,1-3.45-.21A4.44,4.44,0,0,1,53.07,39.86Z" transform="translate(-0.27 -3)"/><path class="cls-3" d="M53.45,38.4a3,3,0,0,0,2,1.58,12.82,12.82,0,0,0,2.62.09l-1.26-4.78-4.35,0A8.45,8.45,0,0,0,53.45,38.4Z" transform="translate(-0.27 -3)"/><path class="cls-8" d="M53.45,38.4a3,3,0,0,0,2,1.58,12.82,12.82,0,0,0,2.62.09l-1.26-4.78-4.35,0A8.45,8.45,0,0,0,53.45,38.4Z" transform="translate(-0.27 -3)"/><path class="cls-3" d="M48.25,42.64l3.66,0A2.46,2.46,0,0,0,50,40.38c-1.5-.43-2.83-.74-3.66-1.76s-.77-2.15-1-3.24H43.5l.44,4.7C46,40.27,47.72,41.31,48.25,42.64Z" transform="translate(-0.27 -3)"/><path class="cls-8" d="M48.25,42.64l3.66,0A2.46,2.46,0,0,0,50,40.38c-1.5-.43-2.83-.74-3.66-1.76s-.77-2.15-1-3.24H43.5l.44,4.7C46,40.27,47.72,41.31,48.25,42.64Z" transform="translate(-0.27 -3)"/><path class="cls-3" d="M38.78,42.69c.31-1.36,1.93-2.43,4-2.6l-.37-4.69-6.9.06-.06,7.24Z" transform="translate(-0.27 -3)"/><path class="cls-9" d="M38.78,42.69c.31-1.36,1.93-2.43,4-2.6l-.37-4.69-6.9.06-.06,7.24Z" transform="translate(-0.27 -3)"/><path class="cls-10" d="M40.16,43.25c0-1.21,1.39-2.2,3.22-2.21s3.44,1,3.59,2.18-1.28,2.21-3.21,2.22S40.22,44.47,40.16,43.25Z" transform="translate(-0.27 -3)"/><polygon class="cls-6" points="35.93 53.08 42.88 53.07 43.02 55.09 35.93 55.09 35.93 53.08"/><polygon class="cls-7" points="35.93 53.08 42.88 53.07 43.02 55.09 35.93 55.09 35.93 53.08"/><path class="cls-5" d="M41.62,43.1c0-.61.68-1.11,1.61-1.11h.46c.93,0,1.73.48,1.8,1.09l0,.3c.07.61-.65,1.1-1.61,1.11h-.47c-.95,0-1.76-.49-1.8-1.09Z" transform="translate(-0.27 -3)"/><path class="cls-11" d="M41.27,38.93c-.13-.26-.78-.41-1.28-.56-1.08-.35-.28-1-1.05-1.44-.37-.25-1.8-.19-2,.16-.5.6,1,1,.82,1.54s-1.31,1-1.54,1.51.15,1.19,1.14,1c.66-.11.95-.65,1.41-.93s1.51-.38,2.09-.75C41.24,39.26,41.34,39.08,41.27,38.93Z" transform="translate(-0.27 -3)"/><path class="cls-11" d="M70.59,48.31c-.53-.53-3.73-.55-2.53-1.39.49-.34,1-.24.89-.87s-.57-.61-1.43-.65a4.26,4.26,0,0,1-1.07-.09c-.43-.15-.49-.4-.85-.61a4,4,0,0,0-2.55-.37c-.75.14-1,.47-.3.9s1.72.31,1.71,1c0,.48-.77.49-1,.87a1.59,1.59,0,0,0-.15,1.36c.16.26.36.21.54.41s.18.52.39.74a1.32,1.32,0,0,0,1.68.1c.31-.33-.21-1.13.85-.82.25.07.33.31.55.4a3.26,3.26,0,0,0,1,.16,5.28,5.28,0,0,0,2.17-.21S71.35,49.07,70.59,48.31Z" transform="translate(-0.27 -3)"/><path class="cls-6" d="M21.32,39a10.25,10.25,0,0,0-1.13,1.84c-.28.65-.36,1.33-.66,2h3L23.5,37A6.5,6.5,0,0,0,21.32,39Z" transform="translate(-0.27 -3)"/><path class="cls-7" d="M21.32,39a10.25,10.25,0,0,0-1.13,1.84c-.28.65-.36,1.33-.66,2h3L23.5,37A6.5,6.5,0,0,0,21.32,39Z" transform="translate(-0.27 -3)"/><path class="cls-3" d="M11.63,40.89a4.9,4.9,0,0,0-1.7,1.94l8.06,0c.5-.86.58-1.79,1.05-2.65l.05-.08C17,39.4,13.56,39.56,11.63,40.89Z" transform="translate(-0.27 -3)"/><path class="cls-8" d="M11.63,40.89a4.9,4.9,0,0,0-1.7,1.94l8.06,0c.5-.86.58-1.79,1.05-2.65l.05-.08C17,39.4,13.56,39.56,11.63,40.89Z" transform="translate(-0.27 -3)"/><path class="cls-3" d="M13,39.22a12.14,12.14,0,0,1,2.69-.48l.8-3.14-2.46,0Z" transform="translate(-0.27 -3)"/><path class="cls-8" d="M13,39.22a12.14,12.14,0,0,1,2.69-.48l.8-3.14-2.46,0Z" transform="translate(-0.27 -3)"/><path class="cls-3" d="M8.42,42.83A6.32,6.32,0,0,1,11.08,40l.1-.05,1.34-4.35-2.11,0L8,42.84Z" transform="translate(-0.27 -3)"/><path class="cls-8" d="M8.42,42.83A6.32,6.32,0,0,1,11.08,40l.1-.05,1.34-4.35-2.11,0L8,42.84Z" transform="translate(-0.27 -3)"/><path class="cls-3" d="M17.26,38.72a10.66,10.66,0,0,1,2.43.38,10.84,10.84,0,0,1,.81-1,8.17,8.17,0,0,1,2-1.71,1.43,1.43,0,0,1-.53-.79l-4,0Z" transform="translate(-0.27 -3)"/><path class="cls-8" d="M17.26,38.72a10.66,10.66,0,0,1,2.43.38,10.84,10.84,0,0,1,.81-1,8.17,8.17,0,0,1,2-1.71,1.43,1.43,0,0,1-.53-.79l-4,0Z" transform="translate(-0.27 -3)"/><path class="cls-3" d="M12,30.9l-1.33,4H13a5.76,5.76,0,0,1,3-3.21,5.45,5.45,0,0,1,3-.55A5.36,5.36,0,0,0,18.55,30,13.63,13.63,0,0,1,12,30.9Z" transform="translate(-0.27 -3)"/><path class="cls-8" d="M12,30.9l-1.33,4H13a5.76,5.76,0,0,1,3-3.21,5.45,5.45,0,0,1,3-.55A5.36,5.36,0,0,0,18.55,30,13.63,13.63,0,0,1,12,30.9Z" transform="translate(-0.27 -3)"/><path class="cls-3" d="M18,29.2c-.14-.16-.28-.32-.43-.47a5.4,5.4,0,0,0-1.84-1.1l-2.66,0-.75,2.23A10.54,10.54,0,0,0,18,29.2Z" transform="translate(-0.27 -3)"/><path class="cls-8" d="M18,29.2c-.14-.16-.28-.32-.43-.47a5.4,5.4,0,0,0-1.84-1.1l-2.66,0-.75,2.23A10.54,10.54,0,0,0,18,29.2Z" transform="translate(-0.27 -3)"/><path class="cls-3" d="M19.2,32.36c-.54-.7-2.17-.27-3,.26a4.3,4.3,0,0,0-1.83,2.21l4.5,0a5.67,5.67,0,0,0,.36-2.39S19.21,32.37,19.2,32.36Z" transform="translate(-0.27 -3)"/><path class="cls-8" d="M19.2,32.36c-.54-.7-2.17-.27-3,.26a4.3,4.3,0,0,0-1.83,2.21l4.5,0a5.67,5.67,0,0,0,.36-2.39S19.21,32.37,19.2,32.36Z" transform="translate(-0.27 -3)"/><path class="cls-6" d="M20.55,32.05a6.11,6.11,0,0,1-.29,2.73l1.83,0a2.81,2.81,0,0,1,2-1.47L24.3,32Z" transform="translate(-0.27 -3)"/><path class="cls-7" d="M20.55,32.05a6.11,6.11,0,0,1-.29,2.73l1.83,0a2.81,2.81,0,0,1,2-1.47L24.3,32Z" transform="translate(-0.27 -3)"/><path class="cls-3" d="M18.76,28.14a5.17,5.17,0,0,1,.42.51l5.68-.06L25,27.53l-6.86.08A4.22,4.22,0,0,1,18.76,28.14Z" transform="translate(-0.27 -3)"/><path class="cls-8" d="M18.76,28.14a5.17,5.17,0,0,1,.42.51l5.68-.06L25,27.53l-6.86.08A4.22,4.22,0,0,1,18.76,28.14Z" transform="translate(-0.27 -3)"/><path class="cls-3" d="M19.85,29.73a6.52,6.52,0,0,1,.51,1.33l4.11,0,.21-1.34Z" transform="translate(-0.27 -3)"/><path class="cls-8" d="M19.85,29.73a6.52,6.52,0,0,1,.51,1.33l4.11,0,.21-1.34Z" transform="translate(-0.27 -3)"/><path class="cls-12" d="M23,35.08A1.71,1.71,0,0,1,24.75,34c.84,0,1.45.48,1.37,1.09a1.63,1.63,0,0,1-1.7,1.1C23.55,36.17,22.94,35.68,23,35.08Z" transform="translate(-0.27 -3)"/><path class="cls-11" d="M44.37,30.85a4,4,0,0,0,2.33.81,2.34,2.34,0,0,1,1.91,1.1,2.89,2.89,0,0,1,0,1.79h.71a3.08,3.08,0,0,0-.22-2.1c-.46-.85-1.67-1.19-2.74-1.33-.7-.08-1.45-.29-1.71-.84a.87.87,0,0,1,.09-.78.94.94,0,0,0,.57.45,2.24,2.24,0,0,0,.58,0c.33,0,.44,0,.46.27,0,.11.13.22.27.24,1.71.22,1.85-1.39.66-2.11a2.09,2.09,0,0,0-2-.06.7.7,0,0,0-.48.28,2.37,2.37,0,0,0-.64.67A1.26,1.26,0,0,0,44.37,30.85Z" transform="translate(-0.27 -3)"/><path class="cls-11" d="M11.16,56.34a9.48,9.48,0,0,0,.36,1.44,1.83,1.83,0,0,1,.13,1.15h.83a2.11,2.11,0,0,0-.09-1.11,14.48,14.48,0,0,1-.5-2.12,18.64,18.64,0,0,1,0-4,3.6,3.6,0,0,1,1.9-3.28c1.63-.88,4.12-.72,5.94-.71,3.12,0,6-.46,7.72-2.27,1.88-2.09,1.42-4.51,2.15-6.74.31-1,1-1.83,1.2-2.78a2.79,2.79,0,0,0-.49-2.5c-.47-.62-1.55-.91-1.76-1.62a1.76,1.76,0,0,1,.22-1.36,3.29,3.29,0,0,1,1.12-.82,5.39,5.39,0,0,0,2.25-2.15h-.58a4.29,4.29,0,0,1-.56.77c-.74.81-2.18,1.16-2.78,2.07a1.75,1.75,0,0,0,.43,2.48,3.62,3.62,0,0,1,1.43,1.36,2.77,2.77,0,0,1,0,2.17c-.24.65-.66,1.26-.93,1.91a8.51,8.51,0,0,0-.54,2.11c-.31,2-.45,4.47-3.13,6-1.93,1.05-4.47,1-6.76.94s-5.06.17-6.43,1.64S11.1,52,11,53.44A14.81,14.81,0,0,0,11.16,56.34Z" transform="translate(-0.27 -3)"/><path class="cls-3" d="M14,57.54l-.61.36a2.32,2.32,0,0,1,.07.83H20l.36-2.25A11.8,11.8,0,0,0,14,57.54Z" transform="translate(-0.27 -3)"/><path class="cls-8" d="M14,57.54l-.61.36a2.32,2.32,0,0,1,.07.83H20l.36-2.25A11.8,11.8,0,0,0,14,57.54Z" transform="translate(-0.27 -3)"/><path class="cls-3" d="M14.6,53.59a14.42,14.42,0,0,1-1.88-.32,12.51,12.51,0,0,0,.1,2.29c.06.41.15.81.25,1.21h0a15.06,15.06,0,0,1,7.42-1.28l.29-1.77C18.72,53.71,16.61,53.79,14.6,53.59Z" transform="translate(-0.27 -3)"/><path class="cls-8" d="M14.6,53.59a14.42,14.42,0,0,1-1.88-.32,12.51,12.51,0,0,0,.1,2.29c.06.41.15.81.25,1.21h0a15.06,15.06,0,0,1,7.42-1.28l.29-1.77C18.72,53.71,16.61,53.79,14.6,53.59Z" transform="translate(-0.27 -3)"/><path class="cls-3" d="M12.77,52.14a11.14,11.14,0,0,0,2.72.52c1.78.14,3.64.08,5.46.08l.2-1.23-8.33,0s0,.1,0,.14S12.79,52,12.77,52.14Z" transform="translate(-0.27 -3)"/><path class="cls-8" d="M12.77,52.14a11.14,11.14,0,0,0,2.72.52c1.78.14,3.64.08,5.46.08l.2-1.23-8.33,0s0,.1,0,.14S12.79,52,12.77,52.14Z" transform="translate(-0.27 -3)"/><path class="cls-3" d="M10.22,56.47a14.59,14.59,0,0,1-.12-3,1.55,1.55,0,0,0,0-.22,4.09,4.09,0,0,0-2.3,1.71,7.82,7.82,0,0,0-1.19,3.8h4.11a2.09,2.09,0,0,0-.16-.81A8.27,8.27,0,0,1,10.22,56.47Z" transform="translate(-0.27 -3)"/><path class="cls-8" d="M10.22,56.47a14.59,14.59,0,0,1-.12-3,1.55,1.55,0,0,0,0-.22,4.09,4.09,0,0,0-2.3,1.71,7.82,7.82,0,0,0-1.19,3.8h4.11a2.09,2.09,0,0,0-.16-.81A8.27,8.27,0,0,1,10.22,56.47Z" transform="translate(-0.27 -3)"/><path class="cls-3" d="M4.82,58.73a7.51,7.51,0,0,1,1.7-4.45,6.39,6.39,0,0,1,3.59-2.06h.06c0-.22,0-.45.06-.68H5.07L2.65,58.73Z" transform="translate(-0.27 -3)"/><path class="cls-8" d="M4.82,58.73a7.51,7.51,0,0,1,1.7-4.45,6.39,6.39,0,0,1,3.59-2.06h.06c0-.22,0-.45.06-.68H5.07L2.65,58.73Z" transform="translate(-0.27 -3)"/><path class="cls-3" d="M18.29,49a2,2,0,0,1,.12,1.77h2.86l.42-2.61c-.67,0-1.34,0-2,0s-1.74-.06-2.69,0A2.41,2.41,0,0,1,18.29,49Z" transform="translate(-0.27 -3)"/><path class="cls-8" d="M18.29,49a2,2,0,0,1,.12,1.77h2.86l.42-2.61c-.67,0-1.34,0-2,0s-1.74-.06-2.69,0A2.41,2.41,0,0,1,18.29,49Z" transform="translate(-0.27 -3)"/><path class="cls-6" d="M16.78,49.52c-.33-.44-1.23-.6-1.94-.76a.92.92,0,0,1-.26-.11l-.24.11a2.68,2.68,0,0,0-1.43,2h3.88A1.3,1.3,0,0,0,16.78,49.52Z" transform="translate(-0.27 -3)"/><path class="cls-7" d="M16.78,49.52c-.33-.44-1.23-.6-1.94-.76a.92.92,0,0,1-.26-.11l-.24.11a2.68,2.68,0,0,0-1.43,2h3.88A1.3,1.3,0,0,0,16.78,49.52Z" transform="translate(-0.27 -3)"/><path class="cls-3" d="M18.75,46.72h.07c1,0,2.07,0,3.11,0l.51-3.12H19.37Z" transform="translate(-0.27 -3)"/><path class="cls-8" d="M18.75,46.72h.07c1,0,2.07,0,3.11,0l.51-3.12H19.37Z" transform="translate(-0.27 -3)"/><path class="cls-6" d="M11.25,46.82a10,10,0,0,0-3.31-.16,8.09,8.09,0,0,0-1.32.27L5.31,50.82h5.06a4.39,4.39,0,0,1,1.12-2.06,5.12,5.12,0,0,1,1.6-1.12C12.88,47.21,11.82,46.94,11.25,46.82Z" transform="translate(-0.27 -3)"/><path class="cls-7" d="M11.25,46.82a10,10,0,0,0-3.31-.16,8.09,8.09,0,0,0-1.32.27L5.31,50.82h5.06a4.39,4.39,0,0,1,1.12-2.06,5.12,5.12,0,0,1,1.6-1.12C12.88,47.21,11.82,46.94,11.25,46.82Z" transform="translate(-0.27 -3)"/><path class="cls-3" d="M8.6,45.65c1.79-.1,5.3.29,6.05,1.46a13.39,13.39,0,0,1,1.93-.31l.72-3.22-9.57.05L7,45.86A10.87,10.87,0,0,1,8.6,45.65Z" transform="translate(-0.27 -3)"/><path class="cls-8" d="M8.6,45.65c1.79-.1,5.3.29,6.05,1.46a13.39,13.39,0,0,1,1.93-.31l.72-3.22-9.57.05L7,45.86A10.87,10.87,0,0,1,8.6,45.65Z" transform="translate(-0.27 -3)"/><polygon class="cls-3" points="31.14 46.76 31.09 47.76 33.58 47.75 33.6 46.75 31.14 46.76"/><polygon class="cls-4" points="31.14 46.76 31.09 47.76 33.58 47.75 33.6 46.75 31.14 46.76"/><polygon class="cls-3" points="31.26 44.6 31.19 45.9 33.63 45.89 33.66 44.59 31.26 44.6"/><polygon class="cls-4" points="31.26 44.6 31.19 45.9 33.63 45.89 33.66 44.59 31.26 44.6"/><polygon class="cls-3" points="31.36 42.54 31.3 43.8 33.68 43.8 33.71 42.53 31.36 42.54"/><polygon class="cls-4" points="31.36 42.54 31.3 43.8 33.68 43.8 33.71 42.53 31.36 42.54"/><polygon class="cls-3" points="33.74 41.57 33.76 40.51 31.47 40.52 31.41 41.58 33.74 41.57"/><polygon class="cls-4" points="33.74 41.57 33.76 40.51 31.47 40.52 31.41 41.58 33.74 41.57"/><path class="cls-3" d="M27.37,50.77H29.9l.49-7.24h-1a6,6,0,0,1-1.25,2.15,3.85,3.85,0,0,1-.35.35Z" transform="translate(-0.27 -3)"/><path class="cls-4" d="M27.37,50.77H29.9l.49-7.24h-1a6,6,0,0,1-1.25,2.15,3.85,3.85,0,0,1-.35.35Z" transform="translate(-0.27 -3)"/><polygon class="cls-3" points="22.81 46.82 22.67 47.78 25.7 47.77 25.81 46.81 22.81 46.82"/><polygon class="cls-4" points="22.81 46.82 22.67 47.78 25.7 47.77 25.81 46.81 22.81 46.82"/><path class="cls-3" d="M26.17,48.91,26.38,47a8.07,8.07,0,0,1-1.43.59,15,15,0,0,1-1.61.36l-.14.93Z" transform="translate(-0.27 -3)"/><path class="cls-4" d="M26.17,48.91,26.38,47a8.07,8.07,0,0,1-1.43.59,15,15,0,0,1-1.61.36l-.14.93Z" transform="translate(-0.27 -3)"/><path class="cls-3" d="M24.92,45.93a4.76,4.76,0,0,0,2.18-2.39H24l-.41,2.89A5.3,5.3,0,0,0,24.92,45.93Z" transform="translate(-0.27 -3)"/><path class="cls-4" d="M24.92,45.93a4.76,4.76,0,0,0,2.18-2.39H24l-.41,2.89A5.3,5.3,0,0,0,24.92,45.93Z" transform="translate(-0.27 -3)"/><path class="cls-3" d="M31.58,35.89c-.23,1-.91,1.93-1.22,2.92-.4,1.3-.44,2.62-.73,3.92l4.42,0,.19-7.24h-2.6A2.7,2.7,0,0,1,31.58,35.89Z" transform="translate(-0.27 -3)"/><path class="cls-4" d="M31.58,35.89c-.23,1-.91,1.93-1.22,2.92-.4,1.3-.44,2.62-.73,3.92l4.42,0,.19-7.24h-2.6A2.7,2.7,0,0,1,31.58,35.89Z" transform="translate(-0.27 -3)"/><path class="cls-3" d="M27.82,40.34a8.8,8.8,0,0,1,.6-2.26c.27-.64.7-1.26.94-1.91a3.9,3.9,0,0,0,.18-.67l-2.53,0a2.86,2.86,0,0,1-2.07,1.3l-.85,5.94,3.29,0C27.6,41.92,27.69,41.09,27.82,40.34Z" transform="translate(-0.27 -3)"/><path class="cls-4" d="M27.82,40.34a8.8,8.8,0,0,1,.6-2.26c.27-.64.7-1.26.94-1.91a3.9,3.9,0,0,0,.18-.67l-2.53,0a2.86,2.86,0,0,1-2.07,1.3l-.85,5.94,3.29,0C27.6,41.92,27.69,41.09,27.82,40.34Z" transform="translate(-0.27 -3)"/><path class="cls-6" d="M30.23,30.05c-.75.42-1.18.87-1,1.58.08.27.35.41.62.58a4.47,4.47,0,0,1,1.09.92,3.11,3.11,0,0,1,.66,1.56l2.62,0,.18-7.25-1.57,0A6,6,0,0,1,30.23,30.05Z" transform="translate(-0.27 -3)"/><path class="cls-7" d="M30.23,30.05c-.75.42-1.18.87-1,1.58.08.27.35.41.62.58a4.47,4.47,0,0,1,1.09.92,3.11,3.11,0,0,1,.66,1.56l2.62,0,.18-7.25-1.57,0A6,6,0,0,1,30.23,30.05Z" transform="translate(-0.27 -3)"/><path class="cls-3" d="M27.17,34.72h2.37a1.66,1.66,0,0,0-.14-.43,3.31,3.31,0,0,0-1.26-1.13A2.16,2.16,0,0,1,27.69,30c.62-.93,2-1.25,2.79-2.07a4.91,4.91,0,0,0,.39-.51l-4.59.06-.83,5.73A1.86,1.86,0,0,1,27.17,34.72Z" transform="translate(-0.27 -3)"/><path class="cls-4" d="M27.17,34.72h2.37a1.66,1.66,0,0,0-.14-.43,3.31,3.31,0,0,0-1.26-1.13A2.16,2.16,0,0,1,27.69,30c.62-.93,2-1.25,2.79-2.07a4.91,4.91,0,0,0,.39-.51l-4.59.06-.83,5.73A1.86,1.86,0,0,1,27.17,34.72Z" transform="translate(-0.27 -3)"/><rect class="cls-13" y="56.79" width="78.73" height="3.95"/><path class="cls-14" d="M16.63,37.61a1,1,0,1,1-1-1A1,1,0,0,1,16.63,37.61Z" transform="translate(-0.27 -3)"/><path class="cls-14" d="M15.62,39.25a1.64,1.64,0,1,1,1.64-1.64A1.65,1.65,0,0,1,15.62,39.25Zm0-2.84a1.2,1.2,0,1,0,1.2,1.2A1.2,1.2,0,0,0,15.62,36.41Z" transform="translate(-0.27 -3)"/><path class="cls-15" d="M28.64,16c0,10.32-13,21.58-13,21.58S2.6,25.23,2.6,16a13,13,0,0,1,26,0Z" transform="translate(-0.27 -3)"/><path class="cls-16" d="M27.19,16.5c0,9.17-11.57,19.17-11.57,19.17S4.06,24.68,4.06,16.5a11.57,11.57,0,1,1,23.13,0Z" transform="translate(-0.27 -3)"/><path class="cls-17" d="M25.53,16.27a9.91,9.91,0,1,1-9.91-9.91A9.91,9.91,0,0,1,25.53,16.27Z" transform="translate(-0.27 -3)"/><path class="cls-18" d="M16.89,24.13a9.9,9.9,0,0,1-9-14A9.91,9.91,0,1,0,24.62,20.42,9.88,9.88,0,0,1,16.89,24.13Z" transform="translate(-0.27 -3)"/><path class="cls-19" d="M4.84,16.57a10.8,10.8,0,0,1,10.57-11,10.22,10.22,0,0,1,5.7,1.74,10.29,10.29,0,0,0-7.22-3,10.81,10.81,0,0,0-10.57,11,11.14,11.14,0,0,0,4.87,9.29A11.21,11.21,0,0,1,4.84,16.57Z" transform="translate(-0.27 -3)"/><path class="cls-16" d="M15.58,22.59a5.92,5.92,0,1,1,5.91-5.92A5.93,5.93,0,0,1,15.58,22.59Zm0-11.46a5.55,5.55,0,1,0,5.54,5.54A5.55,5.55,0,0,0,15.58,11.13Z" transform="translate(-0.27 -3)"/><rect class="cls-16" x="18.74" y="12.8" width="1.04" height="0.37" transform="translate(-3.8 14.42) rotate(-45)"/><rect class="cls-16" x="11.37" y="20.16" width="1.04" height="0.37" transform="translate(-11.16 11.33) rotate(-44.9)"/><rect class="cls-16" x="19.08" y="19.83" width="0.37" height="1.04" transform="translate(-9.01 16.58) rotate(-45)"/><rect class="cls-16" x="11.71" y="12.46" width="0.37" height="1.04" transform="translate(-5.96 9.2) rotate(-44.96)"/><polygon class="cls-16" points="15.22 20.28 13.81 14.99 16.81 14.99 15.22 20.28"/><path class="cls-16" d="M17.33,15.54h-3.5l1.64-6.17Zm-3-.38h2.49l-1.32-4.4Z" transform="translate(-0.27 -3)"/><polygon class="cls-16" points="8.7 13.58 13.99 12.18 13.99 15.17 8.7 13.58"/><polygon class="cls-16" points="21.92 13.58 16.63 15.17 16.63 12.18 21.92 13.58"/><path class="cls-16" d="M17.64,16.61a2.06,2.06,0,1,1-2.06-2.06A2.06,2.06,0,0,1,17.64,16.61Z" transform="translate(-0.27 -3)"/><path class="cls-17" d="M15.58,18.86a2.25,2.25,0,1,1,2.25-2.25A2.25,2.25,0,0,1,15.58,18.86Zm0-4.12a1.87,1.87,0,1,0,1.87,1.87A1.87,1.87,0,0,0,15.58,14.74Z" transform="translate(-0.27 -3)"/><path class="cls-16" d="M22.54,16.08a.08.08,0,0,1,0-.06.09.09,0,0,1,.06,0h.66a.11.11,0,0,1,.09.09.09.09,0,0,1,0,.06l-.06,0h-.57v.19H23a.09.09,0,0,1,.06,0s0,0,0,.06a.07.07,0,0,1,0,.06l-.06,0h-.25V17h.57l.06,0a.09.09,0,0,1,0,.06.11.11,0,0,1-.09.09h-.66a.09.09,0,0,1-.06,0,.08.08,0,0,1,0-.06Z" transform="translate(-0.27 -3)"/><path class="cls-16" d="M15.18,8.05v.79a.14.14,0,0,1,0,.06l-.06,0a.06.06,0,0,1-.06,0,.09.09,0,0,1,0-.06v-1a.09.09,0,0,1,0-.06l.06,0,.06,0s0,0,0,0l.68.83v-.8a.07.07,0,0,1,0-.06l.06,0,.06,0a.09.09,0,0,1,0,.06v1a.09.09,0,0,1,0,.06l-.06,0-.06,0h0Z" transform="translate(-0.27 -3)"/><path class="cls-16" d="M15,24.4a.14.14,0,0,1,0-.06l.06,0,.06,0a.09.09,0,0,1,0,.06.24.24,0,0,0,.25.25.21.21,0,0,0,.17-.07.24.24,0,0,0,0-.36.24.24,0,0,0-.17-.07.27.27,0,0,1-.19-.08.25.25,0,0,1-.08-.18.26.26,0,0,1,.08-.19.27.27,0,0,1,.19-.08.26.26,0,0,1,.17.07h0a.07.07,0,0,1,0,.06.09.09,0,0,1,0,.06.08.08,0,0,1-.06,0l-.06,0h0l-.06,0a.1.1,0,0,0-.1.1.11.11,0,0,0,0,.07l.07,0a.37.37,0,0,1,.29.13.41.41,0,0,1,.13.29.43.43,0,0,1-.13.3.4.4,0,0,1-.29.12.41.41,0,0,1-.3-.12A.42.42,0,0,1,15,24.4Z" transform="translate(-0.27 -3)"/><path class="cls-16" d="M7.13,15.81v0a.07.07,0,0,1,0-.06l.06,0,.06,0,0,0,.34.86.25-.49,0,0a.07.07,0,0,1,.12,0l0,0,.25.5.34-.86,0,0,.06,0,.06,0a.09.09,0,0,1,0,.06v0l-.42,1s0,0,0,0a.06.06,0,0,1-.06,0,.05.05,0,0,1,0,0s0,0,0,0L8,16.32l-.26.52a0,0,0,0,1,0,0,.09.09,0,0,1-.06,0,.06.06,0,0,1-.06,0s0,0,0,0Z" transform="translate(-0.27 -3)"/><path class="cls-20" d="M61.71,39.21c0,.36-1.62.66-3.63.66s-3.62-.3-3.62-.66,1.62-.67,3.62-.67S61.71,38.84,61.71,39.21Z" transform="translate(-0.27 -3)"/><path class="cls-21" d="M65.86,29.31l-1.27-.58L61,39.11a.39.39,0,0,0,.66.3l5.47-9.52Z" transform="translate(-0.27 -3)"/><path class="cls-22" d="M61.84,39.1a.37.37,0,0,1-.23-.38L65,28.92l-.41-.19L61,39.11a.39.39,0,0,0,.66.3l.19-.31Z" transform="translate(-0.27 -3)"/><polygon class="cls-23" points="61.45 36.02 65.83 26.41 66.35 26.65 61.45 36.02"/><path class="cls-24" d="M74.59,22.43l-4.07-1.85-1.14-.52-4.07-1.85-2.23,9.57h0c-.1.41,1,1.28,2.56,2s2.94,1,3.18.63h0Z" transform="translate(-0.27 -3)"/><path class="cls-17" d="M73.59,22l-1.2-.55-5.1,8.93a5.18,5.18,0,0,0,.58.13Z" transform="translate(-0.27 -3)"/><path class="cls-25" d="M69.43,29.59l-.59.81h0c-.24.35-1.63.07-3.18-.63s-2.66-1.57-2.56-2h0l2.23-9.57,9.28,4.22-.75,1a27.75,27.75,0,0,1-7.57-3.18s-.22-.13-.34.35l-1.79,6.81a.36.36,0,0,0,.17.44S68,30.25,69.43,29.59Z" transform="translate(-0.27 -3)"/><path class="cls-26" d="M64.17,17.11c-.35.78,2,2.63,5.36,4.14s6.29,2.09,6.64,1.31l.8-1.74L65,15.36Z" transform="translate(-0.27 -3)"/><path class="cls-27" d="M77,20.82c-.36.77-3.33.18-6.65-1.32S64.61,16.14,65,15.36s3.33-.19,6.64,1.32S77.32,20,77,20.82Z" transform="translate(-0.27 -3)"/><path class="cls-28" d="M74.66,19.77c-.22.48-2,.11-4.09-.81s-3.52-2.07-3.3-2.55,2-.12,4.09.81S74.88,19.29,74.66,19.77Z" transform="translate(-0.27 -3)"/><path class="cls-29" d="M67.86,17.34A12.58,12.58,0,0,0,70.57,19a12.6,12.6,0,0,0,3,1,11.91,11.91,0,0,0-2.72-1.62A11.82,11.82,0,0,0,67.86,17.34Z" transform="translate(-0.27 -3)"/><path class="cls-30" d="M74,69.62c0,1.45-14,2.63-31.23,2.63s-31.23-1.18-31.23-2.63S25.52,67,42.77,67,74,68.16,74,69.62Z" transform="translate(-0.27 -3)"/><path class="cls-31" d="M18,50.5c2.81-2.54,5.62-4.94,8.06-7C27.57,42.3,28,42,29.83,42H47.06c1.34,0,1.8.13,3,1.61s3.28,3.83,6,6.89c0,0,11,2.62,13.43,5.91,1.47,2,1.31,8.65,1.31,8.65H15.67c-2.94,0-4.13-2-4.13-4.69,0-.5.55-.61.55-.79v-.74C12.09,55.54,14.61,50.5,18,50.5Z" transform="translate(-0.27 -3)"/><path class="cls-32" d="M67.77,55.83c-2.06-2-7.23-3.73-10.19-4.58H17.34a9.59,9.59,0,0,0-3.1,4.58Z" transform="translate(-0.27 -3)"/><path class="cls-33" d="M35.35,43.65c0-.36-.11-.62-.44-.62h-4.6c-1.67,0-2.06.27-3.45,1.41s-3.06,2.68-4.81,4.09c-.62.5.29,2.07.87,2.07H34.81a.53.53,0,0,0,.54-.53Z" transform="translate(-0.27 -3)"/><path class="cls-34" d="M28.28,45.64a8.28,8.28,0,0,1-.58-1.86c-.25.18-.51.4-.84.66-1.48,1.23-3.06,2.68-4.81,4.09-.62.5.29,2.07.87,2.07H33A11.08,11.08,0,0,1,28.28,45.64Z" transform="translate(-0.27 -3)"/><path class="cls-35" d="M23.78,50.23c-.59,0-1.49-1.56-.87-2.07,1.74-1.4,3.33-2.86,4.81-4.08a12.88,12.88,0,0,1,1.22-.93,5.5,5.5,0,0,0-2.08,1.29c-1.48,1.23-3.06,2.68-4.81,4.09-.62.5.29,2.07.87,2.07H34.81a.53.53,0,0,0,.51-.37Z" transform="translate(-0.27 -3)"/><path class="cls-33" d="M53.77,49.61c-1.93-2.21-3.4-3.9-4.42-5.11S47.78,43,46.56,43H37.17c-.35,0-.51.15-.51.42V50a.65.65,0,0,0,.58.59H53.16S54.05,49.93,53.77,49.61Z" transform="translate(-0.27 -3)"/><path class="cls-34" d="M43.39,48.9c-1.55-1.22-3.75-3.6-4.15-5.87H37.17c-.35,0-.51.15-.51.42V50a.65.65,0,0,0,.58.59h10A8.67,8.67,0,0,1,43.39,48.9Z" transform="translate(-0.27 -3)"/><path class="cls-35" d="M53.56,50.23H37.64a.64.64,0,0,1-.58-.58V43.09s0,0,0-.05c-.27,0-.41.17-.41.41V50a.65.65,0,0,0,.58.59H53.16a3.48,3.48,0,0,0,.4-.37Z" transform="translate(-0.27 -3)"/><path class="cls-31" d="M12.4,56.61a8.86,8.86,0,0,0-.31,2.23v.74c0,.18-.55.29-.55.79,0,2.74,1.19,4.69,4.13,4.69H70.83s.15-6.22-1.18-8.45Z" transform="translate(-0.27 -3)"/><path class="cls-36" d="M71.05,63.1c0-1-.1-3.44-.42-3.44h-2V63.1Z" transform="translate(-0.27 -3)"/><path class="cls-37" d="M31.58,65a6.72,6.72,0,0,0-13.43,0Z" transform="translate(-0.27 -3)"/><path class="cls-38" d="M31,65.05a6.11,6.11,0,1,1-6.1-6.11A6.1,6.1,0,0,1,31,65.05Z" transform="translate(-0.27 -3)"/><path class="cls-39" d="M28,65.05A3.08,3.08,0,1,1,24.87,62,3.08,3.08,0,0,1,28,65.05Z" transform="translate(-0.27 -3)"/><path class="cls-40" d="M27.41,65.05a2.54,2.54,0,1,1-2.54-2.54A2.54,2.54,0,0,1,27.41,65.05Z" transform="translate(-0.27 -3)"/><path class="cls-37" d="M64.73,65A6.72,6.72,0,0,0,51.3,65Z" transform="translate(-0.27 -3)"/><path class="cls-38" d="M64.12,65.05A6.1,6.1,0,1,1,58,58.94,6.1,6.1,0,0,1,64.12,65.05Z" transform="translate(-0.27 -3)"/><path class="cls-39" d="M61.1,65.05A3.08,3.08,0,1,1,58,62,3.08,3.08,0,0,1,61.1,65.05Z" transform="translate(-0.27 -3)"/><path class="cls-40" d="M60.56,65.05A2.54,2.54,0,1,1,58,62.51,2.54,2.54,0,0,1,60.56,65.05Z" transform="translate(-0.27 -3)"/><path class="cls-21" d="M71,61.65h-2.9c-1.28,0-1,2-1,2l-1.48,0c-.46,0-.53,1.4,0,1.4H71C71.7,65.06,71.6,61.65,71,61.65Z" transform="translate(-0.27 -3)"/><path class="cls-41" d="M71,61.75H68.48c-1.1,0-.86,2.3-.86,2.3l-1.28,0a.32.32,0,1,0,0,.64H71C71.58,64.71,71.5,61.75,71,61.75Z" transform="translate(-0.27 -3)"/><path class="cls-42" d="M69.52,64.28a.27.27,0,0,1-.28.27H68a.27.27,0,0,1-.28-.27h0A.27.27,0,0,1,68,64h1.28a.27.27,0,0,1,.28.28Z" transform="translate(-0.27 -3)"/><path class="cls-43" d="M68.93,62.8a.56.56,0,1,1-.55-.55A.56.56,0,0,1,68.93,62.8Z" transform="translate(-0.27 -3)"/><path class="cls-37" d="M17.53,63.48a.38.38,0,0,1-.38.37H15.61a.37.37,0,0,1-.37-.37h0a.37.37,0,0,1,.37-.38h1.54a.38.38,0,0,1,.38.38Z" transform="translate(-0.27 -3)"/><path class="cls-37" d="M50.84,63.76c0,.15-.08.28-.17.28H33.14c-.09,0-.16-.13-.16-.28h0c0-.16.07-.28.16-.28H50.67c.09,0,.17.12.17.28Z" transform="translate(-0.27 -3)"/><path class="cls-44" d="M70.56,60a.09.09,0,0,1-.08.09H69a.08.08,0,0,1-.08-.09h0a.07.07,0,0,1,.08-.08h1.47a.08.08,0,0,1,.08.08Z" transform="translate(-0.27 -3)"/><path class="cls-44" d="M70.69,60.43a.09.09,0,0,1-.09.09H69a.09.09,0,0,1-.09-.09h0a.09.09,0,0,1,.09-.08H70.6a.09.09,0,0,1,.09.08Z" transform="translate(-0.27 -3)"/><path class="cls-44" d="M70.69,60.89a.08.08,0,0,1-.09.08H69a.08.08,0,0,1-.09-.08h0A.09.09,0,0,1,69,60.8H70.6a.09.09,0,0,1,.09.09Z" transform="translate(-0.27 -3)"/><path class="cls-44" d="M70.75,61.38a.08.08,0,0,1-.09.08H69a.08.08,0,0,1-.09-.08h0A.08.08,0,0,1,69,61.3h1.64a.08.08,0,0,1,.09.08Z" transform="translate(-0.27 -3)"/><path class="cls-45" d="M68.76,62.61a.26.26,0,0,1-.26.26.26.26,0,1,1,0-.52A.26.26,0,0,1,68.76,62.61Z" transform="translate(-0.27 -3)"/><path class="cls-45" d="M68.55,61.3c0,.28-.12.3-.44.3H67.7c-.33,0-.32,0-.32-.3V60c0-.28.05-.4.38-.4h.46c.32,0,.33.12.33.4Z" transform="translate(-0.27 -3)"/><path class="cls-46" d="M68.29,61.44h-.42c-.32,0-.32,0-.32-.3V59.83a.67.67,0,0,1,0-.22c-.17,0-.21.16-.21.38V61.3c0,.28,0,.3.32.3h.41c.26,0,.39,0,.42-.18Z" transform="translate(-0.27 -3)"/><path class="cls-43" d="M68.51,60.14a.48.48,0,1,1-.47-.48A.47.47,0,0,1,68.51,60.14Z" transform="translate(-0.27 -3)"/><path class="cls-47" d="M68.37,60a.23.23,0,1,1-.23-.23A.23.23,0,0,1,68.37,60Z" transform="translate(-0.27 -3)"/><path class="cls-38" d="M39.76,52a.54.54,0,0,1-.53.54H36.85a.54.54,0,0,1-.53-.54h0a.53.53,0,0,1,.53-.53h2.38a.53.53,0,0,1,.53.53Z" transform="translate(-0.27 -3)"/></g></g></svg>