<?xml version="1.0" encoding="utf-8"?>
<!-- Generator: Adobe Illustrator 24.1.2, SVG Export Plug-In . SVG Version: 6.00 Build 0)  -->
<svg version="1.1" id="Layer_1" xmlns="http://www.w3.org/2000/svg" xmlns:xlink="http://www.w3.org/1999/xlink" x="0px" y="0px"
	 viewBox="0 0 490.2 490.2" style="enable-background:new 0 0 490.2 490.2;" xml:space="preserve">
<style type="text/css">
	.st0{fill:#3CC676;}
	.st1{fill:#24966A;}
	.st2{fill:#D1E6ED;}
	.st3{fill:#97B8BF;}
	.st4{fill:#00233F;}
	.st5{fill:#F9BDA0;}
	.st6{fill:#E28F71;}
	.st7{fill:#FCCCB9;}
	.st8{fill:#0C537A;}
	.st9{fill:#D6D6D6;}
	.st10{fill:#FFFFFF;}
</style>
<path class="st0" d="M464.5,150.6h-94.9c-3.9-38.9-37.4-70-77.8-70h-86.4c-40.5,0-73.9,31.1-77.8,70H24.9c-14,0-24.9,10.1-24.9,24.1
	v274.7c0,14,10.1,28,24.9,28h440.4c14,0,24.9-14,24.9-28V174.7C490.2,160.7,479.3,150.6,464.5,150.6z M311.2,172.4
	c0,22.6-17.9,40.5-40.5,40.5h-43.6c-22.6,0-40.5-17.9-40.5-40.5v-12.4c0-22.6,17.9-40.5,40.5-40.5h43.6c22.6,0,40.5,17.9,40.5,40.5
	V172.4z"/>
<path class="st1" d="M464.5,166.1h-94.9c-3.9-38.9-37.4-70-77.8-70h-86.4c-40.5,0-73.9,31.1-77.8,70H24.9c-14,0-24.9,14-24.9,28
	v255.2c0,14,10.1,28,24.9,28h440.4c14,0,24.9-14,24.9-28V194.1C490.2,180.1,479.3,166.1,464.5,166.1z M311.2,172.4
	c0,22.6-17.9,40.5-40.5,40.5h-43.6c-22.6,0-40.5-17.9-40.5-40.5v-12.4c0-22.6,17.9-40.5,40.5-40.5h43.6c22.6,0,40.5,17.9,40.5,40.5
	V172.4z"/>
<path class="st2" d="M459.1,425.2c0,11.7-9.3,21-21,21H52.1c-11.7,0-21-9.3-21-21V241.6c0-11.7,9.3-21,21-21h385.2
	c11.7,0,21,9.3,21,21v183.6H459.1z"/>
<path class="st0" d="M295.7,150.6V62.6c0-27.2-19.5-49.8-46.7-49.8s-46.7,22.6-46.7,49.8v87.9H295.7z"/>
<path class="st1" d="M295.7,150.6V62.6c0-27.2-21-49.8-48.2-49.8s-45.1,22.6-45.1,49.8"/>
<rect x="62.2" y="243.9" class="st3" width="179" height="171.2"/>
<path class="st4" d="M186.7,284.4c0,16.3-13.2,29.6-29.6,29.6h-18.7c-16.3,0-27.2-15.6-27.2-31.9l0,0c0-16.3,10.9-30.3,27.2-30.3
	h18.7c16.3,0,29.6,13.2,29.6,29.6L186.7,284.4L186.7,284.4z"/>
<rect x="124.5" y="329.5" class="st5" width="46.7" height="38.9"/>
<polygon class="st6" points="171.2,368.4 149.4,368.4 124.5,329.5 171.2,329.5 "/>
<path class="st7" d="M186,294.5c0,28.8-17.9,55.2-36.6,55.2c-18.7,0-36.6-26.5-36.6-55.2s17.9-33.5,36.6-33.5S186,265.7,186,294.5z"
	/>
<path class="st5" d="M149.4,261.1c18.7,0,36.6,4.7,36.6,33.5s-17.9,55.2-36.6,55.2"/>
<path class="st4" d="M160.3,259.5c0,3.9-3.1,7.8-7,7.8h-8.6c-3.9,0-7-3.9-7-7.8l0,0c0-3.9,3.1-7.8,7-7.8h8.6
	C157.2,251.7,160.3,255.6,160.3,259.5L160.3,259.5z"/>
<polygon class="st8" points="124.5,356.8 62.2,379.3 62.2,430.7 147.1,430.7 "/>
<polygon class="st4" points="122.9,356.8 70.8,387.1 62.2,430.7 147.1,430.7 "/>
<polygon class="st9" points="123.7,352.1 108.9,358.3 119.1,386.3 147.8,429.1 147.8,368.4 "/>
<polygon class="st10" points="123.7,352.1 148.6,368.4 119.1,385.6 "/>
<polygon class="st8" points="175.9,356.8 241.2,379.3 241.2,430.7 151.7,430.7 "/>
<polygon class="st4" points="175.1,356.8 227.2,387.1 241.2,430.7 151.7,430.7 "/>
<polygon class="st9" points="176.6,352.1 191.4,358.3 182.1,386.3 154.1,430.7 155.6,368.4 "/>
<polygon class="st10" points="176.6,352.1 150.2,368.4 182.1,386.3 "/>
<polygon class="st8" points="141.6,372.3 145.5,377.8 140.8,422.1 147.1,430.7 149.4,430.7 149.4,368.4 "/>
<polygon class="st4" points="157.2,372.3 154.1,377.8 159.5,422.1 153.3,430.7 149.4,430.7 149.4,368.4 "/>
<path class="st3" d="M262.2,65c-4.7,7.8-14.8,10.1-22.6,4.7c-7.8-4.7-10.1-14.8-4.7-22.6c4.7-7.8,14.8-10.1,22.6-4.7
	C265.3,47.1,267.7,57.2,262.2,65z"/>
<g>
	<path class="st3" d="M433.4,255.6c0,3.1-3.1,3.9-7,3.9H279.3c-3.9,0-7-0.8-7-3.9l0,0c0-3.1,3.1-3.9,7-3.9h147.1
		C430.3,251.7,433.4,252.5,433.4,255.6L433.4,255.6z"/>
	<path class="st3" d="M433.4,294.5c0,3.1-3.1,3.9-7,3.9H279.3c-3.9,0-7-0.8-7-3.9l0,0c0-3.1,3.1-3.9,7-3.9h147.1
		C430.3,290.6,433.4,291.4,433.4,294.5L433.4,294.5z"/>
	<path class="st3" d="M433.4,337.3c0,3.1-3.1,7.8-7,7.8H279.3c-3.9,0-7-4.7-7-7.8l0,0c0-3.1,3.1-7.8,7-7.8h147.1
		C430.3,329.5,433.4,334.2,433.4,337.3L433.4,337.3z"/>
	<path class="st3" d="M433.4,376.2c0,3.1-3.1,7.8-7,7.8H279.3c-3.9,0-7-4.7-7-7.8l0,0c0-3.1,3.1-7.8,7-7.8h147.1
		C430.3,368.4,433.4,373.1,433.4,376.2L433.4,376.2z"/>
	<path class="st3" d="M433.4,419c0,3.1-3.1,3.9-7,3.9H279.3c-3.9,0-7-0.8-7-3.9l0,0c0-3.1,3.1-3.9,7-3.9h147.1
		C430.3,415.1,433.4,415.9,433.4,419L433.4,419z"/>
</g>
</svg>
