<?xml version="1.0" encoding="UTF-8"?>
<svg xmlns="http://www.w3.org/2000/svg" xmlns:xlink="http://www.w3.org/1999/xlink" width="16pt" height="16pt" viewBox="0 0 16 16" version="1.1">
<g id="surface1">
<path style=" stroke:none;fill-rule:nonzero;fill:rgb(86.666667%,20.784314%,18.039216%);fill-opacity:1;" d="M 8.496094 4.945312 L 3.960938 0.414062 C 3.742188 0.195312 3.390625 0.195312 3.171875 0.414062 L 0.414062 3.171875 C 0.199219 3.390625 0.199219 3.742188 0.414062 3.960938 L 4.945312 8.496094 Z M 8.496094 4.945312 "/>
<path style=" stroke:none;fill-rule:nonzero;fill:rgb(69.019608%,15.294118%,12.941176%);fill-opacity:1;" d="M 1.597656 1.992188 L 6.207031 6.601562 C 6.261719 6.65625 6.335938 6.6875 6.40625 6.6875 C 6.476562 6.6875 6.546875 6.65625 6.601562 6.601562 C 6.710938 6.492188 6.710938 6.320312 6.601562 6.207031 L 1.992188 1.597656 Z M 1.597656 1.992188 "/>
<path style=" stroke:none;fill-rule:nonzero;fill:rgb(86.666667%,20.784314%,18.039216%);fill-opacity:1;" d="M 10.503906 14.011719 L 14.011719 10.503906 L 13.984375 10.4375 L 11.242188 7.695312 L 7.695312 11.242188 L 10.4375 13.988281 "/>
<path style=" stroke:none;fill-rule:nonzero;fill:rgb(69.019608%,15.294118%,12.941176%);fill-opacity:1;" d="M 12.453125 12.058594 L 12.0625 12.453125 L 9.273438 9.664062 L 9.667969 9.269531 Z M 12.453125 12.058594 "/>
<path style=" stroke:none;fill-rule:nonzero;fill:rgb(77.647059%,59.607843%,9.019608%);fill-opacity:1;" d="M 14.722656 4.976562 L 13.054688 6.648438 L 9.507812 3.101562 L 11.179688 1.429688 Z M 14.722656 4.976562 "/>
<path style=" stroke:none;fill-rule:nonzero;fill:rgb(96.862745%,38.823529%,38.823529%);fill-opacity:1;" d="M 14.496094 5.203125 L 10.949219 1.660156 L 12.386719 0.222656 C 12.679688 -0.0742188 13.15625 -0.0742188 13.453125 0.222656 L 15.929688 2.703125 C 16.230469 2.996094 16.230469 3.472656 15.929688 3.769531 Z M 14.496094 5.203125 "/>
<path style=" stroke:none;fill-rule:nonzero;fill:rgb(92.156863%,72.941176%,8.627451%);fill-opacity:1;" d="M 9.765625 2.839844 L 2.167969 10.4375 L 2.140625 10.503906 L 5.648438 14.011719 L 5.714844 13.988281 L 13.3125 6.386719 Z M 9.765625 2.839844 "/>
<path style=" stroke:none;fill-rule:nonzero;fill:rgb(94.901961%,92.54902%,74.901961%);fill-opacity:1;" d="M 15.070312 14.664062 C 15.074219 14.660156 15.082031 14.65625 15.085938 14.652344 C 15.097656 14.632812 15.109375 14.617188 15.125 14.601562 C 15.125 14.597656 15.128906 14.597656 15.128906 14.59375 C 15.140625 14.585938 15.152344 14.578125 15.164062 14.566406 C 15.167969 14.5625 15.167969 14.550781 15.175781 14.546875 C 15.175781 14.539062 15.179688 14.53125 15.1875 14.523438 C 15.195312 14.511719 15.203125 14.5 15.214844 14.488281 C 15.25 14.382812 15.320312 14.289062 15.425781 14.238281 L 14.011719 10.503906 L 10.503906 14.011719 L 14.238281 15.425781 C 14.289062 15.28125 14.414062 15.164062 14.605469 15.148438 C 14.644531 15.121094 14.683594 15.097656 14.730469 15.078125 C 14.738281 14.890625 14.851562 14.707031 15.070312 14.664062 Z M 15.070312 14.664062 "/>
<path style=" stroke:none;fill-rule:nonzero;fill:rgb(94.901961%,92.54902%,74.901961%);fill-opacity:1;" d="M 2.140625 10.503906 L 0.730469 14.230469 C 0.828125 14.265625 0.898438 14.328125 0.945312 14.40625 C 0.957031 14.425781 0.960938 14.445312 0.96875 14.464844 C 0.972656 14.476562 0.980469 14.484375 0.984375 14.5 C 1.003906 14.558594 1.019531 14.625 1.015625 14.695312 C 1.015625 14.695312 1.015625 14.699219 1.015625 14.707031 C 1.085938 14.789062 1.160156 14.875 1.230469 14.960938 C 1.28125 15.023438 1.328125 15.085938 1.378906 15.148438 C 1.386719 15.160156 1.394531 15.167969 1.398438 15.175781 C 1.402344 15.175781 1.410156 15.179688 1.425781 15.199219 C 1.441406 15.214844 1.457031 15.226562 1.472656 15.242188 C 1.503906 15.234375 1.535156 15.230469 1.570312 15.230469 C 1.660156 15.230469 1.734375 15.253906 1.796875 15.292969 C 1.855469 15.320312 1.90625 15.367188 1.941406 15.417969 L 5.648438 14.011719 Z M 2.140625 10.503906 "/>
<path style=" stroke:none;fill-rule:nonzero;fill:rgb(15.686275%,21.960784%,29.803922%);fill-opacity:1;" d="M 0.757812 14.152344 L 0 16.152344 L 2 15.398438 Z M 0.757812 14.152344 "/>
<path style=" stroke:none;fill-rule:nonzero;fill:rgb(15.686275%,21.960784%,29.803922%);fill-opacity:1;" d="M 15.394531 14.152344 L 16.152344 16.152344 L 14.152344 15.398438 Z M 15.394531 14.152344 "/>
<path style=" stroke:none;fill-rule:nonzero;fill:rgb(77.647059%,59.607843%,9.019608%);fill-opacity:1;" d="M 4.683594 13.046875 L 6.503906 11.226562 C 6.613281 11.117188 6.613281 10.941406 6.503906 10.832031 C 6.394531 10.722656 6.21875 10.722656 6.109375 10.832031 L 4.289062 12.652344 Z M 4.683594 13.046875 "/>
<path style=" stroke:none;fill-rule:nonzero;fill:rgb(77.647059%,59.607843%,9.019608%);fill-opacity:1;" d="M 7.292969 10.320312 C 7.363281 10.320312 7.433594 10.292969 7.488281 10.242188 L 12.328125 5.402344 L 11.933594 5.007812 L 7.09375 9.847656 C 6.984375 9.953125 6.984375 10.132812 7.09375 10.242188 C 7.148438 10.292969 7.21875 10.320312 7.292969 10.320312 Z M 7.292969 10.320312 "/>
</g>
</svg>
