<svg id="Layer_1" data-name="Layer 1" xmlns="http://www.w3.org/2000/svg" viewBox="0 0 23.28 64.96"><defs><style>.cls-1{fill:#b2b2b2;}.cls-2{fill:#494c4a;}.cls-3{fill:#333;}.cls-4{fill:#40413c;}.cls-5{fill:#1b1c1c;}.cls-6{fill:#a0a0a0;}.cls-7{fill:#c1c1c1;}.cls-8{fill:#232323;}.cls-9{fill:#385459;}.cls-10{fill:#cecdb6;}.cls-11{fill:#595959;}</style></defs><path class="cls-1" d="M22.59,1.09C21.07.21,7.29.21,5.78,1.09s-3.15,11.8-3.15,11.8V65h23.1V12.89S24.1,2,22.59,1.09Z" transform="translate(-2.58 0)"/><path class="cls-2" d="M21.5,6.3C20.31,5.5,8.24,5.5,7,6.3S5.09,17,5.09,17V63.81H23.27V17S22.69,7.09,21.5,6.3Z" transform="translate(-2.58 0)"/><path class="cls-3" d="M5,5.08A14.7,14.7,0,0,0,4,8.39c-.28,1.38-.94,6.51-.67,6.7a1.33,1.33,0,0,0,1.31,0c.31-.27.53-3.82.72-5,.29-1.93.83-3.05.59-3.37S5.27,4.68,5,5.08Z" transform="translate(-2.58 0)"/><path class="cls-3" d="M4.6,24.31a.68.68,0,0,1-.72.64h0a.68.68,0,0,1-.72-.64V16.49a.68.68,0,0,1,.72-.63h0a.68.68,0,0,1,.72.63Z" transform="translate(-2.58 0)"/><path class="cls-3" d="M4.6,34.06a.69.69,0,0,1-.72.64h0a.68.68,0,0,1-.72-.64V26.24a.68.68,0,0,1,.72-.64h0a.69.69,0,0,1,.72.64Z" transform="translate(-2.58 0)"/><path class="cls-3" d="M4.6,43.8a.69.69,0,0,1-.72.64h0a.68.68,0,0,1-.72-.64V36a.68.68,0,0,1,.72-.64h0A.69.69,0,0,1,4.6,36Z" transform="translate(-2.58 0)"/><path class="cls-3" d="M4.6,53.55a.68.68,0,0,1-.72.63h0a.68.68,0,0,1-.72-.63V45.73a.68.68,0,0,1,.72-.64h0a.68.68,0,0,1,.72.64Z" transform="translate(-2.58 0)"/><path class="cls-3" d="M4.6,63.29a.69.69,0,0,1-.72.64h0a.68.68,0,0,1-.72-.64V55.47a.68.68,0,0,1,.72-.64h0a.69.69,0,0,1,.72.64Z" transform="translate(-2.58 0)"/><path class="cls-3" d="M23.48,4.84a14.84,14.84,0,0,1,1,3.31c.29,1.38,1,6.51.68,6.7a1.33,1.33,0,0,1-1.31,0c-.31-.27-.54-3.83-.72-5-.3-1.93-.83-3.05-.6-3.37S23.16,4.44,23.48,4.84Z" transform="translate(-2.58 0)"/><path class="cls-3" d="M23.84,24.07a.68.68,0,0,0,.72.64h0a.68.68,0,0,0,.72-.64V16.25a.68.68,0,0,0-.72-.63h0a.68.68,0,0,0-.72.63Z" transform="translate(-2.58 0)"/><path class="cls-3" d="M23.84,33.82a.68.68,0,0,0,.72.63h0a.68.68,0,0,0,.72-.63V26a.68.68,0,0,0-.72-.64h0a.68.68,0,0,0-.72.64Z" transform="translate(-2.58 0)"/><path class="cls-3" d="M23.84,43.56a.68.68,0,0,0,.72.64h0a.68.68,0,0,0,.72-.64V35.74a.68.68,0,0,0-.72-.64h0a.68.68,0,0,0-.72.64Z" transform="translate(-2.58 0)"/><path class="cls-3" d="M23.84,53.31a.68.68,0,0,0,.72.63h0a.68.68,0,0,0,.72-.63V45.49a.68.68,0,0,0-.72-.64h0a.68.68,0,0,0-.72.64Z" transform="translate(-2.58 0)"/><path class="cls-3" d="M23.84,63.05a.68.68,0,0,0,.72.64h0a.68.68,0,0,0,.72-.64V55.23a.68.68,0,0,0-.72-.64h0a.68.68,0,0,0-.72.64Z" transform="translate(-2.58 0)"/><polygon class="cls-4" points="19.24 3.25 20.71 2.56 23.28 2.66 23.22 3.02 20.84 2.86 19.53 3.77 19.24 3.25"/><polygon class="cls-4" points="4.04 3.25 2.58 2.56 0 2.66 0.07 3.02 2.44 2.86 3.75 3.77 4.04 3.25"/><path class="cls-5" d="M6,2.82c-.48.26.61,2.91.61,2.91s4.83-.57,7.05-.57c6.28,0,7.66.84,8,.57a6,6,0,0,0,.72-3c-.42-.56-3.93-.92-8-.94C9.74,1.74,6.83,2.36,6,2.82Z" transform="translate(-2.58 0)"/><path class="cls-6" d="M14.65,62.05a.33.33,0,0,1-.33.33h0a.33.33,0,0,1-.33-.33V7.71a.33.33,0,0,1,.33-.33h0a.33.33,0,0,1,.33.33Z" transform="translate(-2.58 0)"/><path class="cls-6" d="M8.6,62.05a.33.33,0,0,1-.33.33h0a.33.33,0,0,1-.33-.33V7.71a.33.33,0,0,1,.33-.33h0a.33.33,0,0,1,.33.33Z" transform="translate(-2.58 0)"/><path class="cls-6" d="M11.62,62.05a.33.33,0,0,1-.33.33h0a.32.32,0,0,1-.32-.33V7.71a.32.32,0,0,1,.32-.33h0a.33.33,0,0,1,.33.33Z" transform="translate(-2.58 0)"/><path class="cls-6" d="M17.67,62.05a.33.33,0,0,1-.33.33h0a.33.33,0,0,1-.33-.33V7.71a.33.33,0,0,1,.33-.33h0a.33.33,0,0,1,.33.33Z" transform="translate(-2.58 0)"/><path class="cls-6" d="M20.69,62.05a.33.33,0,0,1-.33.33h0a.33.33,0,0,1-.33-.33V7.71a.33.33,0,0,1,.33-.33h0a.33.33,0,0,1,.33.33Z" transform="translate(-2.58 0)"/><rect class="cls-7" x="6.3" y="14.81" width="10.61" height="8.94" rx="0.79"/><rect class="cls-8" x="6.28" y="14.41" width="10.61" height="8.94" rx="0.79"/><rect class="cls-7" x="6.44" y="40.17" width="10.61" height="8.94" rx="0.79"/><rect class="cls-8" x="6.42" y="39.78" width="10.61" height="8.94" rx="0.79"/><path class="cls-9" d="M9.29.83a.21.21,0,0,1-.2.21H6.33a.21.21,0,0,1-.2-.21h0a.2.2,0,0,1,.2-.2H9.09a.2.2,0,0,1,.2.2Z" transform="translate(-2.58 0)"/><path class="cls-10" d="M9.18.63A1.66,1.66,0,0,0,7.71,0,1.64,1.64,0,0,0,6.24.63Z" transform="translate(-2.58 0)"/><path class="cls-9" d="M22.34.83a.21.21,0,0,1-.21.21H19.37a.21.21,0,0,1-.2-.21h0a.2.2,0,0,1,.2-.2h2.76a.2.2,0,0,1,.21.2Z" transform="translate(-2.58 0)"/><path class="cls-10" d="M22.22.63A1.63,1.63,0,0,0,20.75,0a1.62,1.62,0,0,0-1.46.63Z" transform="translate(-2.58 0)"/><polygon class="cls-11" points="11.59 1.75 10.76 5.17 11.59 5.17 12.38 1.76 11.59 1.75"/></svg>