<?xml version="1.0" encoding="utf-8"?>
<!-- Generator: Adobe Illustrator 24.1.2, SVG Export Plug-In . SVG Version: 6.00 Build 0)  -->
<svg version="1.1" id="Layer_1" xmlns="http://www.w3.org/2000/svg" xmlns:xlink="http://www.w3.org/1999/xlink" x="0px" y="0px"
	 viewBox="0 0 25 50" style="enable-background:new 0 0 25 50;" xml:space="preserve">
<style type="text/css">
	.st0{fill:#BFBFBF;}
	.st1{fill:#606060;}
	.st2{fill:#999999;}
	.st3{fill:url(#SVGID_1_);}
	.st4{fill:url(#SVGID_2_);}
	.st5{fill:#565554;}
	.st6{fill:url(#SVGID_3_);}
	.st7{fill:#6B6B6B;}
	.st8{fill:#FF0000;}
	.st9{fill:url(#SVGID_4_);}
	.st10{fill:#3A3A3A;}
	.st11{fill:#333333;}
	.st12{fill:#141414;}
	.st13{fill:#121517;}
	.st14{fill:#ABBDC4;}
	.st15{fill:url(#SVGID_5_);}
</style>
<g>
	<path class="st0" d="M23,8c-0.3-2.2-0.7-3.3-1.3-4.2c-0.3,0.1-0.6,0-0.8-0.2c-1-0.8-1.5-1.1-2.4-1.9C18.2,1.5,18,1.2,18,0.9
		c-0.1,0-0.2-0.1-0.4-0.1c0,1,0,1.5,0,2.4c-3.3,0-6.6,0-9.9,0c0-1,0-1.5,0-2.4c-0.1,0-0.2,0.1-0.4,0.1c0,0.3-0.2,0.6-0.5,0.8
		C6,2.5,5.5,2.8,4.5,3.6C4.2,3.8,3.9,3.8,3.7,3.8C3,4.7,2.6,5.8,2.3,8c-0.7,5.7,0.2,11.6,0.2,17.3C2.5,31.9,1,40.6,2.8,47.2
		c0.1,0.5,0.5,0.9,1,1.2c0.1,0,0.2-0.1,0.4-0.1c0.9,0,1.3,0.6,2.4,0.5c0.7-0.1,0.9,0.5,1,0.9c0.6,0.1,1.2,0.2,1.8,0.2
		c0.1-0.1,0.2-0.2,0.4-0.2c2,0,3.9,0,5.9,0c0.2,0,0.3,0.1,0.4,0.2c0.4,0,0.9-0.1,1.3-0.2c0.1-0.4,0.3-1,1-0.9c1,0.2,1.4-0.4,2.4-0.5
		c0.3,0,0.5,0.1,0.6,0.2c0.6-0.4,1.1-0.8,1.3-1.4c1.8-6.5,0.3-15.2,0.3-21.9C22.8,19.6,23.7,13.7,23,8z"/>
	<path class="st1" d="M17.6,3.2c0-1,0-1.5,0-2.4c-3.1-1-6.8-1-9.9,0c0,1,0,1.5,0,2.4C11,3.2,14.3,3.2,17.6,3.2z"/>
	<path class="st2" d="M22.4,8.4c-0.3-2.6-1.2-4.4-3.1-5.9c-3.1-2.6-10.1-2.6-13.2,0C4.2,4,3.2,5.7,2.9,8.4C2.4,13.9,3.2,19.5,3.1,25
		c0,6.5-1.7,15.3,0.3,21.1c1,2.8,6.7,2.7,9.3,2.7c2.5,0,8.3,0.1,9.3-2.7c2-5.8,0.3-14.6,0.3-21.1C22.2,19.5,23,13.9,22.4,8.4z"/>
	
		<linearGradient id="SVGID_1_" gradientUnits="userSpaceOnUse" x1="5.2574" y1="35.6329" x2="20.122" y2="35.6329" gradientTransform="matrix(1 0 0 -1 0 56.8967)">
		<stop  offset="0" style="stop-color:#000000"/>
		<stop  offset="1" style="stop-color:#000000"/>
	</linearGradient>
	<path class="st3" d="M8.7,20.5c-1.7,0.2-2.9,0.7-3.4,0.9c0,0.3,0.1,0.5,0.1,0.8c0,0,1.4-0.7,3.4-1c2.5-0.3,5.2-0.4,7.7,0
		c2.1,0.3,3.4,1,3.4,1c0-0.3,0.1-0.5,0.1-0.8c-0.5-0.2-1.7-0.7-3.4-0.9C14.1,20.2,11.3,20.2,8.7,20.5z"/>
	<path d="M4.8,14.5c0.7-0.3,1.8-0.8,3.6-1.2c2.8-0.6,5.8-0.6,8.6,0c1.8,0.4,2.9,0.9,3.6,1.2c0.3,0.1,0.5,0.2,0.6,0.3c0,0,0,0,0,0
		c0,0,0.1-0.6,0-0.7c-0.1-0.1-0.3-0.3-0.6-0.4c-0.7-0.3-1.8-0.8-3.6-1.2c-2.8-0.6-5.8-0.6-8.6,0c-1.8,0.4-2.9,0.9-3.6,1.2
		c-0.3,0.2-0.5,0.3-0.6,0.4c-0.1,0.2,0,0.7,0,0.7c0,0,0,0,0,0C4.3,14.7,4.5,14.6,4.8,14.5z"/>
	
		<linearGradient id="SVGID_2_" gradientUnits="userSpaceOnUse" x1="4.2339" y1="39.7558" x2="21.1455" y2="39.7558" gradientTransform="matrix(1 0 0 -1 0 56.8967)">
		<stop  offset="0" style="stop-color:#0C0D0C"/>
		<stop  offset="1" style="stop-color:#000000"/>
	</linearGradient>
	<path class="st4" d="M8.7,20.5c2.6-0.4,5.4-0.4,8.1,0c1.7,0.2,2.9,0.7,3.4,0.9c0.3-2.2,0.7-4.4,1-6.6c-0.1-0.1-0.3-0.2-0.6-0.3
		c-0.7-0.3-1.8-0.8-3.6-1.2c-2.8-0.6-5.8-0.6-8.6,0c-1.8,0.4-2.9,0.9-3.6,1.2c-0.3,0.1-0.5,0.2-0.6,0.3c0.3,2.2,0.7,4.4,1,6.6
		C5.7,21.3,7,20.8,8.7,20.5z"/>
	<path class="st5" d="M19.7,39.7c0-0.3-0.1-0.6-0.2-0.9c0,0-0.1,0.1-0.3,0.1c-2.1,0.9-4.4,1.1-6.5,1c-2.1,0-4.4-0.3-6.5-1.1
		c-0.2-0.1-0.3-0.1-0.3-0.1c-0.1,0.3-0.2,0.6-0.2,0.8c-0.3,1.7-0.5,3.5-0.3,5.3c0,0,1.5,0.7,3.6,1.1c2.4,0.4,5.1,0.4,7.4,0
		c2.1-0.4,3.6-1.1,3.6-1.1C20.2,43.1,20,41.4,19.7,39.7z M19.5,44.3c0,0-1.4,0.7-3.4,1.1c-2.2,0.4-4.7,0.4-6.9,0
		c-2-0.4-3.4-1.1-3.4-1.1S5.7,42.1,6,39.7c2.2,0.6,4.5,0.9,6.7,0.9c2.2,0,4.5-0.2,6.7-0.8C19.7,42.2,19.5,44.3,19.5,44.3z"/>
	
		<linearGradient id="SVGID_3_" gradientUnits="userSpaceOnUse" x1="5.801" y1="14.1827" x2="19.5669" y2="14.1827" gradientTransform="matrix(1 0 0 -1 0 56.8967)">
		<stop  offset="0" style="stop-color:#131414"/>
		<stop  offset="1" style="stop-color:#000000"/>
	</linearGradient>
	<path class="st6" d="M6,39.7c-0.4,2.4-0.2,4.5-0.2,4.5s1.4,0.7,3.4,1.1c2.2,0.4,4.7,0.4,6.9,0c2-0.4,3.4-1.1,3.4-1.1
		s0.2-2.1-0.2-4.5c-2.2,0.6-4.5,0.8-6.7,0.8C10.5,40.6,8.2,40.3,6,39.7z"/>
	<g>
		<path class="st1" d="M3.7,29c0.6,0.2,0.9,0.3,1.5,0.5C5.1,27.3,5,25,4.9,22.7c-0.4-2.7-0.9-5.4-1.3-8.1c-0.1,1.7-0.1,3.4-0.1,5.1
			c0,2,0.2,4.1,0.2,6.2C3.8,27.4,3.7,28.5,3.7,29z"/>
		<path class="st1" d="M21.7,29c-0.6,0.2-0.9,0.3-1.5,0.5c0.1-2.3,0.1-4.6,0.2-6.9c0.4-2.7,0.9-5.4,1.3-8.1c0.1,1.7,0.1,3.4,0.1,5.1
			c0,2-0.2,4.1-0.2,6.2C21.6,27.4,21.7,28.5,21.7,29z"/>
	</g>
	<g>
		<path class="st1" d="M3.6,29.7c0.6,0.3,0.9,0.4,1.5,0.7c0,1.9,0.1,3.8,0.1,5.7c0,0-0.1,0.7-0.7,1.9c-0.7,1.3-1,1.7-1,1.7
			C3.5,36.3,3.4,33,3.6,29.7z"/>
		<path class="st1" d="M21.8,29.7c-0.6,0.3-0.9,0.4-1.5,0.7c0,1.9-0.1,3.8-0.1,5.7c0,0,0.1,0.7,0.7,1.9c0.7,1.3,1,1.7,1,1.7
			C21.9,36.3,22,33,21.8,29.7z"/>
	</g>
	<g>
		<path class="st7" d="M4.5,3.6c1-0.8,1.5-1.1,2.4-1.9c0.3-0.2,0.4-0.5,0.5-0.8c-0.7,0.3-1.3,0.6-1.7,1c-0.9,0.7-1.5,1.3-2,1.9
			C3.9,3.8,4.2,3.8,4.5,3.6z"/>
		<path class="st7" d="M18.4,1.7c1,0.8,1.5,1.1,2.4,1.9c0.3,0.2,0.6,0.3,0.8,0.2c-0.5-0.7-1.1-1.2-2-1.9c-0.4-0.4-1-0.7-1.7-1
			C18,1.2,18.2,1.5,18.4,1.7z"/>
	</g>
	<path class="st8" d="M6.6,48.8c-1,0.2-1.4-0.4-2.4-0.5c-0.2,0-0.3,0-0.4,0.1c0.9,0.6,2.3,1,3.7,1.2C7.5,49.2,7.2,48.7,6.6,48.8z"/>
	<path class="st8" d="M18.3,48.8c-0.7-0.1-0.9,0.5-1,0.9c1.4-0.2,2.9-0.6,3.9-1.2c-0.1-0.1-0.3-0.2-0.6-0.2
		C19.8,48.3,19.4,48.9,18.3,48.8z"/>
	<path class="st1" d="M5.9,12c0,0,1.6-2.9,1.9-4.4C8,6.7,7.7,3.8,7.7,3.8S7.5,6.5,7.3,7.4C7,8.9,5.9,12,5.9,12z"/>
	<path class="st1" d="M19.5,12c0,0-1.6-2.9-1.9-4.4c-0.2-0.9,0.1-3.7,0.1-3.7s0.2,2.7,0.4,3.6C18.4,8.9,19.5,12,19.5,12z"/>
	
		<linearGradient id="SVGID_4_" gradientUnits="userSpaceOnUse" x1="12.5722" y1="41.473" x2="17.4492" y2="38.0052" gradientTransform="matrix(1 0 0 -1 0 56.8967)">
		<stop  offset="0" style="stop-color:#363B39"/>
		<stop  offset="1" style="stop-color:#000000"/>
	</linearGradient>
	<path class="st9" d="M20.6,14.5c-0.7-0.3-1.8-0.8-3.6-1.2c-0.6-0.1-1.3-0.2-2-0.3c-1.9,2.2-3.4,4.9-4.8,7.4
		c2.2-0.1,4.4-0.2,6.6,0.1c1.7,0.2,2.9,0.7,3.4,0.9c0.3-2.2,0.7-4.4,1-6.6C21,14.7,20.9,14.6,20.6,14.5z"/>
	<path class="st10" d="M12.7,21.8c-2.2,0-4.6-0.1-6.7,0.9c0,4.9-1,11.6,0.3,14.9c0.5,1.3,4,1.4,5.6,1.5c0.7,0,1,0,1.7,0
		c1.5-0.1,5-0.2,5.6-1.5c1.3-3.3,0.3-10,0.3-14.9C17.3,21.7,14.9,21.8,12.7,21.8z"/>
	<path class="st2" d="M12.8,21.8c-2.3,0-4.7-0.1-6.8,0.9c0,4.9-1,11.6,0.3,14.9c0.5,1.3,4.1,1.4,5.6,1.5c0.7,0,1,0,1.7,0
		c1.6-0.1,5.1-0.2,5.6-1.5c1.4-3.3,0.4-10,0.3-14.9C17.5,21.7,15,21.8,12.8,21.8z"/>
	<path class="st11" d="M13.6,48.3c2.5-0.1,5.3-0.4,7.6-1.8c-0.4-0.5-0.6-0.8-1.1-1.3c-2.3,1.3-5,1.7-7.5,1.5l0,0
		c-2.6,0.2-5.3-0.2-7.5-1.5c-0.4,0.5-0.6,0.8-1.1,1.3c2.3,1.4,5.1,1.6,7.6,1.8c0.3,0,1,0,1,0l0,0C13,48.4,13.4,48.4,13.6,48.3z"/>
	<path class="st12" d="M6.9,2.1c0,0-3.3,3.1-3.5,5.4c-0.2,1.9-0.4,5.8-0.4,5.8C3.1,13.4,6.9,2.1,6.9,2.1z"/>
	<path class="st12" d="M18.5,2.1c0,0,3.3,3.1,3.5,5.4c0.2,1.9,0.4,5.8,0.4,5.8C22.3,13.4,18.5,2.1,18.5,2.1z"/>
	<g>
		<path class="st1" d="M21.7,15.1c0,0,0.8,0.2,0.9,0.9c0,0.7-0.8,2.3-0.8,1.3C21.7,16.4,21.6,15.4,21.7,15.1z"/>
		<path class="st1" d="M24.6,16.7c-0.2-0.3-1.8-0.8-1.8-0.8c-0.3-0.1-0.4,0.2-0.5,0.5c1,0.3,1.4,0.4,2.4,0.7
			C24.7,17,24.7,16.8,24.6,16.7z"/>
		<path class="st1" d="M22.2,16.4c0,0.2,0,0.3,0,0.3c0.9,0.2,1.4,0.4,2.3,0.6c0,0,0-0.1,0.1-0.2C23.7,16.8,23.2,16.7,22.2,16.4z"/>
	</g>
	<g>
		<path class="st1" d="M3.7,15c0,0-0.9,0.2-0.9,0.9c0,0.7,0.8,2.3,0.9,1.3C3.7,16.3,3.7,15.3,3.7,15z"/>
		<path class="st1" d="M2.6,15.9c0,0-1.7,0.5-1.8,0.8c-0.1,0.2-0.1,0.3-0.1,0.5c1-0.3,1.4-0.4,2.4-0.7C3.1,16.1,3,15.7,2.6,15.9z"/>
		<path class="st1" d="M0.7,17.1c0,0.1,0,0.1,0,0.1c0.9-0.2,1.4-0.3,2.3-0.6c0,0,0-0.1,0-0.3C2.2,16.6,1.7,16.8,0.7,17.1z"/>
	</g>
	<path class="st1" d="M2.6,24.9c-0.1,0-0.2,0.1-0.2,0.2c0,0.8,0,1.2,0,1.9c0,0.1,0.1,0.2,0.2,0.2C2.5,26.3,2.6,25.9,2.6,24.9z"/>
	<path class="st1" d="M2,34.5c-0.1,0-0.2,0.1-0.2,0.2c0,0.8,0,1.2,0,1.9c0,0.1,0.1,0.2,0.2,0.2C2,36,2,35.5,2,34.5z"/>
	<path class="st1" d="M22.8,24.9c0.1,0,0.2,0.1,0.2,0.2c0,0.8,0,1.2,0,1.9c0,0.1-0.1,0.2-0.2,0.2C22.8,26.3,22.8,25.9,22.8,24.9z"/>
	<path class="st1" d="M23.3,34.5c0.1,0,0.2,0.1,0.2,0.2c0,0.8,0,1.2,0,1.9c0,0.1-0.1,0.2-0.2,0.2C23.4,36,23.4,35.5,23.3,34.5z"/>
	<g>
		<g>
			<path class="st13" d="M8,11.3c0.3,0,0.5-0.2,0.9-0.3c0,0,0,0,0-0.1s0-0.1,0-0.1c-0.3,0-0.5,0.2-0.9,0.3C7.9,11.2,7.9,11.2,8,11.3
				C7.9,11.3,7.9,11.3,8,11.3z"/>
			<path class="st13" d="M8.8,11.1c-0.3,0-0.5,0.2-0.9,0.3c0,0-0.1,0-0.1,0.1s0,0.1,0,0.1c0.3,0,0.5-0.2,0.9-0.3
				C8.9,11.3,8.9,11.2,8.8,11.1C8.9,11.2,8.9,11.1,8.8,11.1z"/>
			<path class="st13" d="M8.8,11.4c-0.3,0-0.5,0.2-0.9,0.3c0,0-0.1,0-0.1,0.1s0,0.1,0,0.1c0.3,0,0.5-0.2,0.9-0.3
				C8.9,11.5,8.9,11.4,8.8,11.4C8.9,11.4,8.9,11.4,8.8,11.4z"/>
		</g>
		<g>
			<path class="st13" d="M17.4,11.3c-0.3,0-0.5-0.2-0.9-0.3c0,0-0.1,0-0.1-0.1s0-0.1,0-0.1c0.3,0,0.5,0.2,0.9,0.3
				C17.4,11.2,17.5,11.2,17.4,11.3C17.5,11.3,17.4,11.3,17.4,11.3z"/>
			<path class="st13" d="M16.5,11.1c0.3,0,0.5,0.2,0.9,0.3c0,0,0.1,0,0.1,0.1s0,0.1-0.1,0.1c-0.3,0-0.5-0.2-0.9-0.3
				C16.5,11.3,16.5,11.2,16.5,11.1C16.5,11.2,16.5,11.1,16.5,11.1z"/>
			<path class="st13" d="M16.5,11.4c0.3,0,0.5,0.2,0.9,0.3c0,0,0,0,0,0.1s0,0.1,0,0.1c-0.3,0-0.5-0.2-0.9-0.3
				C16.5,11.5,16.5,11.4,16.5,11.4C16.5,11.4,16.5,11.4,16.5,11.4z"/>
		</g>
	</g>
	<path class="st14" d="M15.6,49.6c-2,0-3.9,0-5.9,0c-0.2,0-0.3,0.1-0.4,0.2c1.9,0.2,3.4,0.2,3.4,0.2s1.5,0,3.4-0.1
		C16,49.7,15.8,49.6,15.6,49.6z"/>
	
		<linearGradient id="SVGID_5_" gradientUnits="userSpaceOnUse" x1="9.2934" y1="20.8269" x2="12.948" y2="15.2228" gradientTransform="matrix(1 0 0 -1 0 56.8967)">
		<stop  offset="0" style="stop-color:#363B39"/>
		<stop  offset="1" style="stop-color:#000000"/>
	</linearGradient>
	<path class="st15" d="M19.4,39.8c-2.2,0.6-4.4,0.8-6.7,0.8c-0.7,0-1.3,0-1.9-0.1c-1.6,0.8-2.7,2.6-3.4,4.4c0.5,0.2,1.1,0.4,1.8,0.5
		c2.2,0.4,4.7,0.4,6.9,0c2-0.4,3.4-1.1,3.4-1.1S19.7,42.2,19.4,39.8z"/>
</g>
</svg>
