<?xml version="1.0" encoding="utf-8"?>
<!-- Generator: Adobe Illustrator 24.1.2, SVG Export Plug-In . SVG Version: 6.00 Build 0)  -->
<svg version="1.1" id="Layer_1" xmlns="http://www.w3.org/2000/svg" xmlns:xlink="http://www.w3.org/1999/xlink" x="0px" y="0px"
	 viewBox="0 0 25 50" style="enable-background:new 0 0 25 50;" xml:space="preserve">
<style type="text/css">
	.st0{fill:#E20303;}
	.st1{fill:#606060;}
	.st2{fill:#AD0000;}
	.st3{fill:url(#SVGID_1_);}
	.st4{fill:url(#SVGID_2_);}
	.st5{fill:#FF1A1A;}
	.st6{fill:url(#SVGID_3_);}
	.st7{fill:#6B6B6B;}
	.st8{fill:#FF0000;}
	.st9{fill:#FF1D1D;}
	.st10{fill:url(#SVGID_4_);}
	.st11{fill:#3A3A3A;}
	.st12{fill:#EF0606;}
	.st13{fill:#121517;}
	.st14{fill:#ABBDC4;}
	.st15{fill:url(#SVGID_5_);}
</style>
<g>
	<path class="st0" d="M22.9,7.9c-0.3-2.2-0.7-3.3-1.3-4.2c-0.3,0.1-0.6,0-0.8-0.2c-1-0.8-1.5-1.1-2.4-1.9c-0.3-0.2-0.4-0.5-0.5-0.8
		c-0.1,0-0.2-0.1-0.4-0.1c0,1,0,1.5,0,2.4c-3.3,0-6.6,0-9.9,0c0-1,0-1.5,0-2.4c-0.1,0-0.2,0.1-0.4,0.1c0,0.3-0.2,0.6-0.5,0.8
		c-1,0.8-1.5,1.1-2.4,1.9C4.1,3.7,3.8,3.7,3.5,3.6c-0.7,0.9-1.1,2-1.3,4.2c-0.7,5.7,0.2,11.6,0.2,17.3C2.4,31.8,0.9,40.5,2.7,47
		c0.1,0.5,0.5,0.9,1,1.2c0.1,0,0.2-0.1,0.4-0.1c0.9,0,1.3,0.6,2.4,0.5c0.7-0.1,0.9,0.5,1,0.9c0.6,0.1,1.2,0.2,1.8,0.2
		c0.1-0.1,0.2-0.2,0.4-0.2c2,0,3.9,0,5.9,0c0.2,0,0.3,0.1,0.4,0.2c0.4,0,0.9-0.1,1.3-0.2c0.1-0.4,0.3-1,1-0.9c1,0.2,1.4-0.4,2.4-0.5
		c0.3,0,0.5,0.1,0.6,0.2c0.6-0.4,1.1-0.8,1.3-1.4c1.8-6.5,0.3-15.2,0.3-21.9C22.7,19.5,23.6,13.6,22.9,7.9z"/>
	<path class="st1" d="M17.5,3c0-1,0-1.5,0-2.4c-3.1-1-6.8-1-9.9,0c0,1,0,1.5,0,2.4C10.9,3.1,14.2,3.1,17.5,3z"/>
	<path class="st2" d="M22.3,8.3c-0.3-2.6-1.2-4.4-3.1-5.9C16.1-0.3,9.1-0.3,6,2.3C4,3.9,3.1,5.6,2.8,8.3C2.3,13.7,3.1,19.4,3,24.9
		C3,31.3,1.3,40.2,3.3,46c1,2.8,6.7,2.7,9.3,2.7c2.5,0,8.3,0.1,9.3-2.7c2-5.8,0.3-14.6,0.3-21.1C22.1,19.4,22.9,13.7,22.3,8.3z"/>
	
		<linearGradient id="SVGID_1_" gradientUnits="userSpaceOnUse" x1="5.1513" y1="30.8564" x2="20.0159" y2="30.8564" gradientTransform="matrix(1 0 0 -1 0 52)">
		<stop  offset="0" style="stop-color:#000000"/>
		<stop  offset="1" style="stop-color:#000000"/>
	</linearGradient>
	<path class="st3" d="M8.6,20.4c-1.7,0.2-2.9,0.7-3.4,0.9c0,0.3,0.1,0.5,0.1,0.8c0,0,1.4-0.7,3.4-1c2.5-0.3,5.2-0.4,7.7,0
		c2.1,0.3,3.4,1,3.4,1c0-0.3,0.1-0.5,0.1-0.8c-0.5-0.2-1.7-0.7-3.4-0.9C14,20.1,11.2,20.1,8.6,20.4z"/>
	<path d="M4.7,14.4c0.7-0.3,1.8-0.8,3.6-1.2c2.8-0.6,5.8-0.6,8.6,0c1.8,0.4,2.9,0.9,3.6,1.2c0.3,0.1,0.5,0.2,0.6,0.3c0,0,0,0,0,0
		c0,0,0.1-0.6,0-0.7c-0.1-0.1-0.3-0.3-0.6-0.4c-0.7-0.3-1.8-0.8-3.6-1.2c-2.8-0.6-5.8-0.6-8.6,0c-1.8,0.4-2.9,0.9-3.6,1.2
		c-0.3,0.2-0.5,0.3-0.6,0.4c-0.1,0.2,0,0.7,0,0.7c0,0,0,0,0,0C4.2,14.6,4.4,14.5,4.7,14.4z"/>
	
		<linearGradient id="SVGID_2_" gradientUnits="userSpaceOnUse" x1="4.1278" y1="34.9792" x2="21.0394" y2="34.9792" gradientTransform="matrix(1 0 0 -1 0 52)">
		<stop  offset="0" style="stop-color:#0C0D0C"/>
		<stop  offset="1" style="stop-color:#000000"/>
	</linearGradient>
	<path class="st4" d="M8.6,20.4c2.6-0.4,5.4-0.4,8.1,0c1.7,0.2,2.9,0.7,3.4,0.9c0.3-2.2,0.7-4.4,1-6.6c-0.1-0.1-0.3-0.2-0.6-0.3
		c-0.7-0.3-1.8-0.8-3.6-1.2c-2.8-0.6-5.8-0.6-8.6,0c-1.8,0.4-2.9,0.9-3.6,1.2c-0.3,0.1-0.5,0.2-0.6,0.3c0.3,2.2,0.7,4.4,1,6.6
		C5.6,21.1,6.8,20.6,8.6,20.4z"/>
	<path class="st5" d="M19.6,39.5c0-0.3-0.1-0.6-0.2-0.9c0,0-0.1,0.1-0.3,0.1c-2.1,0.9-4.4,1.1-6.5,1c-2.1,0-4.4-0.3-6.5-1.1
		c-0.2-0.1-0.3-0.1-0.3-0.1c-0.1,0.3-0.2,0.6-0.2,0.8c-0.3,1.7-0.5,3.5-0.3,5.3c0,0,1.5,0.7,3.6,1.1c2.4,0.4,5.1,0.4,7.4,0
		c2.1-0.4,3.6-1.1,3.6-1.1C20.1,43,19.9,41.2,19.6,39.5z M19.4,44.1c0,0-1.4,0.7-3.4,1.1c-2.2,0.4-4.7,0.4-6.9,0
		c-2-0.4-3.4-1.1-3.4-1.1S5.6,42,5.9,39.6c2.2,0.6,4.5,0.9,6.7,0.9c2.2,0,4.5-0.2,6.7-0.8C19.6,42,19.4,44.1,19.4,44.1z"/>
	
		<linearGradient id="SVGID_3_" gradientUnits="userSpaceOnUse" x1="5.695" y1="9.4061" x2="19.4609" y2="9.4061" gradientTransform="matrix(1 0 0 -1 0 52)">
		<stop  offset="0" style="stop-color:#131414"/>
		<stop  offset="1" style="stop-color:#000000"/>
	</linearGradient>
	<path class="st6" d="M5.9,39.6c-0.4,2.4-0.2,4.5-0.2,4.5s1.4,0.7,3.4,1.1c2.2,0.4,4.7,0.4,6.9,0c2-0.4,3.4-1.1,3.4-1.1
		s0.2-2.1-0.2-4.5c-2.2,0.6-4.5,0.8-6.7,0.8C10.4,40.5,8.1,40.2,5.9,39.6z"/>
	<g>
		<path d="M3.5,28.9c0.6,0.2,0.9,0.3,1.5,0.5c-0.1-2.3-0.1-4.6-0.2-6.9c-0.4-2.7-0.9-5.4-1.3-8.1c-0.1,1.7-0.1,3.4-0.1,5.1
			c0,2,0.2,4.1,0.2,6.2C3.7,27.3,3.6,28.4,3.5,28.9z"/>
		<path d="M21.6,28.9c-0.6,0.2-0.9,0.3-1.5,0.5c0.1-2.3,0.1-4.6,0.2-6.9c0.4-2.7,0.9-5.4,1.3-8.1c0.1,1.7,0.1,3.4,0.1,5.1
			c0,2-0.2,4.1-0.2,6.2C21.5,27.3,21.6,28.4,21.6,28.9z"/>
	</g>
	<g>
		<path d="M3.5,29.6C4.1,29.8,4.4,30,5,30.2c0,1.9,0.1,3.8,0.1,5.7c0,0-0.1,0.7-0.7,1.9c-0.7,1.3-1,1.7-1,1.7
			C3.4,36.2,3.3,32.9,3.5,29.6z"/>
		<path d="M21.7,29.6c-0.6,0.3-0.9,0.4-1.5,0.7c0,1.9-0.1,3.8-0.1,5.7c0,0,0.1,0.7,0.7,1.9c0.7,1.3,1,1.7,1,1.7
			C21.8,36.2,21.9,32.9,21.7,29.6z"/>
	</g>
	<g>
		<path class="st7" d="M4.4,3.5c1-0.8,1.5-1.1,2.4-1.9c0.3-0.2,0.4-0.5,0.5-0.8C6.6,1,6,1.3,5.6,1.7C4.7,2.4,4.1,3,3.6,3.6
			C3.8,3.7,4.1,3.7,4.4,3.5z"/>
		<path class="st7" d="M18.3,1.6c1,0.8,1.5,1.1,2.4,1.9c0.3,0.2,0.6,0.3,0.8,0.2c-0.5-0.7-1.1-1.2-2-1.9c-0.4-0.4-1-0.7-1.7-1
			C17.9,1.1,18.1,1.4,18.3,1.6z"/>
	</g>
	<path class="st8" d="M6.5,48.6c-1,0.2-1.4-0.4-2.4-0.5c-0.2,0-0.3,0-0.4,0.1c0.9,0.6,2.3,1,3.7,1.2C7.4,49.1,7.1,48.5,6.5,48.6z"/>
	<path class="st8" d="M18.2,48.7c-0.7-0.1-0.9,0.5-1,0.9c1.4-0.2,2.9-0.6,3.9-1.2c-0.1-0.1-0.3-0.2-0.6-0.2
		C19.7,48.2,19.2,48.8,18.2,48.7z"/>
	<path class="st9" d="M5.8,11.9c0,0,1.6-2.9,1.9-4.4c0.2-0.9-0.1-3.7-0.1-3.7S7.4,6.4,7.2,7.3C6.9,8.8,5.8,11.9,5.8,11.9z"/>
	<path class="st9" d="M19.4,11.9c0,0-1.6-2.9-1.9-4.4c-0.2-0.9,0.1-3.7,0.1-3.7s0.2,2.7,0.4,3.6C18.3,8.8,19.4,11.9,19.4,11.9z"/>
	
		<linearGradient id="SVGID_4_" gradientUnits="userSpaceOnUse" x1="12.4661" y1="36.6964" x2="17.3431" y2="33.2286" gradientTransform="matrix(1 0 0 -1 0 52)">
		<stop  offset="0" style="stop-color:#363B39"/>
		<stop  offset="1" style="stop-color:#000000"/>
	</linearGradient>
	<path class="st10" d="M20.5,14.4c-0.7-0.3-1.8-0.8-3.6-1.2c-0.6-0.1-1.3-0.2-2-0.3c-1.9,2.2-3.4,4.9-4.8,7.4
		c2.2-0.1,4.4-0.2,6.6,0.1c1.7,0.2,2.9,0.7,3.4,0.9c0.3-2.2,0.7-4.4,1-6.6C20.9,14.6,20.8,14.5,20.5,14.4z"/>
	<path class="st11" d="M12.6,21.7c-2.2,0-4.6-0.1-6.7,0.9c0,4.9-1,11.6,0.3,14.9c0.5,1.3,4,1.4,5.6,1.5c0.7,0,1,0,1.7,0
		c1.5-0.1,5-0.2,5.6-1.5c1.3-3.3,0.3-10,0.3-14.9C17.2,21.6,14.8,21.7,12.6,21.7z"/>
	<path class="st8" d="M12.7,21.7c-2.3,0-4.7-0.1-6.8,0.9c0,4.9-1,11.6,0.3,14.9c0.5,1.3,4.1,1.4,5.6,1.5c0.7,0,1,0,1.7,0
		c1.6-0.1,5.1-0.2,5.6-1.5c1.4-3.3,0.4-10,0.3-14.9C17.4,21.6,14.9,21.7,12.7,21.7z"/>
	<path class="st12" d="M13.5,48.2c2.5-0.1,5.3-0.4,7.6-1.8c-0.4-0.5-0.6-0.8-1.1-1.3c-2.3,1.3-5,1.7-7.5,1.5l0,0
		C10,46.9,7.3,46.5,5,45.2c-0.4,0.5-0.6,0.8-1.1,1.3c2.3,1.4,5.1,1.6,7.6,1.8c0.3,0,1,0,1,0l0,0C12.9,48.2,13.3,48.2,13.5,48.2z"/>
	<path d="M6.8,2c0,0-3.3,3.1-3.5,5.4C3.1,9.4,3,13.3,3,13.3C3,13.3,6.8,2,6.8,2z"/>
	<path d="M18.4,2c0,0,3.3,3.1,3.5,5.4c0.2,1.9,0.4,5.8,0.4,5.8C22.2,13.3,18.4,2,18.4,2z"/>
	<g>
		<path class="st1" d="M21.6,15c0,0,0.8,0.2,0.9,0.9c0,0.7-0.8,2.3-0.8,1.3C21.6,16.2,21.5,15.3,21.6,15z"/>
		<path class="st1" d="M24.5,16.6c-0.2-0.3-1.8-0.8-1.8-0.8c-0.3-0.1-0.4,0.2-0.5,0.5c1,0.3,1.4,0.4,2.4,0.7
			C24.6,16.9,24.6,16.7,24.5,16.6z"/>
		<path class="st1" d="M22.1,16.3c0,0.2,0,0.3,0,0.3c0.9,0.2,1.4,0.4,2.3,0.6c0,0,0-0.1,0.1-0.2C23.6,16.7,23.1,16.5,22.1,16.3z"/>
	</g>
	<g>
		<path class="st1" d="M3.6,14.9c0,0-0.9,0.2-0.9,0.9c0,0.7,0.8,2.3,0.9,1.3C3.6,16.2,3.6,15.2,3.6,14.9z"/>
		<path class="st1" d="M2.5,15.7c0,0-1.7,0.5-1.8,0.8c-0.1,0.2-0.1,0.3-0.1,0.5c1-0.3,1.4-0.4,2.4-0.7C3,16,2.9,15.6,2.5,15.7z"/>
		<path class="st1" d="M0.6,17c0,0.1,0,0.1,0,0.1c0.9-0.2,1.4-0.3,2.3-0.6c0,0,0-0.1,0-0.3C2.1,16.5,1.6,16.7,0.6,17z"/>
	</g>
	<path class="st1" d="M2.5,24.8c-0.1,0-0.2,0.1-0.2,0.2c0,0.8,0,1.2,0,1.9c0,0.1,0.1,0.2,0.2,0.2C2.4,26.2,2.4,25.7,2.5,24.8z"/>
	<path class="st1" d="M1.9,34.4c-0.1,0-0.2,0.1-0.2,0.2c0,0.8,0,1.2,0,1.9c0,0.1,0.1,0.2,0.2,0.2C1.9,35.9,1.9,35.4,1.9,34.4z"/>
	<path class="st1" d="M22.7,24.8c0.1,0,0.2,0.1,0.2,0.2c0,0.8,0,1.2,0,1.9c0,0.1-0.1,0.2-0.2,0.2C22.7,26.2,22.7,25.7,22.7,24.8z"/>
	<path class="st1" d="M23.2,34.4c0.1,0,0.2,0.1,0.2,0.2c0,0.8,0,1.2,0,1.9c0,0.1-0.1,0.2-0.2,0.2C23.3,35.9,23.3,35.4,23.2,34.4z"/>
	<g>
		<g>
			<path class="st13" d="M7.9,11.2c0.3,0,0.5-0.2,0.9-0.3c0,0,0,0,0-0.1s0-0.1,0-0.1c-0.3,0-0.5,0.2-0.9,0.3
				C7.8,11.1,7.8,11.1,7.9,11.2C7.8,11.2,7.8,11.2,7.9,11.2z"/>
			<path class="st13" d="M8.7,11c-0.3,0-0.5,0.2-0.9,0.3c0,0-0.1,0-0.1,0.1s0,0.1,0,0.1c0.3,0,0.5-0.2,0.9-0.3
				C8.7,11.1,8.8,11.1,8.7,11C8.8,11,8.8,11,8.7,11z"/>
			<path class="st13" d="M8.7,11.2c-0.3,0-0.5,0.2-0.9,0.3c0,0-0.1,0-0.1,0.1s0,0.1,0,0.1c0.3,0,0.5-0.2,0.9-0.3
				C8.7,11.4,8.8,11.3,8.7,11.2C8.8,11.3,8.8,11.2,8.7,11.2z"/>
		</g>
		<g>
			<path class="st13" d="M17.3,11.2c-0.3,0-0.5-0.2-0.9-0.3c0,0-0.1,0-0.1-0.1s0-0.1,0-0.1c0.3,0,0.5,0.2,0.9,0.3
				C17.3,11.1,17.3,11.1,17.3,11.2C17.4,11.2,17.3,11.2,17.3,11.2z"/>
			<path class="st13" d="M16.4,11c0.3,0,0.5,0.2,0.9,0.3c0,0,0.1,0,0.1,0.1s0,0.1-0.1,0.1c-0.3,0-0.5-0.2-0.9-0.3
				C16.4,11.1,16.4,11.1,16.4,11C16.4,11,16.4,11,16.4,11z"/>
			<path class="st13" d="M16.4,11.2c0.3,0,0.5,0.2,0.9,0.3c0,0,0,0,0,0.1s0,0.1,0,0.1c-0.3,0-0.5-0.2-0.9-0.3
				C16.4,11.4,16.4,11.3,16.4,11.2C16.4,11.3,16.4,11.2,16.4,11.2z"/>
		</g>
	</g>
	<path class="st14" d="M15.5,49.5c-2,0-3.9,0-5.9,0c-0.2,0-0.3,0.1-0.4,0.2c1.9,0.2,3.4,0.2,3.4,0.2s1.5,0,3.4-0.1
		C15.9,49.6,15.7,49.5,15.5,49.5z"/>
	
		<linearGradient id="SVGID_5_" gradientUnits="userSpaceOnUse" x1="9.1873" y1="16.0503" x2="12.8419" y2="10.4462" gradientTransform="matrix(1 0 0 -1 0 52)">
		<stop  offset="0" style="stop-color:#363B39"/>
		<stop  offset="1" style="stop-color:#000000"/>
	</linearGradient>
	<path class="st15" d="M19.2,39.7c-2.2,0.6-4.4,0.8-6.7,0.8c-0.7,0-1.3,0-1.9-0.1C9,41.2,8,43,7.3,44.8c0.5,0.2,1.1,0.4,1.8,0.5
		c2.2,0.4,4.7,0.4,6.9,0c2-0.4,3.4-1.1,3.4-1.1S19.6,42,19.2,39.7z"/>
</g>
</svg>
