<?xml version="1.0" encoding="utf-8"?>
<!-- Generator: Adobe Illustrator 24.1.2, SVG Export Plug-In . SVG Version: 6.00 Build 0)  -->
<svg version="1.1" id="Layer_1" xmlns="http://www.w3.org/2000/svg" xmlns:xlink="http://www.w3.org/1999/xlink" x="0px" y="0px"
	 viewBox="0 0 25 50" style="enable-background:new 0 0 25 50;" xml:space="preserve">
<style type="text/css">
	.st0{fill:#0B8202;}
	.st1{fill:url(#SVGID_1_);}
	.st2{fill:#11AF09;stroke:#57B74F;stroke-miterlimit:10;}
	.st3{fill:url(#SVGID_2_);}
	.st4{fill:url(#SVGID_3_);}
	.st5{fill:url(#SVGID_4_);}
	.st6{fill:url(#SVGID_5_);}
	.st7{fill:url(#SVGID_6_);}
	.st8{fill:url(#SVGID_7_);}
	.st9{fill:url(#SVGID_8_);}
	.st10{fill:url(#SVGID_9_);}
	.st11{fill:url(#SVGID_10_);}
	.st12{fill:#FF0000;}
	.st13{fill:url(#SVGID_11_);}
	.st14{fill:#3FD333;}
	.st15{fill:#474747;}
	.st16{fill:url(#SVGID_12_);}
	.st17{fill:#13B706;}
	.st18{fill:url(#SVGID_13_);}
	.st19{fill:url(#SVGID_14_);}
	.st20{fill:url(#SVGID_15_);}
	.st21{fill:#595959;}
	.st22{fill:url(#SVGID_16_);}
	.st23{fill:url(#SVGID_17_);}
</style>
<g>
	<g>
		<path class="st0" d="M22.4,8.1c-0.2-2.2-0.6-3.3-1.2-4.2c-0.2,0.1-0.6,0-0.8-0.2L18,2.1c-0.2-0.2-0.4-0.5-0.4-0.9
			c-0.1-0.1-0.2-0.1-0.3-0.1v2.1H7.7V1.1C7.6,1.1,7.5,1.1,7.4,1.2C7.3,1.5,7.2,1.8,7,2.1L4.6,3.6C4.3,3.8,4,3.8,3.8,3.8
			c-0.6,0.9-1,2-1.2,4.2c-0.6,5.9-0.2,15.1-0.2,17.4c-0.2,12.1,0.4,19.5,1,22c0.1,0.5,0.5,0.9,0.9,1.2c0.1-0.1,0.2-0.1,0.4-0.1
			c0.8,0,1.2,0.6,2.2,0.4c0.6-0.1,0.8,0.4,0.9,0.9C8.3,50,8.8,50,9.3,50.1c0.1-0.1,0.2-0.2,0.4-0.2h5.4c0.2,0,0.3,0.1,0.4,0.2
			c0.4-0.1,0.8-0.1,1.2-0.2c0.1-0.4,0.2-1,0.9-0.9c0.9,0.2,1.4-0.4,2.2-0.4c0.2,0,0.4,0.1,0.6,0.2c0.6-0.4,1-0.8,1.2-1.4
			c0.7-2.5,1.2-9.9,1.1-22C22.6,23.1,23,13.9,22.4,8.1z"/>
		
			<linearGradient id="SVGID_1_" gradientUnits="userSpaceOnUse" x1="7.6678" y1="49.35" x2="17.2614" y2="49.35" gradientTransform="matrix(1 0 0 -1 0 51.1)">
			<stop  offset="0" style="stop-color:#525956"/>
			<stop  offset="1" style="stop-color:#2C2E2E"/>
		</linearGradient>
		<path class="st1" d="M17.2,3.2V1.1c-2.7-1-6.8-1-9.6,0v2.1C7.6,3.2,17.2,3.2,17.2,3.2z"/>
		<path class="st2" d="M21.8,8.5c-0.4-3.7-1.1-3.9-3-5.7C16.4,0.5,8.6,0.5,6,2.8c-1.8,1.7-2.6,2-3,5.7c-0.6,5.6-0.2,14.5-0.2,16.7
			C2.8,36.7,3.3,43.8,3.9,46.3c0.7,2.8,8.5,2.7,8.5,2.7s7.8,0.2,8.5-2.6c0.7-2.5,1.2-9.5,1-21.2C22.1,22.9,22.4,14.1,21.8,8.5z"/>
		
			<linearGradient id="SVGID_2_" gradientUnits="userSpaceOnUse" x1="5.4449" y1="29.7303" x2="19.4843" y2="29.7303" gradientTransform="matrix(1 0 0 -1 0 51.1)">
			<stop  offset="0" style="stop-color:#000000"/>
			<stop  offset="1" style="stop-color:#1B1C1C"/>
		</linearGradient>
		<path class="st3" d="M8.6,20.6c-1.6,0.2-2.8,0.7-3.2,1l0.1,0.8c0,0,1.3-0.7,3.3-1c1.7-0.3,5.6-0.3,7.3,0c2,0.3,3.3,1,3.3,1
			l0.1-0.8c-0.4-0.2-1.6-0.7-3.2-1C14.5,20.3,10.4,20.3,8.6,20.6z"/>
		
			<linearGradient id="SVGID_3_" gradientUnits="userSpaceOnUse" x1="4.3429" y1="37.6043" x2="20.6109" y2="37.6043" gradientTransform="matrix(1 0 0 -1 0 51.1)">
			<stop  offset="0" style="stop-color:#000000"/>
			<stop  offset="1" style="stop-color:#1B1C1C"/>
		</linearGradient>
		<path class="st4" d="M4.9,14.6c0.6-0.3,1.7-0.8,3.4-1.2c2.5-0.6,5.7-0.6,8.2,0c1.7,0.4,2.8,0.9,3.4,1.2c0.3,0.1,0.4,0.2,0.6,0.4
			l0,0c0,0,0.1-0.6,0.1-0.7c-0.1-0.1-0.2-0.2-0.6-0.4c-0.6-0.3-1.7-0.8-3.4-1.2c-2.5-0.6-5.7-0.6-8.2,0c-1.7,0.4-2.8,0.9-3.4,1.2
			c-0.3,0.2-0.5,0.3-0.6,0.4c-0.1,0.2,0.1,0.7,0.1,0.7l0,0C4.5,14.8,4.7,14.7,4.9,14.6z"/>
		
			<linearGradient id="SVGID_4_" gradientUnits="userSpaceOnUse" x1="4.4043" y1="33.879" x2="20.5311" y2="33.879" gradientTransform="matrix(1 0 0 -1 0 51.1)">
			<stop  offset="0" style="stop-color:#363B39"/>
			<stop  offset="1" style="stop-color:#1B1C1C"/>
		</linearGradient>
		<path class="st5" d="M8.6,20.6c1.8-0.3,5.8-0.3,7.6,0c1.6,0.2,2.8,0.7,3.2,1l1-6.7c-0.1-0.1-0.2-0.2-0.6-0.4
			c-0.6-0.3-1.7-0.8-3.4-1.2c-2.5-0.6-5.7-0.6-8.2,0c-1.7,0.4-2.8,0.9-3.4,1.2c-0.3,0.1-0.4,0.2-0.6,0.4l1.1,6.7
			C5.9,21.3,7,20.8,8.6,20.6z"/>
		
			<linearGradient id="SVGID_5_" gradientUnits="userSpaceOnUse" x1="5.6442" y1="8.3787" x2="19.286" y2="8.3787" gradientTransform="matrix(1 0 0 -1 0 51.1)">
			<stop  offset="0" style="stop-color:#000000"/>
			<stop  offset="1" style="stop-color:#1B1C1C"/>
		</linearGradient>
		<path class="st6" d="M19,39.8c-0.1-0.3-0.1-0.6-0.2-0.9c0,0-0.1,0.1-0.3,0.1c-0.7,0.3-2.6,1-6,1c-3.1,0-5.3-0.7-6-1
			c-0.2-0.1-0.3-0.1-0.3-0.1C6,39.2,6,39.5,5.9,39.8c-0.5,2.7-0.2,5.4-0.2,5.4S7,45.8,9,46.3c1.5,0.3,5.3,0.3,6.8,0
			c2-0.4,3.3-1.1,3.3-1.1S19.5,42.5,19,39.8z M18.8,44.4c0,0-1.3,0.7-3.1,1.1c-1.4,0.3-4.9,0.3-6.3,0c-1.8-0.4-3.1-1.1-3.1-1.1
			s-0.2-2.1,0.1-4.6c1.2,0.4,3.3,0.8,6.2,0.8c3.1,0,5.1-0.4,6.2-0.8C19,42.3,18.8,44.4,18.8,44.4z"/>
		
			<linearGradient id="SVGID_6_" gradientUnits="userSpaceOnUse" x1="6.1104" y1="8.2863" x2="18.7952" y2="8.2863" gradientTransform="matrix(1 0 0 -1 0 51.1)">
			<stop  offset="0" style="stop-color:#363B39"/>
			<stop  offset="1" style="stop-color:#1B1C1C"/>
		</linearGradient>
		<path class="st7" d="M6.3,39.9c-0.3,2.4-0.1,4.6-0.1,4.6s1.3,0.7,3.1,1.1c1.4,0.3,4.9,0.3,6.3,0c1.8-0.4,3.1-1.1,3.1-1.1
			s0.2-2.1-0.1-4.5c-1.1,0.4-3.1,0.8-6.2,0.8C9.6,40.7,7.5,40.2,6.3,39.9z"/>
		<g>
			
				<linearGradient id="SVGID_7_" gradientUnits="userSpaceOnUse" x1="3.7823" y1="28.9375" x2="5.371" y2="28.9375" gradientTransform="matrix(1 0 0 -1 0 51.1)">
				<stop  offset="0" style="stop-color:#363B39"/>
				<stop  offset="1" style="stop-color:#1B1C1C"/>
			</linearGradient>
			<path class="st8" d="M4,29.2l1.4,0.5l-0.2-6.8l-1.3-8.1c0,0-0.1,2.1,0,5.1c0.1,1.9,0.3,4.5,0.2,6.2C4.1,27.6,4.1,28.6,4,29.2z"/>
			
				<linearGradient id="SVGID_8_" gradientUnits="userSpaceOnUse" x1="19.5606" y1="28.9683" x2="21.1492" y2="28.9683" gradientTransform="matrix(1 0 0 -1 0 51.1)">
				<stop  offset="0" style="stop-color:#363B39"/>
				<stop  offset="1" style="stop-color:#1B1C1C"/>
			</linearGradient>
			<path class="st9" d="M20.9,29.2l-1.4,0.5l0.2-6.9l1.3-8.1c0,0,0.1,2.1,0,5.1c-0.1,1.9-0.2,4.5-0.2,6.2
				C20.8,27.6,20.9,28.7,20.9,29.2z"/>
		</g>
		<g>
			
				<linearGradient id="SVGID_9_" gradientUnits="userSpaceOnUse" x1="3.8966" y1="16.2528" x2="5.5413" y2="16.2528" gradientTransform="matrix(1 0 0 -1 0 51.1)">
				<stop  offset="0" style="stop-color:#363B39"/>
				<stop  offset="1" style="stop-color:#1B1C1C"/>
			</linearGradient>
			<path class="st10" d="M3.9,29.8l1.4,0.7l0.2,5.7c0,0-0.1,0.7-0.7,1.9c-0.6,1.4-0.9,1.7-0.9,1.7S3.8,32,3.9,29.8z"/>
			
				<linearGradient id="SVGID_10_" gradientUnits="userSpaceOnUse" x1="19.3937" y1="16.2528" x2="21.0364" y2="16.2528" gradientTransform="matrix(1 0 0 -1 0 51.1)">
				<stop  offset="0" style="stop-color:#363B39"/>
				<stop  offset="1" style="stop-color:#1B1C1C"/>
			</linearGradient>
			<path class="st11" d="M20.9,29.8l-1.4,0.7l-0.2,5.7c0,0,0.1,0.7,0.7,1.9c0.6,1.4,0.9,1.7,0.9,1.7S21.1,32,20.9,29.8z"/>
		</g>
		<g>
			<path d="M4.6,3.6L6.9,2c0.2-0.2,0.4-0.5,0.4-0.9c-0.7,0.3-1.2,0.6-1.7,1C4.9,2.9,4.3,3.1,3.8,3.8C4,3.8,4.3,3.8,4.6,3.6z"/>
			<path d="M18,2l2.3,1.6c0.2,0.2,0.6,0.2,0.8,0.2c-0.5-0.7-1.1-0.9-1.9-1.7c-0.4-0.4-1-0.7-1.7-1C17.6,1.5,17.8,1.8,18,2z"/>
		</g>
		<path class="st12" d="M6.9,49c-0.9,0.2-1.4-0.4-2.2-0.4c-0.1,0-0.2,0.1-0.4,0.1c0.9,0.6,2.2,1,3.4,1.2C7.7,49.4,7.5,48.9,6.9,49z"
			/>
		<path class="st12" d="M17.6,49c-0.6-0.1-0.9,0.5-0.9,0.9c1.4-0.2,2.6-0.6,3.6-1.1c-0.1-0.1-0.3-0.2-0.6-0.2
			C19,48.5,18.5,49.1,17.6,49z"/>
		
			<linearGradient id="SVGID_11_" gradientUnits="userSpaceOnUse" x1="12.2645" y1="35.5776" x2="17.008" y2="32.2048" gradientTransform="matrix(1 0 0 -1 0 51.1)">
			<stop  offset="0" style="stop-color:#363B39"/>
			<stop  offset="1" style="stop-color:#000000"/>
		</linearGradient>
		<path class="st13" d="M20,14.6c-0.6-0.3-1.7-0.8-3.4-1.2c-0.6-0.1-1.2-0.2-1.9-0.3c-1.7,2.1-3.8,5.8-4.6,7.5
			c2-0.1,4.9-0.1,6.3,0.1c1.6,0.2,2.8,0.7,3.2,1l1-6.7C20.5,14.8,20.3,14.7,20,14.6z"/>
		<path class="st14" d="M12.4,21.8c-5-0.1-6.7,0.9-6.7,0.9s0.1,13.6,0.4,15c0.2,0.9,3.4,1.4,5.4,1.5h1.7c2-0.2,5.2-0.6,5.4-1.5
			c0.4-1.4,0.4-15,0.4-15S17.5,21.7,12.4,21.8z"/>
		<path class="st15" d="M6.9,2.4c0,0-3,1.4-3.3,5.2c-0.3,3.9-0.3,5.8-0.3,5.8S4.3,4.5,6.9,2.4z"/>
		<path class="st15" d="M18,2.4c0,0,3,1.4,3.3,5.2c0.3,3.9,0.2,5.8,0.2,5.8S20.6,4.5,18,2.4z"/>
		
			<linearGradient id="SVGID_12_" gradientUnits="userSpaceOnUse" x1="20.825" y1="35.6128" x2="22.763" y2="31.8606" gradientTransform="matrix(1 0 0 -1 0 51.1)">
			<stop  offset="0" style="stop-color:#363B39"/>
			<stop  offset="1" style="stop-color:#1B1C1C"/>
		</linearGradient>
		<path class="st16" d="M21.1,15.2c0,0,0.8,0.2,0.8,0.9c0,0.7-0.8,2.3-0.8,1.3C21,16.5,21,15.5,21.1,15.2z"/>
		<path class="st17" d="M23.8,16.8c-0.2-0.2-1.7-0.8-1.7-0.8c-0.3-0.1-0.4,0.2-0.4,0.4l2.3,0.8C23.8,17.1,23.8,17,23.8,16.8z"/>
		
			<linearGradient id="SVGID_13_" gradientUnits="userSpaceOnUse" x1="21.5464" y1="34.1715" x2="23.8396" y2="34.1715" gradientTransform="matrix(1 0 0 -1 0 51.1)">
			<stop  offset="0" style="stop-color:#363B39"/>
			<stop  offset="1" style="stop-color:#1B1C1C"/>
		</linearGradient>
		<path class="st18" d="M21.6,16.5c0,0.2,0,0.3,0,0.3l2.2,0.6c0,0,0.1-0.1,0.1-0.2L21.6,16.5z"/>
		
			<linearGradient id="SVGID_14_" gradientUnits="userSpaceOnUse" x1="3.4644" y1="35.2921" x2="5.155" y2="31.581" gradientTransform="matrix(1 0 0 -1 0 51.1)">
			<stop  offset="0" style="stop-color:#363B39"/>
			<stop  offset="1" style="stop-color:#1B1C1C"/>
		</linearGradient>
		<path class="st19" d="M3.9,15.1c0,0-0.8,0.2-0.9,0.9c0,0.7,0.8,2.3,0.9,1.3C3.9,16.4,3.9,15.4,3.9,15.1z"/>
		<path class="st17" d="M2.9,16c0,0-1.6,0.6-1.7,0.8c-0.1,0.2-0.1,0.3-0.1,0.4l2.3-0.8C3.3,16.2,3.2,15.9,2.9,16z"/>
		
			<linearGradient id="SVGID_15_" gradientUnits="userSpaceOnUse" x1="1.0881" y1="34.233" x2="3.3818" y2="34.233" gradientTransform="matrix(1 0 0 -1 0 51.1)">
			<stop  offset="0" style="stop-color:#363B39"/>
			<stop  offset="1" style="stop-color:#1B1C1C"/>
		</linearGradient>
		<path class="st20" d="M1.1,17.2c0,0.1,0.1,0.1,0.1,0.1l2.2-0.6c0,0,0-0.1,0-0.3L1.1,17.2z"/>
		<path class="st21" d="M2.3,25c-0.1,0-0.2,0.1-0.2,0.2v1.9c-0.1,0.2,0.1,0.2,0.2,0.2V25z"/>
		<path class="st21" d="M2.5,34.8c-0.1,0-0.2,0.1-0.2,0.2v1.9c0,0.1,0.1,0.2,0.2,0.2V34.8z"/>
		<path class="st21" d="M22.6,25c0.1,0,0.2,0.1,0.2,0.2v1.9c0,0.1-0.1,0.2-0.2,0.2V25z"/>
		<path class="st21" d="M22.5,34.8c0.1,0,0.2,0.1,0.2,0.2v1.9c0,0.1-0.1,0.2-0.2,0.2V34.8z"/>
		
			<linearGradient id="SVGID_16_" gradientUnits="userSpaceOnUse" x1="9.3796" y1="1.1309" x2="15.5434" y2="1.1309" gradientTransform="matrix(1 0 0 -1 0 51.1)">
			<stop  offset="0" style="stop-color:#363B39"/>
			<stop  offset="1" style="stop-color:#1B1C1C"/>
		</linearGradient>
		<path class="st22" d="M15.2,49.8H9.7c-0.2,0-0.3,0.1-0.4,0.2c1.7,0.2,3.1,0.1,3.1,0.1s1.4,0,3.1-0.1
			C15.5,49.9,15.3,49.8,15.2,49.8z"/>
		
			<linearGradient id="SVGID_17_" gradientUnits="userSpaceOnUse" x1="9.201" y1="14.6486" x2="12.6964" y2="9.2885" gradientTransform="matrix(1 0 0 -1 0 51.1)">
			<stop  offset="0" style="stop-color:#363B39"/>
			<stop  offset="1" style="stop-color:#000000"/>
		</linearGradient>
		<path class="st23" d="M18.7,39.9c-1.1,0.4-3.1,0.8-6.2,0.8c-0.6,0-1.2,0-1.8-0.1c-1.8,0.9-2.8,3.7-3.1,4.4c0.5,0.2,1,0.4,1.7,0.5
			c1.4,0.3,4.9,0.3,6.3,0c1.8-0.4,3.1-1.1,3.1-1.1S19,42.3,18.7,39.9z"/>
	</g>
</g>
</svg>
